<svg xmlns="http://www.w3.org/2000/svg" id="pav-face" viewBox="0 0 68.33 67.78">
  <defs>
    <filter id="displacement-01">
      <feTurbulence
        type="fractalNoise"
        baseFrequency="0.05"
        numOctaves="3"
        result="noise" 
      />
      <feDisplacementMap
        in2="noise"
        in="SourceGraphic"
        scale="3"
      />
    </filter>
        <filter id="displacement-02">
      <feTurbulence
        type="fractalNoise"
        baseFrequency="0.08"
        numOctaves="3"
        result="noise" 
      />
      <feDisplacementMap
        in2="noise"
        in="SourceGraphic"
        scale="6"
      />
    </filter>
    <style>
      .cls-1{
        fill:#dddddd;
        stroke-width:0;
        will-change: filter;
        @media (prefers-reduced-motion: no-preference) {
          animation: 
            displacement 0.3s linear 0.2s infinite;
        }
    }
      @keyframes displacement {
        0% {
          filter: url(#displacement-01);
        }
        100% {
          filter: url(#displacement-02);
        }

    </style>
  </defs>
  <path d="M36.79 23.05c-2.05 2.7-3.39 6.02-6.05 8.21.04.04.04.11.04.15 0 .25-.36.36-.3.6-1.18 1.2-2.37 2.35-3.27 3.79-.57.25-.97.68-1.26 1.26-.29 0-.36.18-.6.25a27.6 27.6 0 0 1-5.01 4.82c-.69.5-1.4.9-2.05 1.37-.44.29-.83.72-1.23 1.04a8.44 8.44 0 0 1-4.35 2.24c-.3 1.08.14 2.34-.36 3.38v.1c0 .48.32.9.32 1.37 0 .19-.07.33-.22.44h.9c0 .64.62 1.11.62 1.36 0 .8-.04 1.95-.87 2.27v.22a2 2 0 0 1-.4 1.33c-.25 0-.5.04-.75.04-.94 0-1.84-.22-2.63-.69-.5-1.22-.64-2.55-.64-3.85 0-2.55.53-5.07.75-7.63l.5-1c.18-2.67 1.08-5.26 1.01-7.93.33-.79.5-1.72.5-2.55 0-.47-.03-.94-.25-1.37.3-.18.33-.54.5-.76.15-1.8.26-3.6.26-5.4 0-.97-.04-1.94-.14-2.91-.04-.36-.22-.97-.22-1.26 0-.4.07-.8.07-1.19 0-.47-.07-.93-.32-1.33-2.2.65-3.89 1.84-5.72 3.17-.72.54-1.7 1.36-2.49 1.72-.14.08-.4.11-.54.11-.47 0-.9-.1-1.33-.1a3.55 3.55 0 0 0-1.15-.76 3.9 3.9 0 0 1-.11-.94c0-.65.14-1.26.36-1.83 1.15-.43 2.6-.83 3.17-2.02.1.07.21.1.36.1.21 0 .43-.06.65-.1.82-.54 1.69-1.11 2.62-1.51.3-.1.3-.22.26-.5 1.08-.33 2.34-.72 3.16-1.52h.61c1.4-1.04 3.32-1.15 4.68-2.26.11-.04.26-.08.36-.08.15 0 .3.04.4.08.47-.26.8-.62 1.15-1.01 1.55-.04 2.34-.58 3.64-1.26.25.07.32.25.65.25.97-.68 2.26-.43 3.13-1.12 1.5 0 3.02-.1 4.53-.1 2.16 0 4.5.18 6.3 1.47.36.83.87 1.59 1.51 2.16.11.47.22.94.4 1.37-.18.36-.25.76-.25 1.15 0 .83.25 1.66.25 2.45 0 1.66-.86 3.13-1.15 4.72ZM34.4 16c-.61-.47-.79-1.37-1.4-1.76-.43-.26-1.33-.22-1.87-.36-.58-.18-.58-.44-1.26-.44-.58 0-1.12.18-1.7.18-.46 0-.86-.25-1.33-.25-.54 0-.9.5-1.5.36-.55.5.1.5-.94.5-1.01 0-2.1.26-2.85.9-.14-.03-.25-.07-.4-.07-.79 0-1.47.69-2.37.69-1.15 1.15-3.38 1.04-4.18 2.52-.03.4.4.36.4.72 0 .32-.18.83-.18 1.3 0 1.07.32 2.12.54 3.16-.25.14-.25.47-.5.61.32.97.5 1.98.5 3.03 0 1.62-.5 3.2-.65 4.82 0 .32.29.32.29.58 0 .07 0 .1-.04.18-.5 3.16-1.04 6.37-1.36 9.57h.28c1.23 0 2.16-.86 2.85-1.76h.54a71.4 71.4 0 0 0 9.32-9.61c.36 0 .43-.3.76-.36a25.93 25.93 0 0 1 3.27-3.93c.11-1 .97-1.3 1.01-2.37.25-.11.54-.18.76-.4.07-.47.43-.83.43-1.3 0-.1-.04-.21-.07-.32 1.54-.72 1.47-3.24 1.9-4.68a2.7 2.7 0 0 1-.25-1.51ZM46.65 65.08c-.22 0-.43-.04-.65-.04-.25 0-.14.33-.36.4-.25-.07-.5-.1-.72-.1l-.9.03c-.72 0-.57-.36-1.04-.58-.33-.14-.47.11-.9-.25-1.08-.9-1.51-2.88-2.63-4.03h-.29c-.4 0-.68.14-.86.5-.25-.14-.47-.36-.76-.5-1.08.32-2.26.57-3.42.57-.32 0-.64 0-.97-.07-.43.18-.79.54-1.26.54-.18 0-.36-.07-.5-.14-.25 0-.07.36-.4.36h-.32c-.65 0-1.3.07-1.95.07a5.7 5.7 0 0 1-1.36-.18c-.11.07-.26.1-.4.1-.36.22-.25.87-.86.76-.07.58-.65.76-.65 1.4-1 .55-1.22 1.88-2.27 2.38-.14.18-.14.44-.1.65-.55.43-1.34.83-2.02.83-.72 0-1.15-.43-1.4-1.08.03-.94.14-2.27 1.15-2.66 0-.4-.44-.44-.4-.87 2.56-1.22 3.42-4.14 5.44-5.94v-.75a5.1 5.1 0 0 0 1.36-2.52c.5-.11.65-.54.65-1.01.22 0 .22-.36.5-.25.83-2.23 2.27-3.67 2.63-6.2.61-.03.58-.79.65-1.25 1.37-1.3 1.19-3.78 2.52-5.3v-.1c0-.22-.29-.18-.29-.44 0 0 .04-.03.04-.07.54-.25.68-.93 1.26-1.15.97.76 1.55.83 2.77.9.61.68.54 1.66.76 2.52.36 1.48.9 2.88 1.11 4.4.15.9.65 1.65.76 2.51.1.65-.11 1.55.14 2.16l.25.58c.22.54.4 1.08.54 1.65.36 1.4.58 3.13 1.23 4.47.46.9 2.2.68 3.02.68.25 0 .5 0 .76.07.07.15.14.33.14.5 0 .58-.54.8-.54 1.23 0 .14.07.29.14.4-.14-.04-.28-.04-.43-.04-.5 0-1.08.1-1.58.29.36.79 1.04 1.3 1.76 1.76.22-.18.47-.29.72-.29.58 0 1.05.36 1.59.36.18 0 .32 0 .46-.07.36.4.54.87.9 1.26-.25 1.3-1.98 1.55-3.02 1.55Zm-8.46-8.71c-.18-.65-.21-1.44-.36-2.12a24.1 24.1 0 0 0-1.3-4.72c.08-.1.15-.25.15-.4v-.1c-.83-.94-.58-2.85-1.66-3.53a1 1 0 0 0-.1.47c0 .32.1.6.1.93-.46.22-.57.83-1 1.12-.8 2.99-3.03 5.25-3.9 8.2-.57.4-.75 1.12-.75 1.77.87.5 2.16-.1 2.88.65.58-.18 1.44-.18 1.91-.5.47.17.97.24 1.51.24s1.12-.1 1.62-.25c.4.11.54.4 1.01.36.22-.18.22-.43.4-.6-.08-.8-.36-.98-.5-1.52ZM65.92 8.57C64.8 15.05 64.69 21.7 63 28.1l.04.43c.07.94-.44 1.73-.4 2.7a18.53 18.53 0 0 0-1.26 5.55c-.9 1.62-1.04 3.92-2.27 5.29-.29 2.16-1.83 3.74-2.26 5.8-.8 1.18-1.63 2.3-2.27 3.56-1.23.54-1.59 1.55-3.13 1.55-.18 0-.36-.04-.54-.04-.65-.47-1.3-1-2.02-1.4-.04-.58-.32-.65-.1-1.26-.44-.3-1.16-1.2-1.16-1.7 0-.18.1-.32.25-.32-.1-.47-.4-.94-.4-1.4 0-.18.08-.36.15-.5-.5-1.23-.97-2.53-1.12-3.9-.93-1.22-.9-3.38-1.18-4.85-.04-.3-.33-1.16-.33-1.34 0-.28.18-.36.25-.6-1.15-4.5-1.11-9.22-2.52-13.65v-.32c0-.76-.28-1.34-.9-1.8.11-.3.19-.58.19-.87 0-1.19-.83-2.23-.54-3.42-.5-.54-.72-1.3-1.26-1.76l-.04-.18c0-.25.18-.43.18-.65 0-.65-.8-.86-.8-1.33 0-1.12 1.77-1.08 2.02-2.13.4.08.8.08 1.15.26q.04-.04.04-.11c0-.15-.65-.25-.8-.4.15-.03.3-.07.44-.07.94 0 1.8.58 2.6 1.08.06.43-.08.86.24 1.26-.03.22 0 .43 0 .61s-.07.4-.25.4c.72 1.19.25 3.35 1.26 4.53-.1.3-.1.58-.1.9 0 1.52.57 2.92.57 4.43 0 .43-.07.83-.22 1.23 0 .43.4.6.5 1-.1.25-.17.54-.17.83 0 1.04.61 1.98.61 3.02 0 .3-.07.58-.18.83.4.43.22 1.19.61 1.62-.03.22-.03.5-.25.65.22.29.1 1 .5 1.12-.07.21-.14.4-.14.6 0 1.02.76 1.63.4 2.82.43.5.28 1.65 1 1.87.08.28-.36.14-.36.4 0 .35.36 1 .62 1.25-.04.18-.04.4-.04.61 0 1.26.9 2.78.54 3.93.32.68.54 1.51 1.15 2.01 0 .8.36 1.55.87 2.16 1 0 .64-1.44 1.5-1.54.12-.9.98-1.16.9-2.27l.37-.11c.21-1.26.79-2.2 1.4-3.28v-.18c0-.43.18-.72.1-1.22.66-.22.48-1.19 1.02-1.51V38c-.04-.4.18-.8 0-1.22.72-.33.72-1.37.75-2.02.69-.86.4-2.48 1.15-3.27-.07-.22-.07-.44-.07-.65 0-.87.33-1.55.58-2.38.61-2.12.75-4.39 1.22-6.55.11-.5.65-2.23.65-2.52 0-.36-.25-.43-.25-.75.54-.83.4-2.81.4-3.78 0-.54.35-1.44.43-2.06.21-1.58.25-3.16.32-4.75.32-.18.47-.5.47-.83 0-.5-.18-.97-.18-1.47 0-.25.03-.54.21-.72-.03-.29-.03-.68-.25-.9.11-.29.18-.61.18-.9 0-.58-.18-1.15-.18-1.73 0-.57.22-1 .76-1.26h.47c.46 0 .97-.03 1.44-.25 1.3 1.33 2.77 3.13 2.37 5.15.18.36.15.79.4 1.15-.65.9-1.37 1.8-2.41 2.27Zm-4.8 16.88c-.17-.04-.2-.22-.39-.25v.4h.25l.15-.15Z" class="cls-1"/>
</svg>
