<svg xmlns="http://www.w3.org/2000/svg" id="uuid-644bff19-e9ff-4984-b4e2-075f07e74d22" width="491.7783" height="223.9216" data-name="pav-type" viewBox="0 0 368.8338 167.9412">
  <defs>
    <style>
      .uuid-d240de93-f333-4ee9-ab16-c1048367e5fc{fill:#212121;stroke-width:0}.uuid-6ebf4ad7-5ecd-47cb-9c43-cecb34613553{fill:none;stroke:#212121;stroke-miterlimit:10;stroke-width:2px}
    </style>
  </defs>
  <g id="uuid-fe72831d-3c0b-44a4-9e2d-30dd340d184f" data-name="pav-type">
    <path d="M368.3338 80.4624 220.639 165.734c-4.3006 2.483-9.7995 1.0135-12.2882-3.2838L131.3114 29.4247c-1.659-2.8649-5.325-3.8445-8.192-2.1892L15.6013 89.311" class="uuid-6ebf4ad7-5ecd-47cb-9c43-cecb34613553"/>
    <path d="m0 62.2887 11.3911-6.5767c4.8638-2.808 10.4619-1.273 13.2942 3.6326 2.8561 4.947 1.3275 10.652-3.62 13.5084l-5.5708 3.2163c-.4986.2879-1.0583.2784-1.5238.0482-.4-.2123-.8943-.2043-1.31.0357-.6652.384-.8756 1.1709-.4916 1.836.24.4157.6637.67 1.1166.686.5176.0332 1.007.3049 1.2952.8039l4.5124 7.8158-3.492 2.016L0 62.2888Zm13.6678 22.0415 1.344 2.3278c.36.6237 1.0397.8409 1.6634.4808s.7755-1.0573.4154-1.681l-1.344-2.3278c-.3601-.6238-1.04-.8413-1.6637-.4812s-.7752 1.0576-.4151 1.6814Zm-.897-10.2911c.0334-.5183.305-1.0078.8035-1.2956l5.5709-3.2163c2.8272-1.6323 3.6576-4.994 1.9054-8.0289s-5.0787-3.9966-7.906-2.3643L7.574 62.3503c-.4986.2879-1.0583.2784-1.5239.0482-.4-.2123-.8943-.2042-1.31.0358-.6651.384-.8756 1.1708-.4915 1.836.24.4156.6636.67 1.1163.6855.5179.0337 1.0073.3053 1.2954.8043l3.5044 6.0698c.2879.4985.2786 1.0587.0488 1.524-.2129.3997-.2045.8938.0355 1.3095.384.6652 1.1707.8763 1.8359.4923.4157-.24.6698-.6641.686-1.1166Zm-2.813-13.8967 2.3282-1.3442c.6233-.3599.8409-1.0397.4807-1.6635-.3598-.6233-1.0573-.7748-1.6806-.415L8.7578 58.064c-.6238.3601-.8409 1.0397-.481 1.663.36.6237 1.0572.7755 1.681.4154Zm9.2333 11.5758c-.3843-.6656-1.171-.8761-1.8362-.492s-.8763 1.1706-.492 1.8362c.3837.6647 1.1708.8756 1.836.4916s.876-1.1711.4922-1.8358Zm5.1956-4.4414c-.384-.6652-1.1704-.8759-1.836-.4916-.6647.3838-.8759 1.1704-.4918 1.8356s1.171.876 1.8358.4922c.6656-.3842.876-1.171.492-1.8362Zm-5.916-11.495c-.3841-.6653-1.1705-.876-1.8357-.492s-.8763 1.1707-.4922 1.8359 1.171.876 1.8362.492.8757-1.1708.4916-1.836Zm5.4725 4.1017-.096-.1661c-.8161-1.4137-1.747-1.8736-2.5783-1.3937-.6652.384-.7101 1.0748-.0633 1.8103.5088.5932.7968 1.0922 1.0559 1.829.3136.9279.9342 1.2343 1.5994.8503.8314-.48.8985-1.5161.0823-2.9298ZM22.7881 49.132l18.4585-10.657 1.9201 3.3258-12.8047 7.3928c-.4986.2879-1.0583.2784-1.5238.0482-.4-.2123-.8943-.2043-1.31.0357-.6652.384-.8756 1.1709-.4916 1.836.24.4157.6637.67 1.1163.6856.5179.0336 1.0074.3053 1.2955.8042l2.256 3.9077c.2882.499.2787 1.0587.0489 1.524-.2127.4002-.2043.8943.0357 1.31.384.6652 1.1707.8763 1.8359.4923.4157-.24.6698-.6641.6857-1.117.0337-.5179.3053-1.0074.8038-1.2952l10.8093-6.2407 1.9202 3.3258-10.8093 6.2407c-.4986.2879-1.0583.2784-1.5238.0482-.4-.2123-.8943-.2043-1.31.0357-.6652.384-.8756 1.1709-.4916 1.836.24.4157.6637.67 1.1163.6856.5179.0336 1.0074.3053 1.2955.8042l2.5442 4.4067c.288.499.2785 1.0587.0488 1.524-.213.3998-.2045.8939.0355 1.3096.384.6651 1.1707.8763 1.8358.4922.4157-.24.67-.6636.686-1.1166.0334-.5182.305-1.0077.8036-1.2956l13.1371-7.5847 1.9683 3.4092-18.7908 10.8488L22.788 49.132Zm9.9578-2.1463 2.3282-1.3443c.6234-.3598.8409-1.0397.4808-1.6634-.3599-.6233-1.0574-.7748-1.6807-.415l-2.3283 1.3443c-.6237.3601-.8408 1.0397-.481 1.663.3601.6237 1.0572.7755 1.681.4154ZM47.377 70.023l4.9885-2.8802c.6238-.36.8409-1.0396.4808-1.6634s-1.0572-.7755-1.681-.4154l-4.9885 2.8802c-.6237.36-.8413 1.04-.4812 1.6636s1.0577.7753 1.6814.4152Zm-4.4666-13.4962 2.3283-1.3443c.6237-.36.8408-1.0397.4807-1.6634-.3599-.6233-1.0572-.7755-1.681-.4154l-2.3282 1.3443c-.6233.3598-.8406 1.04-.4808 1.6634.3601.6237 1.0577.7752 1.681.4154Zm-1.8681-15.7171c-.384-.6652-1.1709-.8756-1.836-.4916s-.8763 1.1707-.4923 1.8358 1.1711.8761 1.8363.492.876-1.171.492-1.8362Zm13.2391-9.8604L57.94 28.837l26.244 20.8778-3.991 2.3042-5.6532-4.607c-.293-.2194-.3362-.5823-.1588-.8511.2783-.3823.2874-.9417.0235-1.3989-.3843-.6655-1.1707-.8763-1.8358-.4922-.6238.36-.8409 1.0397-.564 1.7115.1023.273.0558.5772-.3599.8172l-8.3562 4.8245c-.4157.24-.702.1279-.8872-.0973-.4434-.5756-1.1406-.7274-1.7643-.3673-.6651.384-.8763 1.1707-.492 1.8363.264.4571.7534.7288 1.2236.6789.3215-.0193.6142.1996.6577.563l1.2046 7.1754-3.991 2.3042-4.9586-33.1669Zm7.689 28.4867c-.3843-.6656-1.1712-.876-1.8363-.492s-.8763 1.1706-.492 1.8362c.3837.6648 1.1708.8757 1.836.4916s.876-1.171.4922-1.8358Zm.2265-10.5519c-.0674-.4048.0447-.6911.3775-.8832l5.9032-3.4082c.3324-.192.6364-.1459.9533.115.4061.3196.9723.436 1.5127.124.6652-.3841.8763-1.1707.4923-1.836s-1.1711-.876-1.8363-.492c-.3328.1922-.8026.2418-1.1194-.019l-8.2769-6.7508c-.2927-.219-.3953-.4924-.3007-.7133.171-.3756.1451-.8043-.071-1.1786-.384-.6651-1.1708-.8756-1.836-.4916s-.8758 1.1705-.4918 1.8356c.216.3743.5744.6111.9437.6747.2382.0288.4656.2302.5088.5931l1.7914 10.4953c.0674.4048-.211.787-.5437.9792-.6652.384-.8757 1.1709-.4916 1.836s1.1704.876 1.8356.4919c.5404-.312.7227-.8605.649-1.372Zm-2.9203-6.019-.4167-2.6417c-.0864-.726-.6721-1.1642-1.3738-1.0359-.7024.1282-1.0988.6897-.9705 1.3914l.4165 2.6423c.0864.726.6719 1.1637 1.3982 1.077.702-.1278 1.0744-.7308.9463-1.4332Zm7.924-5.5723-2.0797-1.6822c-.5436-.462-1.228-.3994-1.6902.1448-.462.5436-.3753 1.2699.2101 1.7077l2.0794 1.6817c.5442.4622 1.2526.4411 1.7144-.1029.4378-.5854.3513-1.3113-.234-1.7491ZM81.0938 48.395c-.3842-.6656-1.171-.876-1.8362-.492s-.8763 1.1706-.492 1.8362c.3837.6648 1.1708.8757 1.836.4916s.876-1.171.4922-1.8358Zm-9.8031-27.266 3.492-2.016 7.8967 13.6775c.144.2495.0977.553-.1451.8043-.3197.4062-.3707.9898-.0826 1.4888.384.6652 1.1707.8763 1.8358.4923s.8761-1.1711.492-1.8363c-.0959-.1662-.2335-.3089-.3474-.4094-.2927-.219-.4188-.534-.3725-.8376l3.5274-20.7722 4.6566-2.6885-2.9314 15.661c-.1278.7386-.7354.6462-1.0682.8383-.6652.384-.876 1.1711-.492 1.8363s1.1708.8756 1.836.4916c.4157-.24.4972-.675 1.3802-.2979l18.0404 7.821-4.4067 2.5443-14.616-6.3059c-.3516-.1296-.4782-.4445-.456-.79.0288-.2381-.0499-.47-.194-.7196-.384-.6651-1.1706-.8763-1.8358-.4923s-.876 1.1711-.492 1.8363c.144.2495.3056.4336.5263.5278.2449.136.3647.3436.3187.6476l-1.2855 6.8946 3.8164 6.6102-3.492 2.0161L71.2907 21.129Zm6.9616 5.6254-2.8801-4.9885c-.3601-.6237-1.0397-.8409-1.6634-.4808s-.7755 1.0572-.4154 1.681l2.8801 4.9885c.3601.6237 1.0397.8408 1.6634.4807s.7755-1.0572.4154-1.6809Zm6.7061 16.4161 1.344 2.3279c.3601.6237 1.0397.8408 1.6634.4807s.7755-1.0572.4154-1.681l-1.344-2.3278c-.36-.6237-1.04-.8413-1.6636-.4811s-.7753 1.0576-.4152 1.6813Zm19.7111-8.7753-5.2797-2.3284c-.6623-.2829-1.358-.0475-1.6405.6145-.283.6624.0357 1.31.656 1.6167l5.2972 2.263c.6623.2829 1.3166.0714 1.599-.5907.283-.6623.0304-1.2922-.632-1.5751ZM90.428 13.184c-.384-.6652-1.1708-.8757-1.836-.4916s-.8763 1.1706-.4923 1.8358 1.1711.876 1.8363.492.876-1.171.492-1.8362Zm13.8727 13.6084 3.2489-3.2057c2.3742 3.7284 6.91 4.7683 11.0257 2.392 3.3259-1.9201 4.8475-5.2377 3.3595-7.815-3.7203-6.4437-18.3901 4.6308-23.3825-4.0163-2.4961-4.3234-.0894-9.3716 4.9825-12.2998 5.1551-2.9763 10.743-2.3223 13.738 1.713l-3.2005 3.2895c-1.9647-2.6353-5.541-3.4528-8.8669-1.5326-2.6606 1.5361-4.1723 4.2937-2.9243 6.4554 3.2642 5.6537 18.1016-5.1296 23.478 4.1827 2.6643 4.6147.5634 10.0958-5.2984 13.4801-6.1112 3.5283-12.755 2.486-16.16-2.6433Zm2.2555 1.0258c.384.6652 1.1707.8763 1.8359.4923s.876-1.171.492-1.8363-1.1709-.8756-1.836-.4916-.876 1.1705-.4919 1.8356Zm-4.5081-14.9128c-.5857-.4382-.8735-.9368-.9602-1.6631-.117-.8746-.8995-1.3655-1.648-.9334-.8727.5039-.861 1.7724-.117 3.0609.7441 1.2889 1.8365 1.933 2.7093 1.429.7485-.432.7148-1.3547.0159-1.8934Zm12.5044.1525-5.6821 1.0078c-.7017.1284-1.1637.672-1.0356 1.3743.1283.7018.7554 1.116 1.4572.9878l5.6817-1.0076c.7021-.1286 1.1402-.7136 1.012-1.416-.1282-.7017-.7312-1.0742-1.4332-.9463ZM103.7526 2.6087l-.1662.096c-1.4136.8161-1.874 1.7472-1.394 2.5786.384.6652 1.0751.7099 1.8103.0633.5931-.5088 1.0921-.7969 1.8293-1.0562.9276-.3133 1.2344-.9342.8504-1.5994-.48-.8313-1.5166-.8982-2.9298-.0823Zm16.2402 23.328c-.5938.5087-1.0924.7965-1.8293 1.0562-.9276.3134-1.2344.9343-.8504 1.5994.48.8314 1.5161.8985 2.9298.0823l.1662-.096c1.4136-.8161 1.874-1.7472 1.394-2.5786-.384-.6651-1.0752-.7098-1.8103-.0632ZM112.488 4.1063c.384.6651 1.171.876 1.8362.492s.8761-1.1711.492-1.8363-1.171-.876-1.8362-.492-.876 1.1711-.492 1.8363Zm12.4049 12.4606c-.7441-1.289-1.8366-1.933-2.7098-1.4289-.7484.4322-.7143 1.3546-.0154 1.8932.5857.4383.8735.9368.9602 1.6632.117.8745.899 1.3657 1.6475.9336.8732-.5041.8614-1.7727.1175-3.0611Zm48.332 23.0644 2.1123 3.6586-20.8778 26.244-2.3042-3.991 4.607-5.6533c.2194-.293.5824-.3361.8511-.1587.3823.2783.9418.2874 1.3989.0235.6656-.3843.8763-1.1707.4923-1.8359-.3602-.6237-1.0397-.8408-1.7116-.564-.273.1024-.5772.0559-.8172-.3598l-4.8244-8.3562c-.24-.4157-.128-.702.0972-.8872.5756-.4435.7274-1.1406.3673-1.7643-.384-.6652-1.1707-.8763-1.8363-.492-.457.2639-.7287.7534-.6788 1.2236.0193.3215-.1997.6142-.563.6577l-7.1754 1.2046-2.3042-3.991 33.1668-4.9586Zm-28.4867 7.689c.6656-.3844.876-1.1712.492-1.8363s-1.1706-.8763-1.8362-.492c-.6647.3837-.8756 1.1708-.4916 1.836s1.171.876 1.8358.4922Zm11.041 19.1235c.6656-.3843.8761-1.171.492-1.8362s-1.1706-.8763-1.8362-.492c-.6647.3837-.8756 1.1708-.4916 1.836s1.1711.876 1.8358.4922Zm-.4888-18.8966c.4045-.0678.6908.0443.8827.3767l3.4085 5.9036c.1919.3324.1458.6364-.115.9532-.3197.4062-.436.9724-.124 1.5128.384.6651 1.1707.8763 1.8358.4922s.8761-1.171.492-1.8362c-.1918-.3324-.2417-.8026.019-1.1195l6.751-8.2768c.2189-.2927.4923-.3953.7132-.3007.3756.171.8044.1451 1.1786-.071.6652-.384.8756-1.1708.4916-1.836s-1.1704-.8759-1.8356-.4918c-.3742.216-.611.5744-.6747.9437-.0288.2382-.2301.4656-.5931.5088l-10.4953 1.7913c-.4048.0674-.787-.2108-.9792-.5436-.384-.6652-1.1708-.8757-1.836-.4916s-.8759 1.1704-.4919 1.8356c.312.5404.8605.7227 1.3724.6493Zm6.0188-2.9207 2.6417-.4167c.7259-.0865 1.1641-.6721 1.0356-1.3743-.128-.702-.6894-1.0983-1.3914-.9705l-2.642.417c-.726.0864-1.1638.6719-1.0771 1.3982.1279.702.7308 1.0744 1.4332.9463Zm5.5723 7.9239 1.682-2.0796c.462-.5436.3996-1.228-.1447-1.6902-.5435-.462-1.2699-.3753-1.7077.21l-1.6817 2.0795c-.4621.5442-.441 1.2526.103 1.7144.5853.4378 1.3112.3513 1.749-.2341Zm16.1637 4.0901 2.4963 4.3238-12.69 25.0643c-.195.3342-.4444.4782-.7899.456-.2382-.0287-.4704.0495-.7199.1936-.6651.384-.8756 1.1708-.4916 1.836s1.1707.8763 1.8359.4922c.4575-.2641.7466-.819.6726-1.331-.0671-.4044.1522-.6974.4846-.8892l19.955-11.521 2.016 3.492-27.0223 15.6013-2.3042-3.991 12.4152-25.3488c.1117-.286.3612-.4301.7066-.408.2383.0288.4702-.0498.7197-.1939.6648-.3838.8757-1.1708.4916-1.836s-1.171-.876-1.8358-.4923c-.4576.2642-.7465.8195-.673 1.3313.067.4044-.1518.6971-.4842.889l-19.7888 11.425-2.0161-3.492 27.0223-15.6013ZM159.876 73.7311l2.328-1.344c.6236-.36.8412-1.04.481-1.6636s-1.0576-.7753-1.6813-.4152l-2.3279 1.344c-.6237.3601-.8408 1.0397-.4807 1.6634s1.0572.7755 1.681.4154Zm14.674 7.2704 1.2098-2.417c.3483-.6448.1371-1.2987-.5077-1.647-.6204-.307-1.3162-.0717-1.599.5906l-1.21 2.417c-.3485.6444-.1367 1.2985.5077 1.647.6205.3071 1.3162.0717 1.5991-.5906Zm-4.5717-13.1029 4.9885-2.8801c.6237-.3601.8408-1.0397.4807-1.6635s-1.0572-.7754-1.6809-.4153l-4.9885 2.8801c-.6238.3601-.8409 1.0397-.4808 1.6634s1.0572.7755 1.681.4154Zm10.7529 18.6246 4.9885-2.8801c.6237-.3601.8409-1.0397.4808-1.6634s-1.0573-.7755-1.681-.4154l-4.9885 2.8801c-.6237.3601-.8409 1.0397-.4808 1.6634s1.0573.7755 1.681.4154Zm-1.815-14.4729c.6651-.384.8758-1.1704.4918-1.8356s-1.1707-.8763-1.8359-.4922-.876 1.171-.492 1.8362 1.1709.8757 1.836.4916Zm11.9172 8.6404 2.3279-1.344c.6237-.36.8408-1.0397.4807-1.6634s-1.0572-.7755-1.681-.4154l-2.3278 1.344c-.6237.3601-.8408 1.0397-.4807 1.6634s1.0572.7755 1.681.4154Zm8.0804 3.4352 5.857 10.1445c4.2963 7.4415 2.1802 16.2568-5.885 20.9133-7.6497 4.4165-16.505 2.7114-20.7535-4.6473l-6.2408-10.8092 27.0223-15.6013Zm-20.8908 24.5893 1.3442 2.3283c.3599.6233 1.0397.8409 1.6634.4808s.7753-1.0577.4154-1.681l-1.3442-2.3282c-.3604-.6242-1.0397-.8409-1.6635-.4808s-.7757 1.0568-.4153 1.681Zm-.7538-6.1062c.5183.0334 1.008.3055 1.2961.8044l2.7842 4.8224c3.0723 5.3213 9.5203 6.6977 15.3406 3.3373 5.945-3.4323 7.8989-9.937 4.6586-15.5492l-2.496-4.3233c-.2881-.499-.2789-1.0592-.0487-1.5247.2128-.3991.2045-.8939-.0353-1.3091-.3842-.6656-1.1713-.8765-1.8365-.4925-.4156.24-.6698.6641-.6855 1.1164-.0332.5187-.3048 1.0081-.8038 1.2962l-15.964 9.2168c-.499.2881-1.0586.2786-1.5244.048-.3996-.2125-.894-.2045-1.3096.0355-.6652.384-.876 1.171-.4918 1.8367.2398.4152.6637.67 1.1161.685Zm10.9515 13.6882c.6652-.384.876-1.171.4918-1.8367-.3838-.6647-1.1709-.8756-1.836-.4916s-.8761 1.1711-.4923 1.8359c.3843.6655 1.1713.8764 1.8365.4924Zm-2.3735-20.9129 4.9885-2.88c.6237-.3602.8406-1.0402.4805-1.664s-1.0572-.7754-1.681-.4153l-4.9885 2.8801c-.6237.3601-.8408 1.0397-.4807 1.6634s1.0574.776 1.6811.4158Zm12.4577 19.0815.1662-.096c1.4137-.8161 1.8736-1.747 1.3936-2.5783-.3838-.6648-1.0747-.7102-1.8103-.0633-.5934.5083-1.092.7962-1.8289 1.0559-.928.3136-1.2341.9347-.8503 1.5994.48.8313 1.5161.8984 2.9297.0823Zm5.4373-10.4565c-.6652.384-.876 1.1711-.4918 1.8367.3838.6648 1.1709.8757 1.836.4916s.8757-1.1708.4919-1.8356c-.3843-.6655-1.171-.8767-1.8361-.4927Zm-2.6818-9.9253 1.3442 2.3283c.3599.6233 1.0397.8408 1.6634.4807.6233-.3598.7748-1.0574.415-1.6807l-1.3443-2.3283c-.3598-.6233-1.0397-.8408-1.663-.481-.6237.3602-.7752 1.0577-.4153 1.681Zm-3.9781 49.275 3.8248-2.2083 19.8073 16.8335c.2273.2014.3295.4751.2178.7612-.1712.3762-.104.7806.112 1.1548.384.6652 1.1711.8761 1.8363.492s.876-1.171.492-1.8362c-.216-.3742-.5741-.6107-.9437-.6747-.304-.046-.531-.2477-.5921-.545l-4.8823-25.4505 3.7415-2.1602 5.8733 32.6388-3.991 2.3042-25.4959-21.3097Zm5.2521.0714c-.384-.6651-1.1708-.8756-1.836-.4916s-.8763 1.1707-.4923 1.8359 1.1711.876 1.8363.492.876-1.1711.492-1.8363Zm8.4991 7.2327-2.038-1.7057c-.5437-.4624-1.2525-.441-1.7143.103-.5038.5677-.3753 1.2698.1683 1.7318l2.0619 1.747c.5856.4383 1.2701.3758 1.7323-.1684.462-.5436.3338-1.246-.2102-1.7077Zm5.4979 4.5303c-.384-.6651-1.1704-.8758-1.836-.4916-.6648.3838-.876 1.1705-.4919 1.8356s1.1711.8761 1.8359.4923c.6656-.3843.876-1.171.492-1.8363Zm7.4834-4.3205c-.384-.6652-1.1708-.8756-1.836-.4916s-.8763 1.1707-.4923 1.8358 1.1711.876 1.8363.492.876-1.171.492-1.8362Zm-1.1583-6.0385-.482-2.6591c-.1283-.7018-.6722-1.1642-1.4157-1.0117-.702.1279-1.0749.731-.9463 1.4332l.458 2.6178c.128.702.6722 1.1641 1.374 1.0358.7023-.1281 1.0987-.6896 1.012-1.416Zm-2.155-11.8927c-.384-.6652-1.1708-.8757-1.836-.4916s-.8759 1.1704-.4919 1.8356 1.1707.8763 1.8359.4922.876-1.171.492-1.8362Zm8.5688-8.051 3.6586-2.1123 26.244 20.8777-3.991 2.3042-5.6532-4.607c-.293-.2194-.3362-.5823-.1587-.851.2783-.3823.2873-.9418.0232-1.3994-.3838-.6647-1.1705-.8758-1.8356-.4918-.6237.3601-.8409 1.0397-.564 1.7115.1023.273.0558.5772-.3599.8172l-8.3562 4.8245c-.4157.24-.702.1279-.8872-.0973-.4434-.5756-1.1405-.7273-1.7642-.3672-.6652.384-.8761 1.171-.4923 1.8358.2641.4575.7536.7292 1.2238.6793.3215-.0193.6142.1996.6577.563l1.2047 7.1754-3.991 2.3042-4.9587-33.1668Zm7.6887 28.4862c-.3838-.6647-1.1708-.8756-1.836-.4916s-.876 1.171-.4923 1.8358c.3843.6656 1.1711.876 1.8363.492s.8763-1.1706.492-1.8362Zm.2273-10.5517c-.0678-.4046.0443-.6909.3766-.8828l5.9036-3.4084c.3324-.192.6364-.1458.9533.115.4062.3197.9723.436 1.5127.124.6652-.384.8763-1.1707.4923-1.8359s-1.1711-.876-1.8363-.492c-.3324.1919-.8025.2418-1.1194-.019l-8.2768-6.751c-.2927-.2188-.3953-.4922-.3008-.7132.1711-.3756.1451-.8043-.071-1.1786-.384-.6651-1.171-.876-1.8362-.492s-.8756 1.1709-.4916 1.836c.216.3743.5744.6111.9438.6747.2382.0288.4655.2302.5087.5931l1.7914 10.4953c.0674.4049-.2109.7871-.5437.9792-.6652.384-.8756 1.1709-.4916 1.836s1.1704.876 1.8356.492c.5404-.3121.7228-.8605.6494-1.3724Zm-2.9208-6.0189-.4167-2.6416c-.0864-.726-.672-1.1642-1.3742-1.0356-.702.1279-1.0984.6894-.9705 1.3914l.417 2.642c.0864.726.6718 1.1638 1.3981 1.077.702-.1278 1.0745-.7308.9463-1.4332Zm7.924-5.5722-2.0797-1.6821c-.5436-.462-1.228-.3995-1.6902.1447-.462.5436-.3753 1.27.2101 1.7077l2.0794 1.6817c.5443.4622 1.2526.4411 1.7144-.1029.4378-.5854.3514-1.3113-.234-1.7491Zm13.8931 11.1018c-.3838-.6648-1.1708-.8756-1.836-.4916s-.876 1.171-.4923 1.8358c.3843.6656 1.1711.876 1.8363.492s.8763-1.1706.492-1.8362Zm-9.803-27.2655 3.4924-2.0164 12.385 21.4515c.2881.499.2786 1.0587.048 1.5245-.2125.3995-.2045.8938.0355 1.3095.384.6652 1.171.876 1.8367.4918.4152-.2397.67-.6637.685-1.1161.0335-.5183.3056-1.008.8045-1.296l12.472-7.2008 1.9683 3.4092-18.1261 10.465-15.6013-27.0222Zm6.9617 5.6253-2.8802-4.9885c-.36-.6237-1.0397-.8409-1.6634-.4807s-.7755 1.0572-.4154 1.6809l2.8802 4.9885c.36.6237 1.0397.8409 1.6634.4808s.7755-1.0573.4154-1.681Zm5.8085 10.0608-1.3442-2.3283c-.3599-.6233-1.0397-.8408-1.6634-.4807s-.7753 1.0576-.4154 1.681l1.3442 2.3282c.3601.6237 1.0397.8409 1.6635.4807s.7754-1.0572.4153-1.6809Zm11.8187 5.205 2.3283-1.3443c.6233-.3598.8409-1.0397.4808-1.6634s-1.0577-.7752-1.681-.4154l-2.3282 1.3443c-.6242.3603-.8409 1.0397-.4808 1.6634s1.0568.7757 1.681.4154Zm6.9658-5.4076c-.384-.6651-1.171-.876-1.8358-.4922-.6656.3842-.8765 1.1713-.4925 1.8365s1.1711.876 1.8367.4917c.6648-.3837.8757-1.1708.4916-1.836Zm-10.6665-27.5433 3.492-2.0162 12.385 21.4515c.2881.499.2786 1.0587.0488 1.524-.2125.3995-.2045.8939.0355 1.3096.384.6651 1.1711.876 1.8359.4922.416-.2402.67-.6636.686-1.1165.0333-.5183.3046-1.0076.8035-1.2956l12.472-7.2007 1.9683 3.4091-18.1257 10.4648-15.6013-27.0222Zm6.9612 5.6256-2.88-4.9886c-.3602-.6237-1.0394-.841-1.6627-.4812-.6241.3604-.7754 1.0572-.4153 1.681l2.88 4.9885c.3602.6237 1.0394.841 1.6635.4807.6233-.3599.7747-1.0567.4145-1.6804Zm5.8086 10.0607-1.3442-2.3282c-.3599-.6233-1.0393-.8411-1.6626-.4813-.6241.3604-.7752 1.0577-.4154 1.681l1.3443 2.3283c.36.6237 1.0393.841 1.6634.4807.6233-.3599.7746-1.0567.4145-1.6805Zm11.8187 5.205 2.3283-1.3442c.6233-.3599.8409-1.0397.4808-1.6634s-1.0577-.7753-1.681-.4154l-2.3283 1.3442c-.6233.3599-.8408 1.0397-.4807 1.6634s1.0576.7753 1.681.4154Zm6.9667-5.408c-.384-.6652-1.1711-.876-1.8367-.4918-.6648.3838-.8757 1.1708-.4916 1.836s1.171.876 1.8358.4923c.6656-.3843.8765-1.1714.4925-1.8365Zm-10.6666-27.5434 18.458-10.6567 1.9202 3.3258-12.8043 7.3926c-.499.288-1.0583.2783-1.5238.0481-.4-.2122-.894-.2045-1.31.0358-.6647.3838-.8756 1.1708-.4916 1.836.24.4157.6641.6698 1.1163.6855.5179.0337 1.0074.3053 1.2955.8043l2.2563 3.9081c.2878.4986.2783 1.0583.0486 1.5236-.2123.4-.2043.8943.0357 1.31.384.6651 1.1709.8756 1.8356.4918.4161-.2402.67-.6637.686-1.1166.0336-.5178.3049-1.007.8038-1.2952l10.8093-6.2407 1.9201 3.3259-10.8092 6.2407c-.499.288-1.0583.2783-1.5238.0481-.4-.2122-.8939-.2045-1.31.0358-.6647.3838-.8756 1.1708-.4916 1.836.24.4157.6641.6698 1.1163.6855.5179.0337 1.0074.3053 1.2955.8043l2.5441 4.4067c.2881.499.2786 1.0587.0489 1.524-.2125.3995-.2045.8938.0355 1.3095.384.6652 1.171.876 1.8358.4923.4161-.2402.67-.6637.686-1.1166.0334-.5183.3046-1.0075.8036-1.2956l13.1375-7.585 1.9683 3.4092-18.7913 10.849-15.6013-27.0222Zm9.9582-2.1465 2.3274-1.3438c.6242-.3603.8409-1.0397.4808-1.6634-.3599-.6233-1.0566-.7753-1.6807-.415l-2.3275 1.3438c-.6241.3604-.8417 1.0402-.4818 1.6635.3601.6237 1.0576.7752 1.6818.4149Zm14.6304 23.0379 4.989-2.8804c.6232-.3599.8408-1.0397.4807-1.6634s-1.0577-.7753-1.681-.4154l-4.989 2.8804c-.6232.3598-.8408 1.0397-.4807 1.6634s1.0577.7752 1.681.4154Zm-4.4658-13.4967 2.3274-1.3438c.6242-.3603.8409-1.0397.4808-1.6634-.3599-.6233-1.0568-.7757-1.681-.4154l-2.3274 1.3438c-.6242.3603-.8406 1.04-.4807 1.6634.36.6237 1.0567.7757 1.6809.4154Zm-1.8685-15.7168c-.384-.6652-1.1709-.8757-1.8356-.4919-.6656.3843-.8767 1.171-.4927 1.836s1.1711.8762 1.8367.4919c.6647-.3838.8756-1.1709.4916-1.836Zm23.467 9.3999-21.083-12.9933 4.0748-2.3525 14.7236 9.1817c.245.1354.3468.4093.3011.713-.0467.3039-.003.6666.1652.958.3838.6647 1.1708.8756 1.8356.4918.6656-.3843.8765-1.1714.4927-1.8361-.1683-.2914-.4614-.51-.7479-.6215-.3273-.0884-.5128-.314-.5498-.5694l-1.1717-17.006 3.991-2.3042 1.4604 24.3223 4.7043 8.1482-3.492 2.0161-4.7043-8.1481Zm-15.2904-13.2338c-.384-.6652-1.1709-.8756-1.8356-.4918-.6656.3842-.8768 1.1709-.4927 1.836s1.171.8761 1.8367.4918c.6647-.3838.8756-1.1708.4916-1.836Zm9.6731 6.0005-2.3233-1.4303c-.603-.3725-1.3049-.2446-1.6771.3588-.3485.6444-.179 1.3228.424 1.6953l2.2991 1.3885c.6269.4139 1.3289.286 1.6772-.3588.3724-.603.203-1.281-.3999-1.6535Zm11.8104 11.5285-1.344-2.3278c-.36-.6238-1.0392-.8411-1.6634-.4808-.6233.3599-.7755 1.0572-.4154 1.681l1.344 2.3278c.3601.6237 1.0402.8406 1.6635.4808.6241-.3604.7754-1.0573.4153-1.681ZM331.746 81.575l-.1608-2.679c-.0211-.7083-.5237-1.194-1.232-1.173-.7501.0447-1.2119.5887-1.1254 1.3146l.0954 2.6613c.045.7499.5467 1.236 1.2968 1.1915.7084-.0211 1.171-.5656 1.126-1.3154Zm-.7877-12.4054c-.384-.6652-1.1709-.8756-1.8365-.4914-.6647.3838-.8759 1.1705-.4918 1.8356s1.171.8761 1.8358.4923c.6656-.3843.8765-1.1713.4925-1.8365Zm11.7161 14.8535 3.2485-3.2055c2.3749 3.7286 6.9104 4.768 11.0257 2.392 3.3263-1.9204 4.847-5.2375 3.359-7.8148-3.7202-6.4436-18.3896 4.6306-23.382-4.0165-2.4961-4.3234-.0894-9.3716 4.9825-12.2998 5.1547-2.976 10.743-2.3223 13.7383 1.7134l-3.2004 3.2889c-1.9655-2.6349-5.541-3.4528-8.8672-1.5324-2.6607 1.5361-4.1728 4.294-2.9248 6.4557 3.2644 5.654 18.1024-5.1301 23.4789 4.1822 2.6643 4.6147.5629 10.096-5.2989 13.4803-6.1112 3.5283-12.755 2.486-16.1596-2.6435Zm2.2547 1.0263c.384.6651 1.1711.876 1.8367.4918.6647-.3838.8756-1.1709.4916-1.836s-1.1709-.8757-1.8356-.492c-.6656.3844-.8767 1.171-.4927 1.8362Zm-4.5077-14.913c-.5857-.4383-.8738-.9373-.9602-1.6632-.117-.8746-.8988-1.3654-1.6473-.9332-.8736.5044-.862 1.7725-.1181 3.061.7441 1.2888 1.8365 1.9329 2.7102 1.4285.7484-.4321.7143-1.3545.0154-1.8932Zm12.5044.1524-5.6821 1.0078c-.7017.1284-1.1637.672-1.0356 1.3743.1279.702.7548 1.1159 1.4576.9875l5.6813-1.0073c.7017-.1283 1.1406-.7138 1.0117-1.4158-.128-.702-.7309-1.0744-1.4329-.9465Zm-10.8003-10.449-.1658.0958c-1.414.8164-1.8736 1.747-1.3936 2.5783.384.6652 1.0752.71 1.8103.0633.5928-.5085 1.0917-.7966 1.8293-1.0561.9276-.3134 1.2344-.9343.8504-1.5994-.48-.8314-1.5165-.8982-2.9306-.0818Zm16.24 23.3277c-.5928.5085-1.0918.7966-1.8294 1.0561-.9273.3138-1.2341.9347-.85 1.5999.4799.8313 1.5164.8982 2.9297.0823l.1666-.0962c1.4132-.816 1.8736-1.747 1.3936-2.5784-.384-.6652-1.0752-.7099-1.8106-.0637Zm-7.5037-21.8307c.384.6652 1.1703.8766 1.8358.4923s.8757-1.1709.4916-1.836-1.1702-.8766-1.8358-.4923-.8756 1.1709-.4916 1.836Zm12.404 12.4611c-.744-1.2889-1.8365-1.933-2.7093-1.429-.7484.432-.7143 1.3545-.0154 1.8931.5857.4383.8738.9372.9602 1.6631.117.8746.8988 1.3654 1.6473.9333.8728-.504.8612-1.772.1173-3.0605Z" class="uuid-d240de93-f333-4ee9-ab16-c1048367e5fc"/>
  </g>
</svg>
