<?xml version="1.0" encoding="UTF-8"?>
<svg id="uuid-52abb6f7-c17a-470b-969d-ede2e11ae9a1" data-name="レイヤー 1" xmlns="http://www.w3.org/2000/svg" width="339.3870488" height="184.9422577" viewBox="0 0 339.3870488 184.9422577">
  <defs>
    <filter id="displacement-01">
      <feTurbulence
        type="fractalNoise"
        baseFrequency="0.05"
        numOctaves="3"
        result="noise" 
      />
      <feDisplacementMap
        in2="noise"
        in="SourceGraphic"
        scale="2"
      />
    </filter>
        <filter id="displacement-02">
      <feTurbulence
        type="fractalNoise"
        baseFrequency="0.08"
        numOctaves="3"
        result="noise" 
      />
      <feDisplacementMap
        in2="noise"
        in="SourceGraphic"
        scale="5"
      />
    </filter>
    <style>
      .uuid-7cbbb1c2-2bc4-4667-9945-9eab3d6a79e4 {
        fill: #dddddd;
        stroke-width: 0px;
        will-change: filter;
        @media (prefers-reduced-motion: no-preference) {
          animation: 
            displacement 0.3s linear 0.2s both infinite;
        }
      }

      .uuid-d120ab1a-add1-4bc7-9344-d2ebf9e6a4f9 {
        fill: none;
        stroke: #dddddd;
        stroke-miterlimit: 10;
        stroke-width: 2px;
        will-change: filter;
        @media (prefers-reduced-motion: no-preference) {
          animation: 
            displacement 0.3s linear 0.2s both infinite;
        }
      }
      @keyframes displacement {
        0% {
          filter: url(#displacement-01);
        }
        100% {
          filter: url(#displacement-02);
        }
      }
    </style>
  </defs>
  <path d="m338.887 97.463-147.695 85.272a9 9 0 0 1-12.288-3.284l-77.04-133.025a6 6 0 0 0-8.191-2.19L15.6 89.312" class="uuid-d120ab1a-add1-4bc7-9344-d2ebf9e6a4f9"/>
  <path d="m0 62.289 11.391-6.577c4.864-2.808 10.462-1.273 13.294 3.633 2.856 4.947 1.328 10.652-3.62 13.508l-5.57 3.216a1.596 1.596 0 0 1-1.524.048 1.352 1.352 0 0 0-1.31.036 1.312 1.312 0 0 0-.492 1.836c.24.416.664.67 1.117.686a1.595 1.595 0 0 1 1.295.804l4.512 7.816-3.492 2.016L0 62.289ZM13.668 84.33l1.344 2.328c.36.624 1.04.84 1.663.48s.776-1.056.416-1.68l-1.344-2.328c-.36-.624-1.04-.841-1.664-.481s-.775 1.057-.415 1.681Zm-.897-10.29a1.596 1.596 0 0 1 .803-1.296l5.571-3.217c2.827-1.632 3.658-4.994 1.906-8.029s-5.08-3.996-7.906-2.364L7.574 62.35a1.596 1.596 0 0 1-1.524.049 1.352 1.352 0 0 0-1.31.035 1.312 1.312 0 0 0-.492 1.836c.24.416.664.67 1.117.686a1.596 1.596 0 0 1 1.295.804l3.505 6.07c.287.498.278 1.059.048 1.524-.212.4-.204.894.036 1.31.384.665 1.17.876 1.836.492.415-.24.67-.664.686-1.117ZM9.958 60.141l2.328-1.344c.623-.36.84-1.04.48-1.663-.36-.624-1.057-.775-1.68-.415l-2.328 1.344c-.624.36-.841 1.04-.481 1.663.36.624 1.057.776 1.68.415Zm9.233 11.576c-.384-.665-1.171-.876-1.836-.492s-.876 1.17-.492 1.836c.384.665 1.17.876 1.836.492s.876-1.171.492-1.836Zm5.196-4.441a1.312 1.312 0 0 0-1.836-.492c-.665.384-.876 1.17-.492 1.836s1.171.876 1.836.492a1.312 1.312 0 0 0 .492-1.836ZM18.47 55.782c-.384-.665-1.17-.876-1.836-.492s-.876 1.17-.492 1.836 1.17.876 1.836.492.876-1.171.492-1.836Zm5.472 4.102-.096-.167c-.816-1.413-1.747-1.873-2.578-1.393-.665.384-.71 1.074-.063 1.81a5.214 5.214 0 0 1 1.055 1.829c.314.928.935 1.234 1.6.85.831-.48.898-1.516.082-2.93ZM22.788 49.132l18.459-10.657 1.92 3.326-12.805 7.393a1.596 1.596 0 0 1-1.524.048 1.352 1.352 0 0 0-1.31.036 1.312 1.312 0 0 0-.491 1.836c.24.415.663.67 1.116.685a1.596 1.596 0 0 1 1.295.804l2.256 3.908c.289.499.28 1.059.05 1.524-.213.4-.205.894.035 1.31.384.665 1.17.876 1.836.492.416-.24.67-.664.686-1.117a1.596 1.596 0 0 1 .803-1.295l10.81-6.24 1.92 3.325-10.81 6.24a1.596 1.596 0 0 1-1.523.05 1.352 1.352 0 0 0-1.31.035 1.312 1.312 0 0 0-.492 1.836c.24.416.664.67 1.117.685a1.596 1.596 0 0 1 1.295.805l2.544 4.406c.288.5.279 1.059.049 1.524-.213.4-.205.894.035 1.31.385.665 1.171.876 1.836.492.416-.24.67-.664.686-1.116a1.596 1.596 0 0 1 .804-1.296l13.137-7.585 1.968 3.41-18.79 10.848-15.602-27.022Zm9.958-2.146 2.328-1.345c.623-.36.841-1.04.48-1.663-.359-.623-1.057-.775-1.68-.415l-2.328 1.344c-.624.36-.84 1.04-.481 1.663.36.624 1.057.776 1.68.416Zm14.631 23.037 4.989-2.88c.623-.36.84-1.04.48-1.663s-1.057-.776-1.68-.416l-4.99 2.88c-.623.36-.84 1.04-.48 1.664s1.057.775 1.681.415ZM42.91 56.527l2.329-1.344c.623-.36.84-1.04.48-1.664-.36-.623-1.057-.775-1.68-.415l-2.329 1.344c-.623.36-.84 1.04-.48 1.663.36.624 1.057.776 1.68.416ZM41.042 40.81c-.384-.665-1.17-.876-1.836-.492s-.876 1.17-.492 1.836 1.171.876 1.836.492.876-1.171.492-1.836ZM54.281 30.95l3.659-2.113 26.244 20.878-3.991 2.304-5.653-4.607a.618.618 0 0 1-.159-.851c.278-.382.287-.942.023-1.399a1.312 1.312 0 0 0-1.835-.492c-.624.36-.841 1.04-.564 1.711.102.273.055.578-.36.818l-8.356 4.824c-.416.24-.702.128-.888-.097-.443-.576-1.14-.728-1.764-.368a1.312 1.312 0 0 0-.492 1.837c.264.457.753.728 1.224.679.321-.02.614.2.657.563l1.205 7.175-3.991 2.304-4.959-33.167Zm7.69 28.486c-.385-.666-1.172-.876-1.837-.492s-.876 1.17-.492 1.836c.384.665 1.17.876 1.836.492s.876-1.171.492-1.836Zm.226-10.552c-.067-.405.045-.691.377-.883l5.904-3.408c.332-.192.636-.146.953.115.406.32.972.436 1.513.124.665-.384.876-1.171.492-1.836s-1.171-.876-1.836-.492c-.333.192-.803.242-1.12-.02l-8.277-6.75c-.292-.219-.395-.492-.3-.713a1.275 1.275 0 0 0-.071-1.179c-.384-.665-1.171-.876-1.836-.492s-.876 1.17-.492 1.836c.216.374.574.611.944.675.238.028.465.23.508.593l1.792 10.495c.067.405-.211.787-.544.98-.665.383-.876 1.17-.492 1.835s1.17.876 1.836.492c.54-.312.723-.86.649-1.372Zm-2.92-6.019-.417-2.642c-.087-.726-.672-1.164-1.374-1.035-.702.128-1.099.69-.97 1.39l.416 2.643c.087.726.672 1.164 1.398 1.077.702-.128 1.075-.73.947-1.433Zm7.924-5.572-2.08-1.682c-.544-.462-1.228-.4-1.69.144-.462.544-.376 1.27.21 1.708l2.08 1.682c.543.462 1.252.44 1.714-.103.437-.586.35-1.311-.234-1.75Zm13.893 11.102c-.384-.666-1.171-.876-1.836-.492s-.877 1.17-.492 1.836c.383.665 1.17.876 1.836.492s.876-1.171.492-1.836ZM71.29 21.13l3.493-2.017 7.896 13.677c.144.25.098.554-.145.805-.32.406-.37.99-.082 1.489.384.665 1.17.876 1.836.492s.876-1.171.492-1.836a1.718 1.718 0 0 0-.348-.41c-.293-.219-.419-.534-.372-.837l3.527-20.773 4.657-2.688-2.932 15.66c-.128.74-.735.647-1.068.84-.665.383-.876 1.17-.492 1.835s1.17.876 1.836.492c.416-.24.497-.675 1.38-.298l18.04 7.821-4.406 2.544-14.616-6.305c-.352-.13-.478-.445-.456-.79.029-.239-.05-.47-.194-.72-.384-.665-1.17-.876-1.836-.492s-.876 1.17-.492 1.836c.144.25.306.434.526.528.245.136.365.343.32.647l-1.286 6.895 3.816 6.61-3.492 2.016L71.291 21.13Zm6.962 5.624-2.88-4.988c-.36-.624-1.04-.841-1.663-.48s-.776 1.056-.416 1.68l2.88 4.989c.36.623 1.04.84 1.664.48s.775-1.057.415-1.68Zm6.706 16.417 1.344 2.327c.36.624 1.04.841 1.664.481s.775-1.057.415-1.68l-1.344-2.329c-.36-.623-1.04-.84-1.663-.48s-.776 1.057-.416 1.68Zm19.712-8.776-5.28-2.328c-.662-.283-1.358-.048-1.64.614-.284.663.035 1.31.655 1.617l5.297 2.263c.663.283 1.317.071 1.6-.59.282-.663.03-1.293-.632-1.576ZM90.428 13.184c-.384-.665-1.17-.876-1.836-.492s-.876 1.171-.492 1.836 1.17.876 1.836.492.876-1.17.492-1.836ZM104.3 26.792l3.25-3.205c2.374 3.728 6.91 4.768 11.025 2.392 3.326-1.92 4.848-5.238 3.36-7.815-3.72-6.444-18.39 4.63-23.383-4.017-2.496-4.323-.09-9.371 4.983-12.3 5.155-2.976 10.743-2.322 13.738 1.714l-3.2 3.29c-1.965-2.636-5.542-3.454-8.868-1.534-2.66 1.537-4.172 4.294-2.924 6.456 3.264 5.654 18.102-5.13 23.478 4.183 2.664 4.614.563 10.095-5.298 13.48-6.112 3.528-12.755 2.486-16.16-2.644Zm2.256 1.026c.384.665 1.17.877 1.836.493s.876-1.172.492-1.837-1.17-.875-1.836-.491-.876 1.17-.492 1.835Zm-4.508-14.913c-.586-.438-.873-.936-.96-1.663-.117-.874-.9-1.365-1.648-.933-.873.504-.861 1.772-.117 3.06.744 1.29 1.836 1.934 2.71 1.43.748-.432.714-1.355.015-1.894Zm12.505.153-5.683 1.008c-.701.128-1.163.672-1.035 1.374.128.702.755 1.116 1.457.988l5.682-1.008c.702-.128 1.14-.713 1.012-1.416-.129-.702-.731-1.074-1.433-.946Zm-10.8-10.45-.167.097c-1.413.816-1.874 1.747-1.394 2.578.384.665 1.076.71 1.81.064a5.217 5.217 0 0 1 1.83-1.057c.928-.313 1.234-.934.85-1.599-.48-.831-1.516-.898-2.93-.082Zm16.24 23.329a5.234 5.234 0 0 1-1.83 1.056c-.927.313-1.234.934-.85 1.6.48.83 1.516.898 2.93.082l.166-.096c1.414-.817 1.874-1.748 1.394-2.579-.384-.665-1.075-.71-1.81-.063Zm-7.505-21.83c.384.664 1.171.875 1.836.491s.876-1.17.492-1.836-1.17-.876-1.836-.492-.876 1.171-.492 1.836Zm12.405 12.46c-.744-1.29-1.837-1.933-2.71-1.43-.748.433-.714 1.355-.015 1.894.585.438.873.937.96 1.663.117.875.899 1.366 1.648.934.873-.504.86-1.773.117-3.061ZM143.778 56.632l2.112 3.659-20.877 26.244-2.304-3.991 4.607-5.653a.618.618 0 0 1 .85-.159c.383.278.942.287 1.4.023.665-.384.876-1.17.492-1.835-.36-.624-1.04-.841-1.712-.564-.273.102-.577.055-.817-.36l-4.824-8.356c-.24-.416-.128-.702.097-.888.575-.443.727-1.14.367-1.764a1.312 1.312 0 0 0-1.836-.492c-.457.264-.729.753-.68 1.224.02.321-.199.614-.562.657l-7.175 1.205-2.305-3.991 33.167-4.959Zm-28.486 7.69c.665-.385.876-1.172.492-1.837s-1.171-.876-1.837-.492c-.664.384-.875 1.17-.491 1.836s1.17.876 1.836.492Zm11.04 19.123c.666-.384.877-1.171.493-1.836s-1.171-.877-1.837-.492c-.664.383-.875 1.17-.491 1.836s1.17.876 1.836.492Zm-.488-18.897c.404-.068.69.045.882.377l3.409 5.904c.192.332.146.636-.115.953-.32.406-.436.972-.124 1.513.384.665 1.17.876 1.836.492s.876-1.171.492-1.836c-.192-.333-.242-.803.019-1.12l6.75-8.277c.22-.292.493-.395.714-.3.376.17.804.145 1.178-.071.666-.384.876-1.171.492-1.836s-1.17-.876-1.836-.492a1.375 1.375 0 0 0-.674.943c-.029.239-.23.466-.593.51l-10.496 1.79c-.404.068-.787-.21-.979-.543-.384-.665-1.17-.876-1.836-.492s-.876 1.17-.492 1.836c.312.54.86.723 1.373.65Zm6.018-2.92 2.642-.417c.726-.087 1.164-.672 1.036-1.374-.128-.702-.69-1.099-1.392-.97l-2.642.416c-.726.087-1.163.672-1.077 1.398.128.702.731 1.075 1.433.947Zm5.573 7.923 1.682-2.08c.462-.543.4-1.227-.145-1.69-.543-.461-1.27-.375-1.708.21l-1.681 2.08c-.462.544-.441 1.253.103 1.715.585.437 1.31.35 1.749-.235ZM153.598 73.642l2.497 4.323-12.69 25.065c-.195.334-.445.478-.79.456-.238-.03-.47.05-.72.193-.665.384-.876 1.171-.492 1.836s1.171.877 1.836.493c.458-.265.747-.82.673-1.332-.067-.404.152-.697.484-.889l19.955-11.52 2.017 3.491-27.023 15.602-2.304-3.991 12.415-25.35c.112-.285.361-.43.707-.407.238.029.47-.05.72-.194.664-.384.875-1.171.491-1.836s-1.171-.876-1.836-.492c-.457.264-.746.819-.673 1.33.067.405-.152.698-.484.89l-19.789 11.425-2.016-3.492 27.022-15.601Zm-23.169 17.09 2.328-1.344c.624-.36.841-1.04.481-1.663s-1.057-.776-1.681-.416l-2.328 1.344c-.624.36-.84 1.04-.48 1.664s1.057.775 1.68.415Zm14.674 7.27 1.21-2.416c.348-.645.137-1.3-.508-1.647-.62-.308-1.316-.072-1.599.59l-1.21 2.417c-.348.645-.136 1.299.508 1.647.62.307 1.316.072 1.6-.59ZM140.532 84.9l4.988-2.88c.624-.36.84-1.04.48-1.664s-1.056-.775-1.68-.415l-4.989 2.88c-.623.36-.84 1.04-.48 1.663s1.057.776 1.68.416Zm10.752 18.624 4.989-2.88c.624-.36.84-1.04.48-1.663s-1.056-.776-1.68-.416l-4.989 2.88c-.623.36-.84 1.04-.48 1.664s1.057.775 1.68.415Zm-1.815-14.473c.666-.384.876-1.17.492-1.835s-1.17-.876-1.836-.492-.876 1.17-.492 1.836 1.171.875 1.836.491Zm11.918 8.64 2.328-1.343c.623-.36.84-1.04.48-1.664s-1.057-.775-1.68-.415l-2.328 1.344c-.624.36-.841 1.04-.481 1.663s1.057.776 1.68.416ZM169.467 101.127l5.857 10.144c4.296 7.442 2.18 16.257-5.885 20.914-7.65 4.416-16.505 2.711-20.753-4.648l-6.241-10.809 27.022-15.601Zm-20.89 24.59 1.343 2.328c.36.623 1.04.84 1.664.48s.775-1.057.415-1.68l-1.344-2.329c-.36-.624-1.04-.84-1.663-.48s-.776 1.056-.416 1.68Zm-.754-6.107a1.597 1.597 0 0 1 1.296.805l2.784 4.822c3.072 5.321 9.52 6.698 15.34 3.337 5.945-3.432 7.9-9.937 4.659-15.549l-2.496-4.323a1.597 1.597 0 0 1-.049-1.525 1.35 1.35 0 0 0-.035-1.31 1.313 1.313 0 0 0-1.836-.492 1.35 1.35 0 0 0-.686 1.117 1.595 1.595 0 0 1-.804 1.296l-15.964 9.217a1.595 1.595 0 0 1-1.524.048 1.35 1.35 0 0 0-1.31.035 1.313 1.313 0 0 0-.492 1.837c.24.415.664.67 1.117.685Zm10.951 13.688a1.313 1.313 0 0 0 .492-1.836c-.384-.665-1.171-.876-1.836-.492s-.876 1.171-.493 1.836a1.313 1.313 0 0 0 1.837.492Zm-2.374-20.913 4.989-2.88c.624-.36.84-1.04.48-1.664s-1.057-.775-1.68-.415l-4.989 2.88c-.624.36-.84 1.04-.48 1.664s1.057.776 1.68.415Zm12.458 19.082.166-.096c1.414-.816 1.874-1.747 1.394-2.578-.384-.665-1.075-.71-1.81-.064a5.232 5.232 0 0 1-1.83 1.056c-.927.314-1.233.935-.85 1.6.48.83 1.517.898 2.93.082Zm5.437-10.457a1.313 1.313 0 0 0-.491 1.837c.383.665 1.17.876 1.836.492s.875-1.171.492-1.836a1.312 1.312 0 0 0-1.837-.493Zm-2.681-9.925 1.344 2.328c.36.624 1.04.841 1.663.481.624-.36.775-1.057.415-1.68l-1.344-2.329c-.36-.623-1.04-.84-1.663-.48-.624.36-.775 1.057-.415 1.68ZM167.636 160.36l3.824-2.208 19.808 16.833c.227.202.33.475.218.761-.172.377-.105.781.112 1.155.384.665 1.17.876 1.836.492s.876-1.17.492-1.836a1.376 1.376 0 0 0-.944-.675.683.683 0 0 1-.592-.545l-4.882-25.45 3.741-2.16 5.874 32.638-3.991 2.305-25.496-21.31Zm5.252.071c-.384-.665-1.171-.875-1.836-.491s-.877 1.17-.493 1.836 1.172.876 1.837.492.876-1.171.492-1.837Zm8.499 7.233-2.038-1.706c-.544-.462-1.253-.44-1.714.103-.504.568-.376 1.27.168 1.732l2.062 1.747c.585.439 1.27.376 1.732-.168.462-.544.334-1.246-.21-1.708Zm5.498 4.53a1.312 1.312 0 0 0-1.836-.491c-.665.384-.876 1.17-.492 1.835s1.17.877 1.836.493a1.312 1.312 0 0 0 .492-1.837Zm7.483-4.32c-.384-.665-1.17-.876-1.836-.492s-.876 1.171-.492 1.836 1.17.876 1.836.492.876-1.17.492-1.836Zm-1.158-6.039-.482-2.659c-.129-.701-.672-1.164-1.416-1.011-.702.128-1.075.73-.946 1.433l.458 2.618c.128.702.672 1.164 1.374 1.035.702-.128 1.099-.69 1.012-1.416Zm-2.155-11.892c-.384-.665-1.171-.876-1.836-.492s-.876 1.17-.492 1.836 1.17.876 1.836.492.876-1.171.492-1.836ZM199.624 141.892l3.658-2.113 26.244 20.878-3.99 2.304-5.654-4.607a.618.618 0 0 1-.159-.85c.279-.383.288-.942.023-1.4a1.312 1.312 0 0 0-1.835-.492c-.624.36-.841 1.04-.564 1.712.102.273.056.577-.36.817l-8.356 4.824c-.416.24-.702.128-.887-.097-.444-.576-1.14-.727-1.765-.367a1.313 1.313 0 0 0-.492 1.836c.264.457.754.729 1.224.679.321-.02.614.2.658.563l1.204 7.175-3.99 2.305-4.96-33.167Zm7.688 28.486c-.383-.665-1.17-.876-1.836-.492s-.876 1.171-.492 1.836c.384.666 1.171.876 1.836.492s.877-1.17.492-1.836Zm.228-10.552c-.068-.404.044-.69.376-.883l5.904-3.408c.332-.192.636-.146.953.115.406.32.972.436 1.513.124.665-.384.876-1.17.492-1.836s-1.171-.876-1.836-.492c-.333.192-.803.242-1.12-.019l-8.276-6.75c-.293-.22-.396-.493-.301-.714a1.275 1.275 0 0 0-.071-1.179c-.384-.665-1.171-.876-1.836-.492s-.876 1.171-.492 1.836c.216.375.574.611.944.675.238.029.465.23.509.593l1.79 10.495c.068.405-.21.788-.543.98-.665.384-.875 1.17-.491 1.836s1.17.876 1.835.492c.54-.312.723-.86.65-1.373Zm-2.921-6.019-.417-2.641c-.086-.726-.672-1.164-1.374-1.036-.702.128-1.098.69-.97 1.392l.416 2.642c.087.725.672 1.163 1.399 1.077.702-.128 1.074-.731.946-1.434Zm7.924-5.572-2.08-1.682c-.543-.462-1.228-.4-1.69.145-.462.543-.375 1.27.21 1.707l2.08 1.682c.544.462 1.252.441 1.714-.103.438-.585.351-1.311-.234-1.749Zm13.893 11.102c-.384-.665-1.17-.876-1.836-.492s-.876 1.171-.492 1.836c.384.666 1.17.876 1.836.492s.876-1.17.492-1.836ZM216.633 132.071l3.492-2.016 12.385 21.452c.288.499.279 1.058.048 1.524-.212.4-.204.894.036 1.31a1.313 1.313 0 0 0 1.836.491c.416-.24.67-.663.686-1.116a1.597 1.597 0 0 1 .804-1.296l12.472-7.2 1.968 3.409-18.126 10.465-15.601-27.023Zm6.962 5.626-2.88-4.989c-.36-.623-1.04-.84-1.664-.48s-.775 1.057-.415 1.68l2.88 4.989c.36.624 1.04.84 1.663.48s.776-1.057.416-1.68Zm5.808 10.06-1.344-2.328c-.36-.623-1.04-.84-1.664-.48s-.775 1.057-.415 1.68l1.344 2.329c.36.623 1.04.84 1.664.48s.775-1.057.415-1.68Zm11.819 5.206 2.328-1.345c.623-.36.841-1.04.48-1.663s-1.057-.775-1.68-.416l-2.328 1.345c-.624.36-.841 1.04-.481 1.663s1.057.776 1.68.416Zm6.966-5.408a1.313 1.313 0 0 0-1.836-.492c-.666.384-.877 1.171-.493 1.836s1.171.876 1.837.492c.665-.384.876-1.17.492-1.836ZM237.521 120.012l3.492-2.017 12.385 21.452c.288.499.279 1.059.049 1.524-.213.4-.205.894.035 1.31a1.313 1.313 0 0 0 1.836.492c.416-.24.67-.664.686-1.117a1.595 1.595 0 0 1 .804-1.295l12.472-7.201 1.968 3.409-18.126 10.465-15.6-27.022Zm6.961 5.625-2.88-4.988c-.36-.624-1.04-.841-1.662-.482-.625.36-.776 1.058-.416 1.681l2.88 4.989c.36.624 1.04.841 1.664.48.623-.36.774-1.056.414-1.68Zm5.809 10.061-1.344-2.328c-.36-.624-1.04-.841-1.663-.482-.624.36-.775 1.058-.415 1.681l1.344 2.329c.36.623 1.04.84 1.663.48.624-.36.775-1.056.415-1.68Zm11.819 5.205 2.328-1.344c.623-.36.84-1.04.48-1.664s-1.057-.775-1.68-.415l-2.329 1.344c-.623.36-.84 1.04-.48 1.664s1.057.775 1.68.415Zm6.966-5.408a1.313 1.313 0 0 0-1.836-.492c-.665.384-.876 1.171-.492 1.836s1.171.876 1.836.492a1.313 1.313 0 0 0 .492-1.836ZM258.41 107.952l18.458-10.657 1.92 3.326-12.804 7.392a1.595 1.595 0 0 1-1.524.048 1.351 1.351 0 0 0-1.31.036 1.313 1.313 0 0 0-.492 1.836c.24.416.664.67 1.117.686a1.596 1.596 0 0 1 1.295.804l2.256 3.908c.288.499.279 1.058.049 1.524-.212.4-.204.894.036 1.31.384.665 1.17.875 1.835.491.416-.24.67-.663.686-1.116a1.596 1.596 0 0 1 .804-1.295l10.81-6.241 1.92 3.326-10.81 6.24a1.595 1.595 0 0 1-1.524.049 1.351 1.351 0 0 0-1.31.035 1.313 1.313 0 0 0-.491 1.836c.24.416.664.67 1.116.686a1.596 1.596 0 0 1 1.296.804l2.544 4.407c.288.499.278 1.059.049 1.524-.213.4-.205.894.035 1.31a1.313 1.313 0 0 0 1.836.492c.416-.24.67-.664.686-1.117a1.595 1.595 0 0 1 .803-1.295l13.138-7.585 1.968 3.409-18.791 10.849-15.601-27.022Zm9.958-2.147 2.327-1.344c.624-.36.841-1.04.481-1.663s-1.056-.775-1.68-.415l-2.328 1.344c-.624.36-.842 1.04-.482 1.663.36.624 1.058.775 1.682.415Zm14.63 23.038 4.99-2.88c.623-.36.84-1.04.48-1.664s-1.058-.775-1.681-.415l-4.989 2.88c-.623.36-.84 1.04-.48 1.664s1.057.775 1.68.415Zm-4.466-13.497 2.328-1.344c.624-.36.84-1.04.48-1.663s-1.056-.776-1.68-.415l-2.328 1.343c-.624.36-.84 1.04-.48 1.664.36.624 1.056.776 1.68.415Zm-1.868-15.717a1.312 1.312 0 0 0-1.836-.491c-.665.384-.876 1.17-.492 1.836s1.17.876 1.836.491c.665-.383.876-1.17.492-1.836ZM300.13 109.03l-21.082-12.994 4.075-2.353 14.723 9.182c.245.136.347.41.302.713-.047.304-.004.667.165.958.383.665 1.17.876 1.835.492a1.313 1.313 0 0 0 .493-1.836 1.513 1.513 0 0 0-.748-.622c-.327-.088-.513-.314-.55-.569l-1.171-17.006 3.99-2.304 1.461 24.322 4.704 8.148-3.492 2.016-4.704-8.148Zm-15.29-13.234a1.312 1.312 0 0 0-1.835-.492c-.666.384-.877 1.17-.493 1.836s1.171.876 1.837.492c.665-.384.876-1.171.492-1.836Zm9.674 6-2.324-1.43c-.603-.373-1.305-.245-1.677.359-.348.644-.179 1.322.424 1.695l2.3 1.388c.626.414 1.328.286 1.677-.358.372-.603.203-1.281-.4-1.654Zm11.81 11.529-1.344-2.328c-.36-.624-1.04-.841-1.663-.481-.624.36-.776 1.057-.416 1.68l1.344 2.329c.36.623 1.04.84 1.664.48.624-.36.775-1.057.415-1.68Zm-4.025-14.75-.16-2.678c-.022-.708-.524-1.194-1.233-1.173-.75.045-1.211.589-1.125 1.314l.095 2.662c.046.75.547 1.236 1.297 1.191.709-.02 1.171-.565 1.126-1.315Zm-.787-12.404a1.312 1.312 0 0 0-1.837-.492c-.665.384-.876 1.17-.492 1.836s1.171.876 1.836.492a1.313 1.313 0 0 0 .493-1.836ZM313.228 101.024l3.248-3.205c2.375 3.728 6.91 4.768 11.026 2.392 3.326-1.92 4.847-5.238 3.359-7.815-3.72-6.444-18.39 4.63-23.382-4.017-2.496-4.323-.09-9.371 4.982-12.3 5.155-2.976 10.743-2.322 13.739 1.714l-3.2 3.289c-1.966-2.635-5.542-3.453-8.868-1.533-2.66 1.537-4.173 4.294-2.925 6.456 3.265 5.654 18.103-5.13 23.48 4.182 2.663 4.615.562 10.096-5.3 13.48-6.11 3.529-12.755 2.487-16.16-2.643Zm2.254 1.026a1.313 1.313 0 0 0 1.837.492c.665-.384.876-1.17.492-1.836s-1.171-.875-1.836-.492a1.312 1.312 0 0 0-.493 1.836Zm-4.507-14.913c-.586-.438-.874-.937-.96-1.663-.118-.874-.9-1.365-1.648-.933-.873.504-.862 1.772-.118 3.061s1.837 1.933 2.71 1.429c.749-.433.715-1.355.016-1.894Zm12.504.153-5.682 1.008c-.702.128-1.164.672-1.036 1.374.128.702.755 1.116 1.458.987l5.681-1.007c.702-.128 1.14-.714 1.012-1.416-.128-.702-.73-1.074-1.433-.946Zm-10.8-10.45-.166.097c-1.414.816-1.874 1.747-1.394 2.578.384.665 1.076.71 1.81.063a5.217 5.217 0 0 1 1.83-1.056c.928-.313 1.234-.934.85-1.6-.48-.83-1.516-.898-2.93-.081Zm16.24 23.328a5.217 5.217 0 0 1-1.83 1.057c-.927.313-1.234.934-.85 1.6.48.83 1.517.898 2.93.082l.167-.096c1.413-.816 1.873-1.747 1.393-2.579-.384-.665-1.075-.71-1.81-.064Zm-7.504-21.83c.384.665 1.17.876 1.836.492s.876-1.17.492-1.836-1.17-.876-1.836-.492-.876 1.17-.492 1.836Zm12.404 12.46c-.744-1.288-1.836-1.932-2.71-1.428-.748.432-.714 1.354-.015 1.893.586.438.874.937.96 1.663.118.875.9 1.366 1.648.933.873-.504.861-1.772.117-3.06Z" class="uuid-7cbbb1c2-2bc4-4667-9945-9eab3d6a79e4"/>
</svg>