<?xml version="1.0" encoding="UTF-8"?>
<svg id="uuid-52abb6f7-c17a-470b-969d-ede2e11ae9a1" data-name="レイヤー 1" xmlns="http://www.w3.org/2000/svg" width="339.3870488" height="184.9422577" viewBox="0 0 339.3870488 184.9422577">
  <defs>
    <filter id="displacement-01">
      <feTurbulence
        type="fractalNoise"
        baseFrequency="0.05"
        numOctaves="3"
        result="noise" 
      />
      <feDisplacementMap
        in2="noise"
        in="SourceGraphic"
        scale="2"
      />
    </filter>
        <filter id="displacement-02">
      <feTurbulence
        type="fractalNoise"
        baseFrequency="0.08"
        numOctaves="3"
        result="noise" 
      />
      <feDisplacementMap
        in2="noise"
        in="SourceGraphic"
        scale="4"
      />
    </filter>
    <style>
      .uuid-7cbbb1c2-2bc4-4667-9945-9eab3d6a79e4 {
        fill: #dddddd;
        stroke-width: 0px;
        will-change: filter;
        @media (prefers-reduced-motion: no-preference) {
          animation: 
            displacement 0.3s linear 0.2s both infinite;
        }
      }

      .uuid-d120ab1a-add1-4bc7-9344-d2ebf9e6a4f9 {
        fill: none;
        stroke: #dddddd;
        stroke-miterlimit: 10;
        stroke-width: 2px;
        will-change: filter;
        @media (prefers-reduced-motion: no-preference) {
          animation: 
            displacement 0.3s linear 0.2s both infinite;
        }
      }
      @keyframes displacement {
        0% {
          filter: url(#displacement-01);
        }
        100% {
          filter: url(#displacement-02);
        }
      }
    </style>
  </defs>
  <path class="uuid-d120ab1a-add1-4bc7-9344-d2ebf9e6a4f9" d="M338.8870488,97.4634561l-147.6946378,85.2715389c-4.3005665,2.4829332-9.79953,1.0134278-12.2882081-3.2838168L101.8647271,46.4257502c-1.6591184-2.8648292-5.3250931-3.8444998-8.1921374-2.1892119L15.6013123,89.310985"/>
  <g>
    <path class="uuid-7cbbb1c2-2bc4-4667-9945-9eab3d6a79e4" d="M0,62.2887055l11.391111-6.5766576c4.863782-2.8081044,10.4618648-1.2730715,13.2941391,3.632574,2.8562001,4.9470862,1.327578,10.6519761-3.619931,13.5084203l-5.5708106,3.2163073c-.4985567.2878417-1.0582749.2783421-1.5238291.0481503-.3999436-.212254-.8942954-.2042387-1.3099707.0357514-.6651651.3840331-.875636,1.1708543-.4916029,1.8360194.2399901.4156753.6636807.670037,1.1165919.6859475.5176106.0332467,1.0070905.3048791,1.2951763.8038586l4.5124494,7.8157957-3.4920111,2.0161125L0,62.2887055ZM13.6677824,84.3301747l1.3439936,2.3278664c.3601073.6237244,1.0396985.8408503,1.663423.480743s.7754839-1.0572134.4153766-1.6809379l-1.3439936-2.3278664c-.3601073-.6237244-1.0399427-.8412732-1.6636671-.4811659s-.7752397,1.0576363-.4151324,1.6813607ZM12.7707287,74.0391232c.0334254-.5182776.3050578-1.0077575.8036145-1.2955992l5.5708106-3.2163073c2.8272688-1.6323236,3.6575991-4.9939552,1.9054025-8.0288502s-5.0786196-3.9966253-7.9058885-2.3643017l-5.5708106,3.2163073c-.4985567.2878417-1.0582749.2783421-1.5238291.0481503-.3999436-.212254-.8942954-.2042387-1.3099707.0357514-.6651651.3840331-.875636,1.1708543-.4916029,1.8360194.2399901.4156753.6636807.670037,1.1163477.6855246.5178547.0336695,1.0073346.305302,1.2954204.8042815l3.5043932,6.0697902c.2878417.4985567.2785862,1.0586978.0488173,1.5240078-.212921.3997648-.2044829.8938725.0355073,1.3095478.3840331.6651651,1.1706756.876303,1.8358407.4922699.4156753-.2399901.6697929-.6641036.6859475-1.1165919ZM9.9577146,60.1424198l2.3282893-1.3442378c.6233016-.3598631.8408503-1.0396985.480743-1.663423-.3598631-.6233016-1.0573922-.7748168-1.6806937-.4149537l-2.3282893,1.3442378c-.6237244.3601073-.8408503,1.0396985-.4809872,1.6630001.3601073.6237244,1.0572134.7754839,1.6809379.4153766ZM19.1911265,71.7181727c-.3842772-.665588-1.1710984-.8760588-1.8362635-.4920258s-.876303,1.1706756-.4920258,1.8362635c.3837889.6647422,1.1708543.875636,1.8360194.4916029s.8760588-1.1710984.4922699-1.8358407ZM24.3867367,67.2768033c-.3840331-.6651651-1.1704314-.8758801-1.8360194-.4916029-.6647422.3837889-.8758801,1.1704314-.491847,1.8355965s1.1710984.8760588,1.8358407.4922699c.665588-.3842772.8760588-1.1710984.4920258-1.8362635ZM18.4706164,55.7817298c-.3840331-.6651651-1.1704314-.8758801-1.8355965-.491847s-.876303,1.1706756-.4922699,1.8358407,1.1710984.8760588,1.8362635.4920258.875636-1.1708543.4916029-1.8360194ZM23.9431916,59.8835577l-.0959472-.1661856c-.8161618-1.4136344-1.7470259-1.8735951-2.5783766-1.3936148-.6651651.3840331-.7101174,1.0747283-.0632846,1.8103105.5087779.5931436.7968638,1.0921232,1.0559078,1.8288869.313616.9279649.9342517,1.234383,1.5994168.8503499.8313507-.4799803.8984456-1.5161126.0822838-2.929747Z"/>
    <path class="uuid-7cbbb1c2-2bc4-4667-9945-9eab3d6a79e4" d="M22.7881421,49.1319723l18.4584374-10.6569783,1.9201653,3.3258255-12.8047454,7.3928194c-.4985567.2878417-1.0582749.2783421-1.5238291.0481503-.3999436-.212254-.8942954-.2042387-1.3099707.0357514-.6651651.3840331-.875636,1.1708543-.4916029,1.8360194.2399901.4156753.6636807.670037,1.1163477.6855246.5178547.0336695,1.0073346.305302,1.2954204.8042815l2.2561026,3.9076864c.2880858.4989795.2785862,1.0586978.0488173,1.5240078-.2126768.4001877-.2042387.8942954.0357514,1.3099707.3840331.6651651,1.1706756.876303,1.8358407.4922699.4156753-.2399901.6697929-.6641036.6857034-1.1170147.0336695-.5178547.305302-1.0073346.8038586-1.2951763l10.8092501-6.2407202,1.9201653,3.3258255-10.8092501,6.2407202c-.4985567.2878417-1.0582749.2783421-1.5238291.0481503-.3999436-.212254-.8942954-.2042387-1.3099707.0357514-.6651651.3840331-.875636,1.1708543-.4916029,1.8360194.2399901.4156753.6636807.670037,1.1163477.6855246.5178547.0336695,1.0073346.305302,1.2954204.8042815l2.5441885,4.406666c.2880858.4989795.2785862,1.0586978.0488173,1.5240078-.212921.3997648-.2044829.8938725.0355073,1.3095478.3840331.6651651,1.1706756.876303,1.8358407.4922699.4156753-.2399901.670037-.6636807.6859475-1.1165919.0334254-.5182776.3050578-1.0077575.8036145-1.2955992l13.1371166-7.5847138,1.968261,3.4091297-18.7908085,10.8488727-15.6013123-27.0222796ZM32.7458567,46.9856866l2.3282893-1.3442378c.6233016-.3598631.8408503-1.0396985.480743-1.663423-.3598631-.6233016-1.0573922-.7748168-1.6806937-.4149537l-2.3282893,1.3442378c-.6237244.3601073-.8408503,1.0396985-.4809872,1.6630001.3601073.6237244,1.0572134.7754839,1.6809379.4153766ZM47.3771113,70.0230876l4.9885269-2.8801258c.6237244-.3601073.8408503-1.0396985.480743-1.663423s-1.0572134-.7754839-1.6809379-.4153766l-4.9885269,2.8801258c-.6237244.3601073-.8412732,1.0399427-.4811659,1.6636671s1.0576363.7752397,1.6813607.4151324ZM42.9104726,56.5268707l2.3282893-1.3442378c.6237244-.3601073.8408503-1.0396985.480743-1.663423-.3598631-.6233016-1.0572134-.7754839-1.6809379-.4153766l-2.3282893,1.3442378c-.6233016.3598631-.8406062,1.0401214-.480743,1.663423.3601073.6237244,1.0576363.7752397,1.6809379.4153766ZM41.0423954,40.8098142c-.3840331-.6651651-1.1708543-.875636-1.8360194-.4916029s-.876303,1.1706756-.4922699,1.8358407,1.1710984.8760588,1.8362635.4920258.8760588-1.1710984.4920258-1.8362635Z"/>
    <path class="uuid-7cbbb1c2-2bc4-4667-9945-9eab3d6a79e4" d="M54.281363,30.9493622l3.6586195-2.1123039,26.243954,20.8777507-3.9909906,2.3041983-5.6531869-4.6070397c-.2929577-.2193319-.3361815-.5822838-.1587132-.8510716.2782874-.3822499.2873642-.941724.0234483-1.39884-.3842772-.665588-1.1706756-.876303-1.8358407-.4922699-.6237244.3601073-.8408503,1.0396985-.5640472,1.7115186.1023581.2729927.0558668.5772331-.3598085.8172233l-8.3562159,4.824461c-.4156753.2399901-.701978.1278883-.8872175-.0972529-.4434115-.5756287-1.1405176-.7273882-1.7642421-.3672809-.6651651.3840331-.876303,1.1706756-.4920258,1.8362635.2639159.457116.7533958.7287484,1.2235777.6788696.3215112-.019298.6142248.199611.6576927.5629857l1.2046574,7.175398-3.9909906,2.3041983-4.9586706-33.1668084ZM61.9703348,59.4360101c-.3842772-.665588-1.1710984-.8760588-1.8362635-.4920258s-.876303,1.1706756-.4920258,1.8362635c.3837889.6647422,1.1708543.875636,1.8360194.4916029s.8760588-1.1710984.4922699-1.8358407ZM62.1969225,48.8841315c-.0673937-.4048154.0447082-.6911181.3775021-.8832567l5.9031817-3.4082018c.3323711-.1918945.6363674-.145826.9532509.1149465.4061757.3197281.9723048.4360349,1.512725.1240233.6651651-.3840331.876303-1.1706756.4922699-1.8358407s-1.1710984-.8760588-1.8362635-.4920258c-.332794.1921386-.802553.2417733-1.1194365-.0189993l-8.2768146-6.7509069c-.2927136-.218909-.3953158-.4923245-.3007288-.7132608.1710574-.3755949.1451044-.8043361-.07096-1.1785708-.3840331-.6651651-1.1708543-.875636-1.8360194-.4916029s-.8758801,1.1704314-.491847,1.8355965c.2160644.3742347.5743885.6110814.9437513.6746647.238207.0287977.4655541.2301917.5087779.5931436l1.7913491,10.4952902c.0673937.4048154-.2108937.7870654-.5436877.979204-.6651651.3840331-.875636,1.1708543-.4916029,1.8360194s1.1704314.8758801,1.8355965.491847c.5404202-.3120116.7227604-.8604471.6489558-1.3720696ZM59.2765962,42.8650375l-.4166957-2.6416612c-.0864476-.7259038-.6721189-1.1641447-1.3738528-1.0358335-.7024009.1281324-1.0987782.6896338-.9704671,1.3913677l.416517,2.6423282c.0864476.7259038.6718747,1.1637218,1.3982014,1.07703.701978-.1278883,1.0744296-.7308303.9462972-1.4332312ZM67.2005047,37.2927742l-2.0796412-1.6821235c-.5435636-.4619879-1.2280267-.3994661-1.6901934.1447645-.4619879.5435636-.3752962,1.2698903.210131,1.7077083l2.0793971,1.6817006c.5442306.4621666,1.2526195.4410855,1.7143633-.102901.437818-.5854271.3513704-1.3113309-.2340568-1.7491489ZM81.0939373,48.3949988c-.3842772-.665588-1.1710984-.8760588-1.8362635-.4920258s-.876303,1.1706756-.4920258,1.8362635c.3837889.6647422,1.1708543.875636,1.8360194.4916029s.8760588-1.1710984.4922699-1.8358407Z"/>
    <path class="uuid-7cbbb1c2-2bc4-4667-9945-9eab3d6a79e4" d="M71.2906454,21.1290535l3.4920111-2.0161125,7.8967254,13.6775368c.1440429.2494898.0977304.5530632-.1451044.8043361-.3197281.4061757-.3706684.9898197-.0825826,1.4887993.3840331.6651651,1.1706756.876303,1.8358407.4922699s.8760588-1.1710984.4920258-1.8362635c-.0959472-.1661856-.2335793-.3088682-.3474643-.4094432-.2927136-.218909-.4188187-.5340093-.3725062-.8375828l3.5273881-20.7722278,4.6565786-2.6884755-2.9313587,15.6610244c-.1278336.7385468-.7354034.6461658-1.0681974.8383044-.6651651.3840331-.8760588,1.1710984-.4920258,1.8362635s1.1708543.875636,1.8360194.4916029c.4156753-.2399901.4971964-.6749635,1.380209-.2978842l18.0403876,7.8210937-4.406666,2.5441885-14.61599-6.3058775c-.3516691-.1296168-.4781972-.444473-.4560545-.78991.0287977-.238207-.0498788-.4701819-.1939217-.7196717-.3840331-.6651651-1.1706756-.876303-1.8358407-.4922699s-.8760588,1.1710984-.4920258,1.8362635c.1440429.2494898.3056007.4336131.5262928.5277772.244862.1360276.364735.3436539.3186666.6476502l-1.2854885,6.8945648,3.8164048,6.6102104-3.4920111,2.0161125-15.6013123-27.0222796ZM78.2523186,26.7544118l-2.8801258-4.9885269c-.3601073-.6237244-1.0396985-.8408503-1.663423-.480743s-.7754839,1.0572134-.4153766,1.6809379l2.8801258,4.9885269c.3601073.6237244,1.0396985.8408503,1.663423.480743s.7754839-1.0572134.4153766-1.6809379ZM84.9584278,43.1705227l1.3439936,2.3278664c.3601073.6237244,1.0396985.8408503,1.663423.480743s.7754839-1.0572134.4153766-1.6809379l-1.3439936-2.3278664c-.3601073-.6237244-1.0399427-.8412732-1.6636671-.4811659s-.7752397,1.0576363-.4151324,1.6813607ZM104.6695393,34.3951547l-5.279715-2.3283304c-.6623205-.2829152-1.3580664-.0475528-1.6405587.6145236-.2829152.6623205.0357514,1.3099707.6559642,1.6166329l5.2972299,2.262964c.6623205.2829152,1.3166257.0714786,1.599118-.5905978.2829152-.6623205.030282-1.2922771-.6320385-1.5751922ZM90.4279113,13.1839747c-.3840331-.6651651-1.1708543-.875636-1.8360194-.4916029s-.876303,1.1706756-.4922699,1.8358407,1.1710984.8760588,1.8362635.4920258.8760588-1.1710984.4920258-1.8362635Z"/>
    <path class="uuid-7cbbb1c2-2bc4-4667-9945-9eab3d6a79e4" d="M104.3007066,26.7924476l3.2488776-3.2057873c2.3741925,3.728435,6.9100113,4.7682987,11.0257468,2.3920789,3.3258255-1.9201653,4.8474527-5.2377557,3.3594161-7.8151119-3.7202134-6.443602-18.3900611,4.6308759-23.3824908-4.0162705-2.4960928-4.3233618-.08933-9.3715247,4.982501-12.2997462,5.1551353-2.9763172,10.7429968-2.3222696,13.7380692,1.7130063l-3.2005377,3.2895144c-1.9646947-2.6353744-5.5410304-3.4528175-8.8668559-1.5326522-2.6606604,1.5361322-4.1723651,4.2937603-2.9243187,6.4554411,3.2641589,5.653692,18.1015524-5.1296113,23.4780152,4.1827002,2.6643056,4.6147151.5633223,10.0958241-5.2984187,13.4801001-6.1112308,3.5283189-12.7549456,2.4859093-16.160004-2.6432729ZM106.5562117,27.8182385c.3840331.6651651,1.1706756.876303,1.8358407.4922699s.8760588-1.1710984.4920258-1.8362635-1.1708543-.875636-1.8360194-.4916029-.8758801,1.1704314-.491847,1.8355965ZM102.0480778,12.9054225c-.5856713-.4382408-.873513-.9367975-.9602047-1.6631242-.1170284-.8745745-.899466-1.3655387-1.6479353-.93341-.8727913.5039061-.8609657,1.7724361-.1170695,3.0609027.7441403,1.2888895,1.8365623,1.9329735,2.7093536,1.4290674.7484693-.4321287.7147452-1.3547989.0158559-1.893436ZM114.5525267,13.0579068l-5.6821498,1.0078364c-.7017339.1283111-1.1637218.6718747-1.0355894,1.3742756.1283111.7017339.7554231,1.116049,1.457157.9877378l5.6817269-1.0075923c.7021568-.1285553,1.1402189-.7135596,1.0120865-1.4159605-.1283111-.7017339-.7312532-1.0741854-1.4332312-.9462972ZM103.7526048,2.6087229l-.1661856.0959472c-1.4136344.8161618-1.8740179,1.7472701-1.3940376,2.5786207.3840331.6651651,1.0751512.7098733,1.8103105.0632846.5931436-.5087779,1.0921232-.7968638,1.8293098-1.0561519.927542-.3133719,1.234383-.9342517.8503499-1.5994168-.4799803-.8313507-1.5165354-.8982015-2.929747-.0822838ZM119.9927758,25.9367556c-.5938107.5085992-1.0923673.7964409-1.8293098,1.0561519-.927542.3133719-1.234383.9342517-.8503499,1.5994168.4799803.8313507,1.5161126.8984456,2.929747.0822838l.1661856-.0959472c1.4136344-.8161618,1.8740179-1.7472701,1.3940376-2.5786207-.3840331-.6651651-1.0751512-.7098733-1.8103105-.0632846ZM112.4880608,4.1061666c.3840331.6651651,1.1710984.8760588,1.8362635.4920258s.8760588-1.1710984.4920258-1.8362635-1.1710984-.8760588-1.8362635-.4920258-.8760588,1.1710984-.4920258,1.8362635ZM124.892993,16.5667563c-.7441403-1.2888895-1.8365623-1.9329735-2.7097765-1.4288233-.7484693.4321287-.7143223,1.3545547-.015433,1.8931918.5856713.4382408.873513.9367975.9602047,1.6631242.1170284.8745745.8990431,1.3657829,1.6475125.9336541.8732142-.5041502.8613885-1.7726802.1174923-3.0611469Z"/>
  </g>
  <g>
    <path class="uuid-7cbbb1c2-2bc4-4667-9945-9eab3d6a79e4" d="M143.778163,56.6323189l2.1123039,3.6586195-20.8777507,26.243954-2.3041983-3.9909906,4.6070397-5.6531869c.2193319-.2929577.5822838-.3361815.8510716-.1587132.3822499.2782874.941724.2873642,1.39884.0234483.665588-.3842772.876303-1.1706756.4922699-1.8358407-.3601073-.6237244-1.0396985-.8408503-1.7115186-.5640472-.2729927.1023581-.5772331.0558668-.8172233-.3598085l-4.824461-8.3562159c-.2399901-.4156753-.1278883-.701978.0972529-.8872175.5756287-.4434115.7273882-1.1405176.3672809-1.7642421-.3840331-.6651651-1.1706756-.876303-1.8362635-.4920258-.457116.2639159-.7287484.7533958-.6788696,1.2235777.019298.3215112-.199611.6142248-.5629857.6576927l-7.175398,1.2046574-2.3041983-3.9909906,33.1668084-4.9586706ZM115.2915151,64.3212908c.665588-.3842772.8760588-1.1710984.4920258-1.8362635s-1.1706756-.876303-1.8362635-.4920258c-.6647422.3837889-.875636,1.1708543-.4916029,1.8360194s1.1710984.8760588,1.8358407.4922699ZM126.3325264,83.4448933c.665588-.3842772.8760588-1.1710984.4920258-1.8362635s-1.1706756-.876303-1.8362635-.4920258c-.6647422.3837889-.875636,1.1708543-.4916029,1.8360194s1.1710984.8760588,1.8358407.4922699ZM125.8436378,64.5483013c.4045713-.0678166.690874.0442853.8827685.3766564l3.4084459,5.9036046c.1918945.3323711.145826.6363674-.1149465.9532509-.3197281.4061757-.4360349.9723048-.1240233,1.512725.3840331.6651651,1.1706756.876303,1.8358407.4922699s.8760588-1.1710984.4920258-1.8362635c-.1918945-.3323711-.2417733-.802553.0189993-1.1194365l6.7509069-8.2768146c.218909-.2927136.4923245-.3953158.7132608-.3007288.3755949.1710574.8043361.1451044,1.1785708-.07096.6651651-.3840331.875636-1.1708543.4916029-1.8360194s-1.1704314-.8758801-1.8355965-.491847c-.3742347.2160644-.6110814.5743885-.6746647.9437513-.0287977.238207-.2301917.4655541-.5931436.5087779l-10.4952902,1.7913491c-.4048154.0673937-.7870654-.2108937-.979204-.5436877-.3840331-.6651651-1.1708543-.875636-1.8360194-.4916029s-.8758801,1.1704314-.491847,1.8355965c.3120116.5404202.8604471.7227604,1.3723138.6493787ZM131.8624877,61.6275521l2.6416612-.4166957c.7259038-.0864476,1.1641447-.6721189,1.0355894-1.3742756-.1278883-.701978-.6893896-1.0983553-1.3913677-.9704671l-2.642084.4169399c-.7259038.0864476-1.1637218.6718747-1.07703,1.3982014.1278883.701978.7308303,1.0744296,1.4332312.9462972ZM137.434751,69.5514606l1.6821235-2.0796412c.4619879-.5435636.3994661-1.2280267-.1447645-1.6901934-.5435636-.4619879-1.2698903-.3752962-1.7077083.210131l-1.6817006,2.0793971c-.4621666.5442306-.4410855,1.2526195.102901,1.7143633.5854271.437818,1.3113309.3513704,1.7491489-.2340568Z"/>
    <path class="uuid-7cbbb1c2-2bc4-4667-9945-9eab3d6a79e4" d="M153.5984717,73.6416013l2.4963369,4.3237846-12.6899674,25.0642839c-.1949832.3341542-.444473.4781972-.78991.4560545-.238207-.0287977-.470426.0494559-.7199158.1934989-.6651651.3840331-.875636,1.1708543-.4916029,1.8360194s1.1706756.876303,1.8358407.4922699c.4575389-.2641601.7466862-.8190064.6726375-1.3310518-.0671496-.4043926.1521823-.6973503.4845534-.8892447l19.9549532-11.5209916,2.0161125,3.4920111-27.0222796,15.6013123-2.3041983-3.9909906,12.4151916-25.3488034c.111679-.2860586.3611688-.4301015.7066058-.4079588.238207.0287977.4701819-.0498788.7196717-.1939217.6647422-.3837889.875636-1.1708543.4916029-1.8360194s-1.1710984-.8760588-1.8358407-.4922699c-.4575389.2641601-.7464421.8194293-.6730603,1.331296.0671496.4043926-.1517594.6971061-.4841305.8890006l-19.7887676,11.4250444-2.0161125-3.4920111,27.0222796-15.6013123ZM130.4293309,90.7321769l2.3278664-1.3439936c.6237244-.3601073.8412732-1.0399427.4811659-1.6636671s-1.0576363-.7752397-1.6813607-.4151324l-2.3278664,1.3439936c-.6237244.3601073-.8408503,1.0396985-.480743,1.663423s1.0572134.7754839,1.6809379.4153766ZM145.103215,98.002588l1.2099143-2.4170629c.3482816-.6448056.1370891-1.2986879-.5077164-1.6469696-.6204569-.3070851-1.3162028-.0717227-1.599118.5905978l-1.2099143,2.4170629c-.3485258.6443827-.1366663,1.2984438.5077164,1.6469696.6204569.3070851,1.3162028.0717227,1.599118-.5905978ZM140.5315524,84.8996596l4.9885269-2.8801258c.6237244-.3601073.8408503-1.0396985.480743-1.663423s-1.0572134-.7754839-1.6809379-.4153766l-4.9885269,2.8801258c-.6237244.3601073-.8408503,1.0396985-.480743,1.663423s1.0572134.7754839,1.6809379.4153766ZM151.2844779,103.5242826l4.9885269-2.8801258c.6237244-.3601073.8408503-1.0396985.480743-1.663423s-1.0572134-.7754839-1.6809379-.4153766l-4.9885269,2.8801258c-.6237244.3601073-.8408503,1.0396985-.480743,1.663423s1.0572134.7754839,1.6809379.4153766ZM149.4694229,89.0514075c.6651651-.3840331.8758801-1.1704314.491847-1.8355965s-1.1706756-.876303-1.8358407-.4922699-.8760588,1.1710984-.4920258,1.8362635,1.1708543.875636,1.8360194.4916029ZM161.3866994,97.6917653l2.3278664-1.3439936c.6237244-.3601073.8408503-1.0396985.480743-1.663423s-1.0572134-.7754839-1.6809379-.4153766l-2.3278664,1.3439936c-.6237244.3601073-.8408503,1.0396985-.480743,1.663423s1.0572134.7754839,1.6809379.4153766Z"/>
    <path class="uuid-7cbbb1c2-2bc4-4667-9945-9eab3d6a79e4" d="M169.4671179,101.126917l5.8569313,10.1445079c4.296385,7.441561,2.1802675,16.2568097-5.885018,20.913302-7.6496101,4.4165022-16.5049392,2.7114322-20.7534727-4.6472475l-6.2407202-10.8092501,27.0222796-15.6013123ZM148.5762467,125.716309l1.3442378,2.3282893c.3598631.6233016,1.0396985.8408503,1.663423.480743s.7752397-1.0576363.4153766-1.6809379l-1.3442378-2.3282893c-.3603514-.6241473-1.0396985-.8408503-1.663423-.480743s-.775728,1.0567906-.4153766,1.6809379ZM147.8225278,119.6100458c.5182776.0334254,1.0080016.3054807,1.2960875.8044602l2.7841786,4.8223413c3.0722644,5.3213208,9.5203289,6.697706,15.3406293,3.3373557,5.9450453-3.4323717,7.8988423-9.93697,4.6586091-15.5492213l-2.4960928-4.3233618c-.2880858-.4989795-.2788303-1.0591207-.0486386-1.5246748.2127423-.3990978.2044829-.8938725-.0352632-1.309125-.3842772-.665588-1.1713426-.8764817-1.8365077-.4924486-.4156753.2399901-.6697929.6641036-.6855246,1.1163477-.0331813.5187004-.3048137,1.0081803-.8037932,1.2962662l-15.9639625,9.2167933c-.4989795.2880858-1.0586978.2785862-1.5244961.0479716-.3995207-.2124981-.8938725-.2044829-1.3095478.0355073-.6651651.3840331-.8760588,1.1710984-.4917816,1.8366864.239746.4152525.6636807.670037,1.1161036.6851018ZM158.7739893,133.2982678c.6651651-.3840331.8760588-1.1710984.4917816-1.8366864-.3837889-.6647422-1.1708543-.875636-1.8360194-.4916029s-.8760588,1.1710984-.4922699,1.8358407c.3842772.665588,1.1713426.8764817,1.8365077.4924486ZM156.4004427,112.3853981l4.9885269-2.8801258c.6237244-.3601073.8406062-1.0401214.4804989-1.6638458s-1.0572134-.7754839-1.6809379-.4153766l-4.9885269,2.8801258c-.6237244.3601073-.8408503,1.0396985-.480743,1.663423s1.0574576.7759067,1.681182.4157994ZM168.8582319,131.4668383l.1661856-.0959472c1.4136344-.8161618,1.8735951-1.7470259,1.3936148-2.5783766-.3837889-.6647422-1.0747283-.7101174-1.8103105-.0632846-.5933878.5083551-1.0919445.7961968-1.8288869,1.0559078-.9279649.313616-1.2341388.9346745-.8503499,1.5994168.4799803.8313507,1.5161126.8984456,2.929747.0822838ZM174.2954818,121.0104051c-.6651651.3840331-.8760588,1.1710984-.4917816,1.8366864.3837889.6647422,1.1708543.875636,1.8360194.4916029s.875636-1.1708543.491847-1.8355965c-.3842772-.665588-1.1709197-.8767258-1.8360848-.4926928ZM171.6136477,111.0850544l1.3442378,2.3282893c.3598631.6233016,1.0396985.8408503,1.663423.480743.6233016-.3598631.7748168-1.0573922.4149537-1.6806937l-1.3442378-2.3282893c-.3598631-.6233016-1.0396985-.8408503-1.6630001-.4809872-.6237244.3601073-.7752397,1.0576363-.4153766,1.6809379Z"/>
  </g>
  <g>
    <path class="uuid-7cbbb1c2-2bc4-4667-9945-9eab3d6a79e4" d="M167.6356244,160.3599733l3.8248051-2.2082511,19.807268,16.8335727c.2273471.2013941.3295265.4750538.2178475.7611123-.1712362.3762619-.1040866.7806545.1119778,1.1548892.3840331.6651651,1.1710984.8760588,1.8362635.4920258s.8760588-1.1710984.4920258-1.8362635c-.2160644-.3742347-.5741444-.6106586-.9437513-.6746647-.3039963-.0460684-.5309206-.2477066-.5920822-.545048l-4.8822823-25.4505127,3.7415009-2.1601554,5.8733255,32.6387325-3.9909906,2.3041983-25.4959075-21.3096353ZM172.8877273,160.431493c-.3840331-.6651651-1.1708543-.875636-1.8360194-.4916029s-.876303,1.1706756-.4922699,1.8358407,1.1710984.8760588,1.8362635.4920258.8760588-1.1710984.4920258-1.8362635ZM181.3868384,167.6641086l-2.0379564-1.7056264c-.5438077-.4624108-1.2526195-.4410855-1.7143633.102901-.5038514.5677335-.3752962,1.2698903.1682674,1.7318782l2.0618822,1.747067c.5856713.4382408,1.2701344.375719,1.732301-.1685116.4619879-.5435636.3338555-1.2459645-.210131-1.7077083ZM186.8846996,172.1944991c-.3840331-.6651651-1.1704314-.8758801-1.8360194-.4916029-.6647422.3837889-.8758801,1.1704314-.491847,1.8355965s1.1710984.8760588,1.8358407.4922699c.665588-.3842772.8760588-1.1710984.4920258-1.8362635ZM194.3681242,167.8739441c-.3840331-.6651651-1.1708543-.875636-1.8360194-.4916029s-.876303,1.1706756-.4922699,1.8358407,1.1710984.8760588,1.8362635.4920258.8760588-1.1710984.4920258-1.8362635ZM193.209834,161.8354975l-.4820622-2.6591761c-.1283111-.7017339-.6721189-1.1641447-1.4157163-1.0116636-.701978.1278883-1.0748524.7310745-.9462972,1.4332312l.4581364,2.6177354c.1278883.701978.6721189,1.1641447,1.3738528,1.0358335.7024009-.1281324,1.0987782-.6896338,1.0120865-1.4159605ZM191.0548114,149.9427275c-.3840331-.6651651-1.1708543-.875636-1.8360194-.4916029s-.8758801,1.1704314-.491847,1.8355965,1.1706756.876303,1.8358407.4922699.8760588-1.1710984.4920258-1.8362635Z"/>
    <path class="uuid-7cbbb1c2-2bc4-4667-9945-9eab3d6a79e4" d="M199.6235962,141.8917188l3.6586195-2.1123039,26.243954,20.8777507-3.9909906,2.3041983-5.6531869-4.6070397c-.2929577-.2193319-.3361815-.5822838-.1587132-.8510716.2782874-.3822499.2873642-.941724.0232041-1.3992629-.3837889-.6647422-1.1704314-.8758801-1.8355965-.491847-.6237244.3601073-.8408503,1.0396985-.5640472,1.7115186.1023581.2729927.0558668.5772331-.3598085.8172233l-8.3562159,4.824461c-.4156753.2399901-.701978.1278883-.8872175-.0972529-.4434115-.5756287-1.1405176-.7273882-1.7642421-.3672809-.6651651.3840331-.8760588,1.1710984-.4922699,1.8358407.2641601.4575389.75364.7291713,1.2238219.6792925.3215112-.019298.6142248.199611.6576927.5629857l1.2046574,7.175398-3.9909906,2.3041983-4.9586706-33.1668084ZM207.3123239,170.3779439c-.3837889-.6647422-1.1708543-.875636-1.8360194-.4916029s-.8760588,1.1710984-.4922699,1.8358407c.3842772.665588,1.1710984.8760588,1.8362635.4920258s.876303-1.1706756.4920258-1.8362635ZM207.5395786,159.826244c-.0678166-.4045713.0442853-.690874.3766564-.8827685l5.9036046-3.4084459c.3323711-.1918945.6363674-.145826.9532509.1149465.4061757.3197281.9723048.4360349,1.512725.1240233.6651651-.3840331.876303-1.1706756.4922699-1.8358407s-1.1710984-.8760588-1.8362635-.4920258c-.3323711.1918945-.802553.2417733-1.1194365-.0189993l-8.2768146-6.7509069c-.2927136-.218909-.3953158-.4923245-.3007288-.7132608.1710574-.3755949.1451044-.8043361-.07096-1.1785708-.3840331-.6651651-1.1710984-.8760588-1.8362635-.4920258s-.875636,1.1708543-.4916029,1.8360194c.2160644.3742347.5743885.6110814.9437513.6746647.238207.0287977.4655541.2301917.5087779.5931436l1.7913491,10.4952902c.0673937.4048154-.2108937.7870654-.5436877.979204-.6651651.3840331-.875636,1.1708543-.4916029,1.8360194s1.1704314.8758801,1.8355965.491847c.5404202-.3120116.7227604-.8604471.6493787-1.3723138ZM204.6188294,153.8073941l-.4166957-2.6416612c-.0864476-.7259038-.6721189-1.1641447-1.3742756-1.0355894-.701978.1278883-1.0983553.6893896-.9704671,1.3913677l.4169399,2.642084c.0864476.7259038.6718747,1.1637218,1.3982014,1.07703.701978-.1278883,1.0744296-.7308303.9462972-1.4332312ZM212.5427379,148.2351308l-2.0796412-1.6821235c-.5435636-.4619879-1.2280267-.3994661-1.6901934.1447645-.4619879.5435636-.3752962,1.2698903.210131,1.7077083l2.0793971,1.6817006c.5442306.4621666,1.2526195.4410855,1.7143633-.102901.437818-.5854271.3513704-1.3113309-.2340568-1.7491489ZM226.4359264,159.3369326c-.3837889-.6647422-1.1708543-.875636-1.8360194-.4916029s-.8760588,1.1710984-.4922699,1.8358407c.3842772.665588,1.1710984.8760588,1.8362635.4920258s.876303-1.1706756.4920258-1.8362635Z"/>
    <path class="uuid-7cbbb1c2-2bc4-4667-9945-9eab3d6a79e4" d="M216.6328786,132.0714101l3.492434-2.0163566,12.385005,21.4514689c.2880858.4989795.2785862,1.0586978.0479716,1.5244961-.2124981.3995207-.2044829.8938725.0355073,1.3095478.3840331.6651651,1.1710984.8760588,1.8366864.4917816.4152525-.239746.670037-.6636807.6851018-1.1161036.0334254-.5182776.3054807-1.0080016.8044602-1.2960875l12.4719514-7.2006808,1.968261,3.4091297-18.1260663,10.4650838-15.6013123-27.0222796ZM223.5945518,137.6967684l-2.8801258-4.9885269c-.3601073-.6237244-1.0396985-.8408503-1.663423-.480743s-.7754839,1.0572134-.4153766,1.6809379l2.8801258,4.9885269c.3601073.6237244,1.0396985.8408503,1.663423.480743s.7754839-1.0572134.4153766-1.6809379ZM229.4031433,147.7575492l-1.3442378-2.3282893c-.3598631-.6233016-1.0396985-.8408503-1.663423-.480743s-.7752397,1.0576363-.4153766,1.6809379l1.3442378,2.3282893c.3601073.6237244,1.0396985.8408503,1.663423.480743s.7754839-1.0572134.4153766-1.6809379ZM241.2218478,152.9625254l2.3282893-1.3442378c.6233016-.3598631.8408503-1.0396985.480743-1.663423s-1.0576363-.7752397-1.6809379-.4153766l-2.3282893,1.3442378c-.6241473.3603514-.8408503,1.0396985-.480743,1.663423s1.0567906.775728,1.6809379.4153766ZM248.1876334,147.5549633c-.3840331-.6651651-1.1710984-.8760588-1.8358407-.4922699-.665588.3842772-.8764817,1.1713426-.4924486,1.8365077s1.1710984.8760588,1.8366864.4917816c.6647422-.3837889.875636-1.1708543.4916029-1.8360194Z"/>
    <path class="uuid-7cbbb1c2-2bc4-4667-9945-9eab3d6a79e4" d="M237.5210927,120.0116003l3.4920111-2.0161125,12.385005,21.4514689c.2880858.4989795.2785862,1.0586978.0488173,1.5240078-.2124981.3995207-.2044829.8938725.0355073,1.3095478.3840331.6651651,1.1710984.8760588,1.8358407.4922699.4160982-.2402343.670037-.6636807.6859475-1.1165919.0334254-.5182776.304635-1.0075133.8036145-1.2955992l12.4719514-7.2006808,1.968261,3.4091297-18.1256434,10.4648397-15.6013123-27.0222796ZM244.482343,125.6372028l-2.8801258-4.9885269c-.3601073-.6237244-1.0392757-.8410944-1.6625772-.4812313-.6241473.3603514-.7754839,1.0572134-.4153766,1.6809379l2.8801258,4.9885269c.3601073.6237244,1.0392757.8410944,1.663423.480743.6233016-.3598631.7746381-1.0567251.4145308-1.6804496ZM250.2909345,135.6979835l-1.3442378-2.3282893c-.3598631-.6233016-1.0392757-.8410944-1.6625772-.4812313-.6241473.3603514-.7752397,1.0576363-.4153766,1.6809379l1.3442378,2.3282893c.3601073.6237244,1.0392757.8410944,1.663423.480743.6233016-.3598631.7746381-1.0567251.4145308-1.6804496ZM262.109639,140.9029598l2.3282893-1.3442378c.6233016-.3598631.8408503-1.0396985.480743-1.663423s-1.0576363-.7752397-1.6809379-.4153766l-2.3282893,1.3442378c-.6233016.3598631-.8408503,1.0396985-.480743,1.663423s1.0576363.7752397,1.6809379.4153766ZM269.0762704,135.4949094c-.3840331-.6651651-1.1710984-.8760588-1.8366864-.4917816-.6647422.3837889-.875636,1.1708543-.4916029,1.8360194s1.1710984.8760588,1.8358407.4922699c.665588-.3842772.8764817-1.1713426.4924486-1.8365077Z"/>
    <path class="uuid-7cbbb1c2-2bc4-4667-9945-9eab3d6a79e4" d="M258.4097296,107.9515464l18.4580145-10.6567341,1.9201653,3.3258255-12.8043226,7.3925753c-.4989795.2880858-1.0582749.2783421-1.5238291.0481503-.3999436-.212254-.8938725-.2044829-1.3099707.0357514-.6647422.3837889-.875636,1.1708543-.4916029,1.8360194.2399901.4156753.6641036.6697929,1.1163477.6855246.5178547.0336695,1.0073346.305302,1.2954204.8042815l2.2563468,3.9081093c.2878417.4985567.2783421,1.0582749.0485732,1.5235849-.212254.3999436-.2042387.8942954.0357514,1.3099707.3840331.6651651,1.1708543.875636,1.8355965.491847.4160982-.2402343.670037-.6636807.6859475-1.1165919.0336695-.5178547.3048791-1.0070905.8038586-1.2951763l10.8092501-6.2407202,1.9201653,3.3258255-10.8092501,6.2407202c-.4989795.2880858-1.0582749.2783421-1.5238291.0481503-.3999436-.212254-.8938725-.2044829-1.3099707.0357514-.6647422.3837889-.875636,1.1708543-.4916029,1.8360194.2399901.4156753.6641036.6697929,1.1163477.6855246.5178547.0336695,1.0073346.305302,1.2954204.8042815l2.5441885,4.406666c.2880858.4989795.2785862,1.0586978.0488173,1.5240078-.2124981.3995207-.2044829.8938725.0355073,1.3095478.3840331.6651651,1.1710984.8760588,1.8358407.4922699.4160982-.2402343.670037-.6636807.6859475-1.1165919.0334254-.5182776.304635-1.0075133.8036145-1.2955992l13.1375394-7.584958,1.968261,3.4091297-18.7912314,10.8491169-15.6013123-27.0222796ZM268.3678671,105.8050166l2.3274436-1.3437495c.6241473-.3603514.8408503-1.0396985.480743-1.663423-.3598631-.6233016-1.0565464-.7753051-1.6806937-.4149537l-2.3274436,1.3437495c-.6241473.3603514-.841696,1.0401868-.4818329,1.6634884.3601073.6237244,1.0576363.7752397,1.6817836.4148883ZM282.9982759,128.8429059l4.9889497-2.88037c.6233016-.3598631.8408503-1.0396985.480743-1.663423s-1.0576363-.7752397-1.6809379-.4153766l-4.9889497,2.88037c-.6233016.3598631-.8408503,1.0396985-.480743,1.663423s1.0576363.7752397,1.6809379.4153766ZM278.532483,115.3462007l2.3274436-1.3437495c.6241473-.3603514.8408503-1.0396985.480743-1.663423-.3598631-.6233016-1.0567906-.775728-1.6809379-.4153766l-2.3274436,1.3437495c-.6241473.3603514-.8406062,1.0401214-.480743,1.663423.3601073.6237244,1.0567906.775728,1.6809379.4153766ZM276.6639829,99.6293884c-.3840331-.6651651-1.1708543-.875636-1.8355965-.491847-.665588.3842772-.8767258,1.1709197-.4926928,1.8360848s1.1710984.8760588,1.8366864.4917816c.6647422-.3837889.875636-1.1708543.4916029-1.8360194Z"/>
    <path class="uuid-7cbbb1c2-2bc4-4667-9945-9eab3d6a79e4" d="M300.130948,109.0292794l-21.082917-12.9932556,4.0747177-2.3525381,14.7236388,9.1817849c.2450408.1353606.3467973.4092645.3011517.7130166-.0467354.3038176-.0030888.6665254.1651241.9578787.3837889.6647422,1.1708543.875636,1.8355965.491847.665588-.3842772.8764817-1.1713426.4926928-1.8360848-.1682128-.2913533-.4613493-.5100182-.7478307-.621453-.3273205-.0884202-.5128041-.3139842-.5497958-.569462l-1.1716927-17.0060006,3.9909906-2.3041983,1.4603349,24.3223528,4.7043439,8.1481668-3.4920111,2.0161125-4.7043439-8.1481668ZM284.8405542,95.7955318c-.3840331-.6651651-1.1708543-.875636-1.8355965-.491847-.665588.3842772-.8767258,1.1709197-.4926928,1.8360848s1.1710984.8760588,1.8366864.4917816c.6647422-.3837889.875636-1.1708543.4916029-1.8360194ZM294.5137324,101.7960662l-2.3233217-1.4303623c-.602942-.3724515-1.3049201-.2445633-1.6771275.3588016-.3485258.6443827-.1789527,1.3228578.4239894,1.6953094l2.2991518,1.3884987c.6268678.4138922,1.3288459.2860039,1.6771275-.3588016.3724515-.602942.2031226-1.2809943-.3998195-1.6534458ZM306.3241323,113.3245516l-1.3439936-2.3278664c-.3601073-.6237244-1.0392757-.8410944-1.663423-.480743-.6233016.3598631-.7754839,1.0572134-.4153766,1.6809379l1.3439936,2.3278664c.3601073.6237244,1.0401214.8406062,1.663423.480743.6241473-.3603514.7754839-1.0572134.4153766-1.6809379ZM302.2992461,98.5758938l-.1607951-2.678897c-.0210812-.7083889-.5236269-1.1940584-1.2320158-1.1729773-.7500737.0445841-1.2118175.5885705-1.1253699,1.3144743l.0954286,2.6613821c.0450069.7498296.546707,1.2359874,1.2967807,1.1914033.7083889-.0210812,1.1709784-.5655559,1.1259715-1.3153855ZM301.5115454,86.1705355c-.3840331-.6651651-1.1708543-.875636-1.8364423-.4913588-.6647422.3837889-.8758801,1.1704314-.491847,1.8355965s1.1710984.8760588,1.8358407.4922699c.665588-.3842772.8764817-1.1713426.4924486-1.8365077Z"/>
    <path class="uuid-7cbbb1c2-2bc4-4667-9945-9eab3d6a79e4" d="M313.2277342,101.0241251l3.2484547-3.2055432c2.3748595,3.7286137,6.9104341,4.7680546,11.0257468,2.3920789,3.3262484-1.9204094,4.8470298-5.2375116,3.3589933-7.8148678-3.7202134-6.443602-18.3896383,4.6306317-23.382068-4.0165146-2.4960928-4.3233618-.08933-9.3715247,4.982501-12.2997462,5.1547124-2.9760731,10.7429968-2.3222696,13.7383133,1.7134291l-3.200359,3.2888474c-1.9655404-2.6348861-5.5410304-3.4528175-8.8672788-1.5324081-2.6606604,1.5361322-4.1727879,4.2940044-2.9247415,6.4556853,3.264403,5.6541148,18.1023982-5.1300996,23.4788609,4.1822119,2.6643056,4.6147151.5628995,10.0960683-5.2988416,13.4803443-6.1112308,3.5283189-12.7549456,2.4859093-16.1595811-2.643517ZM315.4823935,102.0504043c.3840331.6651651,1.1710984.8760588,1.8366864.4917816.6647422-.3837889.875636-1.1708543.4916029-1.8360194s-1.1708543-.875636-1.8355965-.491847c-.665588.3842772-.8767258,1.1709197-.4926928,1.8360848ZM310.9746825,87.1373441c-.5856713-.4382408-.8737571-.9372204-.9602047-1.6631242-.1170284-.8745745-.898799-1.36536-1.6472683-.9332313-.8736371.5043943-.8620555,1.7725015-.1181594,3.0609682.7441403,1.2888895,1.8365623,1.9329735,2.7101994,1.4285792.7484693-.4321287.7143223-1.3545547.015433-1.8931918ZM323.4791314,87.2898285l-5.6821498,1.0078364c-.7017339.1283111-1.1637218.6718747-1.0355894,1.3742756.1278883.701978.7547561,1.1158702,1.4575798.9874937l5.681304-1.0073481c.7017339-.1283111,1.1406417-.7138037,1.0116636-1.4157163-.1278883-.701978-.7308303-1.0744296-1.4328083-.9465413ZM312.6787866,76.8408887l-.1657627.0957031c-1.4140573.8164059-1.8735951,1.7470259-1.3936148,2.5783766.3840331.6651651,1.0751512.7098733,1.8103105.0632846.5927208-.5085338,1.0917003-.7966196,1.8293098-1.0561519.927542-.3133719,1.234383-.9342517.8503499-1.5994168-.4799803-.8313507-1.5165354-.8982015-2.9305927-.0817955ZM328.9187135,100.1684985c-.5927208.5085338-1.0917003.7966196-1.8293098,1.0561519-.9272979.3137947-1.2341388.9346745-.8501058,1.5998396.4799803.8313507,1.5165354.8982015,2.929747.0822838l.1666084-.0961914c1.4132116-.8159177,1.8735951-1.7470259,1.3936148-2.5783766-.3840331-.6651651-1.0751512-.7098733-1.8105546-.0637074ZM321.4150884,78.3378441c.3840331.6651651,1.1702527.8765471,1.8358407.4922699s.875636-1.1708543.4916029-1.8360194-1.1702527-.8765471-1.8358407-.4922699-.875636,1.1708543-.4916029,1.8360194ZM333.8191748,90.7989221c-.7441403-1.2888895-1.8365623-1.9329735-2.7093536-1.4290674-.7484693.4321287-.7143223,1.3545547-.015433,1.8931918.5856713.4382408.8737571.9372204.9602047,1.6631242.1170284.8745745.898799,1.36536,1.6472683.9332313.8727913-.5039061.8612098-1.7720132.1173136-3.0604799Z"/>
  </g>
</svg>