<?xml version="1.0" encoding="UTF-8"?>
<svg id="a" data-name="レイヤー 1" xmlns="http://www.w3.org/2000/svg" viewBox="0 0 700.7715 105.9932">
  <defs>
    <filter id="displacement-01">
      <feTurbulence
        type="fractalNoise"
        baseFrequency="0.05"
        numOctaves="3"
        result="noise" 
      />
      <feDisplacementMap
        in2="noise"
        in="SourceGraphic"
        scale="4"
      />
    </filter>
        <filter id="displacement-02">
      <feTurbulence
        type="fractalNoise"
        baseFrequency="0.08"
        numOctaves="3"
        result="noise" 
      />
      <feDisplacementMap
        in2="noise"
        in="SourceGraphic"
        scale="6"
      />
    </filter>

    <style>
      .b {
        fill: #dddddd;
        stroke-width: 0px;
        animation: 
          displacement 0.3s linear infinite;
      }
      @keyframes displacement {
        0% {
          filter: url(#displacement-01);
        }
        100% {
          filter: url(#displacement-02);
        }
      }
    </style>
  </defs>
  <path class="b" d="M73.5903,28.9463c-4.1045,5.4004-6.769,12.0249-12.0972,16.4175.0718.0718.0718.2158.0718.2881,0,.5039-.7197.7197-.5757,1.2241-2.3765,2.376-4.7524,4.6802-6.5527,7.5605-1.1523.5039-1.9443,1.3682-2.5205,2.52-.5757,0-.7197.3604-1.2236.5044-2.9526,3.6001-6.2646,6.9126-10.0093,9.6484-1.3682,1.0083-2.8081,1.8003-4.104,2.7363-.8643.5762-1.6562,1.4404-2.4482,2.0884-2.6646,2.3042-5.1846,3.8882-8.7129,4.4644-.5762,2.1602.2881,4.6802-.7202,6.7686v.2158c0,.9365.6479,1.8003.6479,2.7363,0,.3604-.1436.6479-.4316.8643h1.7998c0,1.2959,1.2241,2.2319,1.2241,2.7363,0,1.584-.0718,3.8882-1.728,4.5361v.4321c0,.936-.144,1.8721-.792,2.6641-.5039,0-1.0083.0723-1.5122.0723-1.8721,0-3.6724-.4321-5.2563-1.3682-1.0083-2.4482-1.2964-5.1123-1.2964-7.7046,0-5.1128,1.0806-10.1528,1.5122-15.2656l1.0083-2.0161c.3599-5.3281,2.1602-10.5127,2.0161-15.8413.6479-1.584,1.0083-3.4561,1.0083-5.1123,0-.936-.0723-1.8721-.5044-2.7363.5762-.3599.6484-1.0801,1.0083-1.5122.2881-3.6001.5039-7.2007.5039-10.8008,0-1.9443-.0718-3.8882-.2881-5.8325-.0718-.7202-.4321-1.9443-.4321-2.5205,0-.792.144-1.584.144-2.376,0-.936-.144-1.8721-.6479-2.6641-4.3921,1.2959-7.7764,3.6724-11.4487,6.3364-1.4404,1.0801-3.3843,2.7363-4.9688,3.4561-.2881.144-.792.2163-1.0801.2163-.936,0-1.7998-.2163-2.6641-.2163-.6479-.6479-1.4399-1.1519-2.3042-1.5117-.144-.5762-.2158-1.2241-.2158-1.8726,0-1.2959.2876-2.52.7197-3.6719,2.3042-.8643,5.1846-1.6562,6.3364-4.0327.2163.144.4321.2163.7202.2163.4321,0,.8643-.144,1.2964-.2163,1.6558-1.0801,3.3843-2.2319,5.2563-3.0239.5762-.2163.5762-.4321.5039-1.0083,2.1602-.6479,4.6807-1.4399,6.3364-3.0244h1.2241c2.8086-2.0879,6.6245-2.3042,9.3608-4.5361.2163-.0723.5044-.144.7202-.144.2881,0,.5762.0718.792.144.936-.5044,1.584-1.2241,2.3042-2.0161,3.0962-.0723,4.6807-1.1523,7.2725-2.5205.5044.144.6484.5044,1.2964.5044,1.9443-1.3682,4.5361-.8643,6.2646-2.2324,3.0239,0,6.0483-.2158,9.0728-.2158,4.3203,0,9.0005.3599,12.6011,2.9521.7197,1.6562,1.728,3.168,3.0239,4.3203.2163.936.4321,1.8721.7925,2.7363-.3604.7197-.5044,1.5122-.5044,2.3042,0,1.6562.5044,3.312.5044,4.8965,0,3.312-1.7285,6.2642-2.3042,9.4326ZM68.8379,14.833c-1.2241-.936-1.5845-2.7363-2.8086-3.5283-.8638-.5039-2.6641-.4321-3.7441-.7197-1.1523-.3604-1.1523-.8643-2.52-.8643-1.1523,0-2.2324.3599-3.3843.3599-.9365,0-1.7285-.5039-2.6646-.5039-1.0801,0-1.8003,1.0083-3.0239.7202-1.0806,1.0078.2158,1.0078-1.8726,1.0078-2.0161,0-4.1763.5039-5.6885,1.8003-.2881-.0723-.5039-.144-.792-.144-1.584,0-2.9521,1.3682-4.7524,1.3682-2.3042,2.3042-6.7686,2.0879-8.3525,5.0405-.0723.792.792.7197.792,1.4399,0,.6479-.3599,1.6562-.3599,2.5923,0,2.1602.6479,4.2485,1.0801,6.3364-.5044.2881-.5044.936-1.0083,1.2241.6479,1.9443,1.0083,3.9604,1.0083,6.0488,0,3.2402-1.0083,6.4082-1.2964,9.6484,0,.6484.5762.6484.5762,1.1523,0,.144,0,.2158-.0723.3599-1.0078,6.3364-2.0879,12.7451-2.7358,19.1538h.5757c2.4482,0,4.3208-1.728,5.6885-3.5283h1.0801c6.6968-5.9048,13.1055-12.0972,18.6499-19.2256.7202,0,.8643-.5762,1.5122-.7202,1.9438-2.7363,4.0322-5.4727,6.5522-7.8486.2163-2.0161,1.9443-2.5923,2.0166-4.7524.5039-.2158,1.0801-.3599,1.5117-.792.144-.936.8643-1.6562.8643-2.5923,0-.2158-.0718-.4321-.144-.6479,3.0962-1.4404,2.9521-6.4805,3.8164-9.3608-.5039-.8643-.5762-2.0161-.5039-3.0244Z"/>
  <path class="b" d="M112.6836,38.7393c-.2881.0718-.5039.3599-.5039.7197-1.0806.3604-2.2324.5044-3.2407,1.0083-1.0801-.0718-2.0879-.144-3.168-.144-2.8081,0-5.6167.2881-8.4248.144-1.3682.7202-2.9521,1.2241-4.3926,1.2241-.5039,0-1.0078-.0718-1.4399-.2158-4.4644,2.3042-11.1611,2.376-14.9053,5.5444-.144,1.2959-.2881,2.5923-.2881,3.8164s.144,2.376.5762,3.5278c.5039.144,1.0801.2881,1.584.2881.4321,0,1.0083-.0718,1.2241-.5757,1.3682-.144,2.8081-.0723,4.1763-.0723,1.4404,0,2.8086-.0718,4.1045-.4321,3.0244-.792,5.6167-.0718,8.8569-1.5117,1.2241.4316,2.52.3599,3.7441.5039.6479.4321,1.1523,1.0078,1.1523,1.7998,0,1.2964-1.2964,2.6646-1.8726,3.7446h-.792c-4.5361,0-8.2808,3.0244-12.8169,3.0244-.3604,0-.3604.5757-.5044.792-.3599-.0723-.7197-.0723-1.0801-.0723-2.0879,0-4.0322.7202-6.1201.7202-.5762,0-1.0801-.0723-1.6562-.144-.4321.7202-1.3682.792-2.0161,1.2959-.5044,1.8003.144,5.1846-1.0083,6.5527.0723.5039,1.0083-.0718,1.0083.7202,0,.8638-.2163,1.7998-.2163,2.7363,0,3.6001,1.4404,8.9287,5.9048,8.9287,1.4399,0,2.8799-.5762,3.6724-1.8003l.3599-.0718c.3599,0,.7202.1436,1.0801.1436,1.0801,0,3.8164-3.3843,5.8325-4.104.6479-1.2241,1.1519-2.7363,2.3042-3.5283v-2.0161c.936-1.0083,2.1602-1.7285,2.7363-3.0244.4321.144.936.2881,1.3682.2881.5039,0,1.0078-.144,1.4399-.2881.7202,1.0801,1.0801,2.376,1.728,3.5283-1.6558,3.3843-4.6802,9.937-7.5605,12.313-.2158.2163-.5762.3599-.8643.5039-1.0078.6484-1.9438,1.3682-2.6641,2.3042-2.7363.7925-5.1123,2.3765-7.5605,3.7446-.5762-.144-1.2241-.2163-1.8003-.2163-1.1519,0-2.3042.2163-3.5283.2163-.3599-.4321-1.4399-.3604-1.2241-1.2241-6.3364-.4321-7.4888-6.7686-9.3608-11.5933v-.2158c0-.4321.5762-.4321.5762-.8643,0-.0718,0-.144-.0718-.2158-.2881-.936-.5044-1.6562-.5044-2.6641,0-1.4404.2881-2.9526.2881-4.3926,0-.6479-.0718-1.3682-.2881-2.0161.8643-.936.6484-3.2402,1.0083-4.5366-.3599-1.0078-.7202-1.728-.7202-2.8081v-.5039c.936-1.5845,1.5122-3.3125,2.2324-5.0405v-.2163c0-2.7358-.2881-5.4722-.2881-8.2085,0-.8643,0-1.8003.0718-2.6641.7202-.3604,1.0083-1.1523,1.7285-1.5122h2.3042c.2876-.4321.6479-.936.7197-1.5122,1.0801-.2881,2.0161-.8643,2.8804-1.3682,2.6641-1.584,4.1045-2.376,7.2725-2.6641.6484-.0723.7925-.3604,1.2241-.7202,1.1523.144,2.2324.3599,3.3843.3599s2.1602-.2158,3.1685-.6479c2.8081,0,5.5444-.144,8.3525-.144,2.4482,0,4.8965.144,7.2729.6479.4321-.1436.936-.2158,1.3682-.2158,1.1519,0,2.3042.3599,3.4561.2158.0723.9365.7202,1.5845.7202,2.5205v.2881Z"/>
  <path class="b" d="M151.9233,81.1509c-.4321,0-.8643-.0723-1.2959-.0723-.5044,0-.2881.6484-.7202.7925-.5039-.144-1.0083-.2163-1.4399-.2163-.5762,0-1.2241.0723-1.8003.0723-1.4404,0-1.1523-.7202-2.0884-1.1523-.6479-.2881-.936.2163-1.8003-.5039-2.1602-1.8003-3.0239-5.7607-5.2563-8.0649h-.5757c-.7925,0-1.3682.2881-1.7285,1.0083-.5039-.2881-.936-.7202-1.5122-1.0083-2.1602.6484-4.5361,1.1523-6.8403,1.1523-.6479,0-1.2964,0-1.9443-.144-.8638.3599-1.584,1.0801-2.52,1.0801-.3599,0-.7202-.144-1.0083-.2881-.5039,0-.144.7202-.792.7202h-.6479c-1.2964,0-2.5923.144-3.8882.144-.9365,0-1.8726-.144-2.7363-.3604-.2163.144-.5039.2163-.792.2163-.7202.4321-.5044,1.728-1.7285,1.5122-.144,1.1519-1.2959,1.5117-1.2959,2.8081-2.0161,1.0801-2.4482,3.7441-4.5366,4.7524-.2876.3599-.2876.8638-.2158,1.2959-1.0801.8643-2.6641,1.6562-4.0322,1.6562-1.4404,0-2.3042-.8643-2.8086-2.1602.0723-1.8721.2881-4.5366,2.3042-5.3286,0-.792-.8638-.8638-.792-1.728,5.1128-2.4482,6.8408-8.2808,10.873-11.8809v-1.5122c1.3682-1.3682,2.3042-3.0962,2.7363-5.0405,1.0078-.2158,1.2959-1.0801,1.2959-2.0161.4321,0,.4321-.7202,1.0083-.5039,1.6562-4.4644,4.5361-7.3447,5.2563-12.3853,1.2241-.0718,1.1523-1.584,1.2964-2.52,2.7358-2.5923,2.376-7.561,5.04-10.585v-.2163c0-.4321-.5757-.3599-.5757-.8638,0,0,.0718-.0723.0718-.144,1.0801-.5044,1.3682-1.8721,2.52-2.3042,1.9443,1.5122,3.0967,1.6562,5.5449,1.7998,1.2241,1.3682,1.0801,3.3125,1.5117,5.0405.7202,2.9521,1.8003,5.7607,2.2324,8.7847.2881,1.8003,1.2959,3.3125,1.5122,5.0405.2158,1.2964-.2163,3.0962.2881,4.3203l.5039,1.1523c.4321,1.0801.792,2.1602,1.0801,3.312.7202,2.8086,1.1519,6.2646,2.4482,8.9292.936,1.7998,4.3926,1.3677,6.0483,1.3677.5044,0,1.0083,0,1.5122.144.144.2881.2881.6484.2881,1.0083,0,1.1519-1.0801,1.584-1.0801,2.4482,0,.2881.144.5762.2881.792-.2881-.0718-.5762-.0718-.8643-.0718-1.0078,0-2.1602.2158-3.168.5757.7197,1.5845,2.0879,2.5923,3.5283,3.5283.4316-.3599.936-.5757,1.4399-.5757,1.1519,0,2.0884.7197,3.1685.7197.3599,0,.6479,0,.936-.144.7197.792,1.0801,1.7285,1.7998,2.5205-.5039,2.5923-3.96,3.0962-6.0483,3.0962ZM135.002,63.7251c-.3599-1.2959-.4321-2.8799-.7202-4.248-.5762-3.1685-1.3682-6.4087-2.5923-9.4331.144-.2158.2881-.5039.2881-.792v-.2158c-1.6562-1.8721-1.1519-5.6885-3.312-7.0566-.144.2881-.2163.5762-.2163.936,0,.6479.2163,1.2241.2163,1.8721-.936.4321-1.1523,1.6562-2.0161,2.2324-1.5845,5.9766-6.0488,10.5127-7.7769,16.4175-1.1523.792-1.5122,2.2319-1.5122,3.5283,1.728,1.0078,4.3203-.2163,5.7607,1.2959,1.1519-.3599,2.8799-.3599,3.8159-1.0083.936.3604,1.9443.5044,3.0244.5044s2.2324-.2163,3.2402-.5044c.792.2163,1.0801.7925,2.0161.7202.4321-.3599.4321-.8643.792-1.2241-.1436-1.584-.7197-1.9443-1.0078-3.0244Z"/>
  <path class="b" d="M204.2676,82.5908c-1.0083-.2881-2.0166-.3599-2.9526-.3599-1.1519,0-2.6641.144-3.3843,1.1519-.4316-.144-.792-.144-1.2241-.144-1.4399,0-2.8799.3604-4.3203.3604-.7197,0-1.4399-.0723-2.0161-.5039-.4321.1436-.936.2158-1.3682.2158-2.376,0-4.3921-1.728-6.6963-2.2324l-.5044-1.0078c-2.9521-.5039-4.9683-2.8804-7.5605-3.5283-.4321-.3599-.8638-.6479-1.0078-1.2241-2.4482-.5039-3.6724-2.3765-6.8408-2.5205-.5762-.792-1.728-1.728-2.7363-1.728-.2881,0-.5762.0723-.792.2163v.3599c0,1.0801.7202,2.4482,1.8003,2.8804-.0723.144-.0723.2881-.0723.4321,0,.5757.2163,1.1519.792,1.3677-.6479,2.0166-2.376,4.7524-4.752,4.7524-.7202.3604-.3604,1.5845-1.0083,2.0166-.2881.0718-.5039.0718-.7202.0718-.936,0-1.584-.2881-2.3042-.792v-.2881c0-2.1602-2.0161-2.376-2.0161-4.5366-.2881.2163-.7202.2163-.792.5044-.0718-.3604-.144-.792-.144-1.2241,0-1.8003.936-3.5283.936-5.3286v-1.0801c0-2.0884-.144-4.1763-.144-6.2646,0-1.728.0723-3.5283.3604-5.2563.936-6.1206,1.4399-12.3853,3.0239-18.4336-.0718-.4321-.2881-.8643-.2881-1.3682,0-.0718,0-.2881.0723-.3599.3599-1.8721,1.728-3.3125,3.8164-3.3125h.2158c1.0801.5039,1.4399,1.728,2.7363,1.5122,0,.2158-.0723.4321-.0723.5762,0,1.0801.6484,1.3682,1.3682,1.9438-.8638,1.8726-.2881,5.1128-1.5117,6.5527.3599.936.4316,1.9443.4316,2.8804,0,1.0801-.144,2.1602-.144,3.2402,0,.5039.0723,1.0083.2163,1.4399.936,0,1.584-.5039,1.728-1.5117,4.8965-1.2241,7.3447-4.9688,11.5933-7.0566v-.144c0-.4321.4316-.4321.2876-1.0801,2.8086-.936,3.7446-3.5283,6.0488-5.0405.792-1.6562,1.2959-3.5283,2.2319-5.0405,1.8003,0,4.1763.144,5.6167,1.2241-.0723.3599.144.6479.5039.792-.936,3.8882-3.0244,7.0566-6.3364,9.2891-.8643,2.0161-3.1685,2.8081-4.0322,4.8242-2.2324.2881-3.0244,2.2324-5.0405,2.7363-1.3682,1.9438-4.1763,2.3042-5.0405,4.5361h-1.8003c-1.0801,1.7285-2.8081,2.8804-4.5361,3.8164.6479,2.3042,3.2402,2.5923,4.5361,4.3203,3.8887,1.4404,7.6328,3.3843,10.873,6.0488.144-.0723.2158-.0723.3599-.0723.7202,0,1.0801.6479,1.8726.5762.7197,1.8721,2.9521.792,3.5283,2.7363,1.4399.0718,2.5918.5039,3.5283,1.5122h.8638c2.9521,0,5.7607.8638,8.6406.8638,1.4404,0,2.8804-.2158,4.1768-.8638.5039.2876,1.0801.6479,1.728.6479.3599,0,.7202-.0723,1.0078-.144.0723,1.0801,1.0083,1.9443,1.0083,3.0244,0,1.5117-3.0962,1.728-3.7441,3.0239Z"/>
  <path class="b" d="M229.9702,78.5586c-1.3677.6479-2.0879,2.0884-2.8081,3.3125-6.1206,4.0322-13.4653,6.7686-20.8818,6.7686-.936,0-1.4399-1.9443-2.5923-1.9443-.2881,0-.5039.0718-.7197.2158,0-.2158.0718-.3599.0718-.5039,0-1.1519-.4321-2.3042-.4321-3.4561,0-.5762.0723-1.1523.3604-1.5845h.792c.936,0,1.8721-.2158,2.8081-.2158.5039,0,1.0083.144,1.4399.4321,5.1128-.2163,9.6489-2.3765,14.4014-4.0327.7202-1.0078.6479-2.376,1.2241-3.5283-2.376-2.0161-4.8242-3.3843-8.0645-3.0239-1.9443-1.2241-4.1768-1.0801-6.4087-1.4404-.5762-.0718-1.2241-.2876-1.8721-.2876-.5044,0-.936.2158-.8643.6479-.3599-.6479-1.3682-.5762-1.9443-1.1523-3.0239-.144-4.9683-1.2241-7.6323-2.3042-.7202-.2881-1.5122-.4321-2.1602-.7197-3.3125-1.6562-3.8164-6.1206-4.3203-9.3608.8638-1.5122,1.584-3.0967,2.0161-4.8247.5757-.2881,1.1519-.4321,1.7998-.7197-.0718-.144-.0718-.2163-.0718-.3604,0-.5039.4321-.936.2881-1.4399,2.0879-1.8003,4.1045-3.8164,5.5444-6.2646,2.7363-.8643,3.0962-4.1763,6.3364-4.5361.7202-1.4404,2.7363-1.4404,3.2402-3.0244,2.9521-.0723,4.8965-2.6646,7.9209-2.6646.3599,0,.792.0723,1.1519.144,1.4404,1.2241.6484,3.8887,1.2964,5.5449-.8643,1.584-1.6562,3.3843-3.3125,4.248h-.144c-.6479.0723-1.1519-.5039-1.8721-.5039-.936,0-.792,1.0801-2.0161.792-.5039.2158-.8643.6479-.7202,1.2241-3.5283.2881-4.5361,4.3926-7.3447,4.5366-1.5117,2.8081-4.248,4.6084-5.7603,7.3442.2881.7925.3599,1.6562.5039,2.5205.8643,1.1519,2.0884,1.9438,3.2402,2.7363h.2163c1.7998,0,3.3843,1.0801,5.1123,1.0801.4321,0,.8643-.0723,1.2241-.2881,2.376.5757,4.8242.936,7.2007,1.1519,1.2241.144,2.52.0723,3.6724.3604,1.0801.2876,2.0879.7197,3.0962,1.1519,4.3203,1.8721,7.9927,4.4644,7.9927,9.7207,0,1.5845-1.2241,2.5205-1.0083,4.2485Z"/>
  <path class="b" d="M303.6973,81.1509c-.4321,0-.8643-.0723-1.2959-.0723-.5044,0-.2881.6484-.7202.7925-.5039-.144-1.0083-.2163-1.4399-.2163-.5762,0-1.2241.0723-1.8003.0723-1.4404,0-1.1523-.7202-2.0884-1.1523-.6479-.2881-.936.2163-1.7998-.5039-2.1606-1.8003-3.0244-5.7607-5.2568-8.0649h-.5757c-.7925,0-1.3682.2881-1.7285,1.0083-.5039-.2881-.936-.7202-1.5122-1.0083-2.1602.6484-4.5361,1.1523-6.8403,1.1523-.6479,0-1.2964,0-1.9443-.144-.8638.3599-1.584,1.0801-2.52,1.0801-.3604,0-.7202-.144-1.0083-.2881-.5039,0-.144.7202-.792.7202h-.6479c-1.2964,0-2.5923.144-3.8882.144-.936,0-1.8726-.144-2.7363-.3604-.2163.144-.5044.2163-.792.2163-.7202.4321-.5044,1.728-1.7285,1.5122-.144,1.1519-1.2959,1.5117-1.2959,2.8081-2.0161,1.0801-2.4482,3.7441-4.5366,4.7524-.2876.3599-.2876.8638-.2158,1.2959-1.0801.8643-2.6641,1.6562-4.0322,1.6562-1.4404,0-2.3042-.8643-2.8086-2.1602.0723-1.8721.2881-4.5366,2.3042-5.3286,0-.792-.8638-.8638-.792-1.728,5.1128-2.4482,6.8408-8.2808,10.873-11.8809v-1.5122c1.3682-1.3682,2.3042-3.0962,2.7363-5.0405,1.0078-.2158,1.2959-1.0801,1.2959-2.0161.4321,0,.4321-.7202,1.0083-.5039,1.6562-4.4644,4.5361-7.3447,5.2563-12.3853,1.2241-.0718,1.1523-1.584,1.2964-2.52,2.7358-2.5923,2.376-7.561,5.04-10.585v-.2163c0-.4321-.5757-.3599-.5757-.8638,0,0,.0718-.0723.0718-.144,1.0801-.5044,1.3682-1.8721,2.5205-2.3042,1.9438,1.5122,3.0962,1.6562,5.5444,1.7998,1.2241,1.3682,1.0801,3.3125,1.5117,5.0405.7202,2.9521,1.8003,5.7607,2.2324,8.7847.2881,1.8003,1.2959,3.3125,1.5122,5.0405.2158,1.2964-.2163,3.0962.2881,4.3203l.5039,1.1523c.4321,1.0801.792,2.1602,1.0801,3.312.7202,2.8086,1.1523,6.2646,2.4482,8.9292.936,1.7998,4.3926,1.3677,6.0483,1.3677.5044,0,1.0083,0,1.5122.144.144.2881.2881.6484.2881,1.0083,0,1.1519-1.0801,1.584-1.0801,2.4482,0,.2881.144.5762.2881.792-.2881-.0718-.5762-.0718-.8643-.0718-1.0078,0-2.1602.2158-3.168.5757.7197,1.5845,2.0879,2.5923,3.5283,3.5283.4316-.3599.936-.5757,1.4399-.5757,1.1519,0,2.0884.7197,3.1685.7197.3599,0,.6479,0,.936-.144.7197.792,1.0801,1.7285,1.7998,2.5205-.5039,2.5923-3.96,3.0962-6.0483,3.0962ZM286.7759,63.7251c-.3599-1.2959-.4321-2.8799-.7202-4.248-.5762-3.1685-1.3682-6.4087-2.5923-9.4331.144-.2158.2881-.5039.2881-.792v-.2158c-1.6562-1.8721-1.1519-5.6885-3.312-7.0566-.144.2881-.2163.5762-.2163.936,0,.6479.2163,1.2241.2163,1.8721-.936.4321-1.1523,1.6562-2.0166,2.2324-1.584,5.9766-6.0483,10.5127-7.7764,16.4175-1.1523.792-1.5122,2.2319-1.5122,3.5283,1.728,1.0078,4.3203-.2163,5.7607,1.2959,1.1518-.3599,2.8799-.3599,3.8159-1.0083.936.3604,1.9443.5044,3.0244.5044s2.2324-.2163,3.2402-.5044c.792.2163,1.0801.7925,2.0161.7202.4321-.3599.4321-.8643.792-1.2241-.144-1.584-.7197-1.9443-1.0078-3.0244Z"/>
  <path class="b" d="M351.3608,39.9634c-1.8003.2158-1.8003,2.2319-2.8086,3.312.7202,3.3843.6484,6.9126,1.0083,10.2969.4321,4.2485,1.8003,8.4248,1.8003,12.7451,0,1.2241-.0723,2.3765-.0723,3.5283,0,.792.0723,1.5845.0723,2.3765,0,2.7363-.936,5.4004-1.2964,8.1367-2.1602,2.0879-2.8799,5.0405-6.2642,5.5444-.2881.936-1.2964,1.2241-1.8003,2.0161h-.144c-4.7524,0-6.2646-2.9521-10.2251-4.0322-2.5923-2.1602-4.5361-5.0405-7.2725-7.0566-.5762-1.8721-1.8721-2.8804-2.8804-4.3926-.4321-.6479-.6479-1.2241-.936-1.9438-.2881-.6484-1.0078-.8643-1.5122-1.2241-.7197-2.8804-2.1602-5.3286-4.0322-7.561-1.2241,2.0161-1.0801,4.8247-2.52,6.7686v.2163c0,.4321.5757.4321.5757.8638,0,.0723-.0718.144-.0718.2163-.5039.3599-.5039,1.1519-1.2241,1.2241.0718.4321.0718.936.0718,1.3682,0,2.7363-.936,5.4004-.936,8.2085,0,.5762,0,1.2241.0723,1.8003.144.5762.7197,1.2241.7197,1.6562,0,.3599-.2158.6479-.4316.8638,1.2959,1.0083,3.5283,2.3042,3.5283,4.1763,0,3.1685-4.8247,2.0884-6.8408,3.8887h-.2158c-1.1523,0-1.4404-1.0083-2.5205-1.0083-1.7998-2.8804-2.3042-6.7686-2.3042-10.0806,0-8.1367,3.0962-15.9136,5.0405-23.7622,0-.0723.0723-.144.0723-.2163,0-.3599-.3604-.5039-.3604-.8638,0-.0723,0-.144.0723-.144.2881-.936.6479-1.8003.8638-2.7363,1.1523-5.4004.5044-11.0171,1.3682-16.4175.792-.7197,1.3682-1.6562,2.3042-2.3042,1.9443.0723,3.8164.5039,5.5444,1.5122,1.0801,4.0322,1.1523,8.1367,2.2324,12.0972v.2158c0,.5039.7202.2163,1.0078.5762-.2158.2881-.2158.7202-.2158,1.0801v1.1523c.2158.7197.3599,1.7998,1.2241,2.0161,1.0083,5.9766,3.8882,9.8647,6.8403,14.9053,4.7524,3.6001,5.8325,9.7925,12.8892,10.585.8643-.8643.7202-2.7363,2.0166-3.2407.1436-2.5918.2876-5.4722,1.2241-7.8486-.2881-.5039-.3604-1.0078-.3604-1.584,0-.8643.2163-1.728.2163-2.5923,0-.792-.144-1.5122-.5762-2.1602,0-.6479.0718-1.4399.5039-2.0161-.7202-1.9443-1.2241-4.0322-1.2241-6.1206,0-.6479.0723-1.2959.2163-1.9438-1.2241-2.8086-.2881-8.1367-2.3042-10.0811.2876-.4321.4316-1.0083.4316-1.5122,0-1.8003-.8638-3.5283-.8638-5.3286,0-.7197.144-1.3682.4321-1.9438,2.0161.0718,4.0322.5039,6.0483.5039,1.0078,1.584,3.3843,1.584,4.3203,3.2402-.2158,1.1523-.6479,1.8003-.5039,3.0244Z"/>
  <path class="b" d="M398.6641,50.2603c0,.2881.2881.4321.2881.792v.2881c-2.3042,10.8008-8.4966,15.4814-16.4893,22.106-1.1523.936-2.3042,1.8721-3.3843,2.8799l-1.5845,1.5122c-.0718.0723-1.3682.5762-1.584.6484-1.3682.5757-2.8804,1.2241-3.9604,2.376-1.8003,0-3.0244.6479-4.5361,1.5122-1.0083,0-1.2241-.8643-2.5205-.5039-1.1519-1.8726-2.3042-3.2407-4.5361-3.5283-.2881-1.5845-1.4404-2.3765-2.5205-3.3125-.3599-1.2241-.2881-3.2402-2.0161-3.2402-.0718-.5762.7202-.2881.7202-.792,0-.5762-.2881-1.1523-.2881-1.728,0-.4321.144-.8643.2881-1.2964-.144-1.2959-.2163-2.5923-.2163-3.8882,0-5.0405,1.0801-9.937,1.0801-14.9775,0-2.2319-.2158-4.4644-.8638-6.6245-2.0884.4321-4.3926.936-6.2646,2.0161-1.0083-.6479-2.2319-.6479-3.3125-1.0078-.2876-.5762-.5039-1.2964-.5039-2.0161,0-1.2964.5762-2.5205,1.0083-3.7446,2.3042-.5039,4.4644-1.5122,6.6963-2.3042.7202-.2158,2.1602-.5039,2.6646-.7197.6479-.2881.792-1.2241,1.2241-1.8003h1.1519c.5762,0,1.2964,0,1.8721.2881,3.3843-.8643,6.7686-.936,10.2251-1.3682.792-.0723,3.4561-.6479,3.9604-.6479.144,0,.2158,0,.2158.2158h1.2241c3.9604,0,7.8486,1.3682,11.665,2.3042,1.5122,1.2959,3.0962,2.6641,5.0405,3.5283.4321,1.5122,1.584,2.3042,2.7363,3.2402.936,2.3765,3.5283,5.6167,3.5283,8.0649,0,.8638-1.0083.8638-1.0083,1.728ZM389.8794,42.9873c-1.6562-.4316-3.7446-.936-4.3203-2.7358-.144.0718-.2881.0718-.5044.0718-.8638,0-1.4399-.936-2.2319-1.0801-1.4399-.3599-5.6885-.6479-7.2007-.6479-.792,0-1.584.0718-2.376.144-.7925,0-.7202.3599-1.2964.5039-.5039-.144-1.0078-.144-1.584-.144-2.0161,0-3.9604.6479-5.7607,1.6562v.2881c0,.792.936.5762,1.0083,1.2241-.4321,0-.7202-.0723-.7202.5039,0,.936.2881,2.1602.2881,3.2402,0,.8643-.0718,2.2324-.792,2.8081.5039.4321.6479,1.0801.6479,1.7285,0,.936-.3599,2.0161-.936,2.8081-.2158,3.9604-1.0083,7.9927-1.0083,11.9531,0,1.9438.2163,3.8882.7925,5.6885,1.0078,1.0078,2.2319,1.5122,3.5283,2.0161v.2158c0,.2881-.5762.5762-.5762,1.0083,0,.144.2158.2881.2881.2881,3.8882-1.1523,7.3447-2.5205,10.3687-5.2563.144-.144.2163-.2163.4321-.2163s.5762.144.8643.2163l-.0723-.2881c0-1.0801,1.5845-1.8726,2.0884-2.7363.7197-.144.8638-1.0083,1.728-1.0083.144-1.0801,1.2959-1.2959,1.5122-2.3042,3.7442-2.1602,5.6885-6.1924,8.0645-9.5767v-.2881c0-1.4399.7202-2.2319,1.0083-3.5283-1.0801-2.1602-1.8003-4.6084-3.2402-6.5527Z"/>
  <path class="b" d="M474.6948,17.1372c-2.2319,12.9614-2.4482,26.2822-5.8325,39.0996l.0723.8638c.1436,1.8721-.8643,3.4565-.7925,5.4004-1.2959,3.3125-2.376,7.561-2.52,11.0894-1.8003,3.2402-2.0884,7.8486-4.5366,10.585-.5757,4.3203-3.6719,7.4883-4.5361,11.5928-1.584,2.3765-3.2402,4.6084-4.5366,7.1284-2.4482,1.0801-3.168,3.0967-6.2642,3.0967-.3604,0-.7202-.0723-1.0801-.0723-1.2964-.936-2.5923-2.0161-4.0327-2.8081-.0718-1.1523-.6479-1.2964-.2158-2.5205-.8643-.5757-2.3042-2.376-2.3042-3.3843,0-.3599.2158-.6479.5039-.6479-.2158-.936-.792-1.8721-.792-2.8081,0-.3599.144-.7202.2881-1.0083-1.0083-2.4482-1.9443-5.04-2.2324-7.7764-1.8721-2.4482-1.7998-6.7686-2.376-9.7212-.0723-.5757-.6479-2.3042-.6479-2.6641,0-.5762.3599-.7202.5039-1.2241-2.3042-9.0005-2.2324-18.4336-5.0405-27.2905v-.6479c0-1.5122-.5762-2.6641-1.8003-3.6001.2163-.5762.3604-1.1523.3604-1.728,0-2.3765-1.6562-4.4644-1.0801-6.8408-1.0083-1.0801-1.4404-2.5923-2.5205-3.5283l-.0718-.3599c0-.5044.3599-.8643.3599-1.2964,0-1.2959-1.584-1.728-1.584-2.6641,0-2.2324,3.5283-2.1602,4.0322-4.2485.792.144,1.584.144,2.3042.5044q.0723-.0723.0723-.2163c0-.2881-1.2964-.5039-1.5845-.792.2881-.0718.5762-.144.8643-.144,1.8721,0,3.6001,1.1523,5.1846,2.1602.144.8643-.144,1.728.5039,2.5205-.0718.4316,0,.8638,0,1.2241,0,.3599-.144.792-.5039.792,1.4399,2.376.5039,6.6963,2.52,9.0728-.2158.5757-.2158,1.1519-.2158,1.7998,0,3.0244,1.1519,5.8325,1.1519,8.8569,0,.8643-.144,1.6562-.4321,2.4482,0,.8643.7925,1.2241,1.0083,2.0161-.2158.5039-.3599,1.0801-.3599,1.6562,0,2.0884,1.2241,3.9604,1.2241,6.0483,0,.5762-.144,1.1523-.3604,1.6562.792.8643.4321,2.3765,1.2241,3.2402-.0718.4321-.0718,1.0083-.5039,1.2964.4321.5757.2158,2.0161,1.0083,2.2319-.144.4321-.2881.792-.2881,1.2241,0,2.0161,1.5117,3.2402.792,5.6167.8638,1.0078.5762,3.312,2.0161,3.7441.144.5762-.7202.2881-.7202.792,0,.7202.7202,2.0161,1.2241,2.5205-.0718.3599-.0718.792-.0718,1.2241,0,2.52,1.7998,5.5444,1.0801,7.8486.6479,1.3682,1.0801,3.0239,2.3042,4.0322,0,1.584.7197,3.0962,1.728,4.3203,2.0161,0,1.2959-2.8804,3.0244-3.0962.2158-1.8003,1.9438-2.3042,1.7998-4.5366l.7202-.2158c.4321-2.52,1.584-4.3926,2.8081-6.5527v-.3599c0-.8643.3604-1.4399.2163-2.4482,1.2959-.4321.936-2.376,2.0161-3.0244v-.5757c-.0723-.7925.3599-1.5845,0-2.4482,1.4399-.6484,1.4399-2.7363,1.5122-4.0327,1.3682-1.728.792-4.9683,2.3042-6.5522-.144-.4321-.144-.8643-.144-1.2964,0-1.728.6479-3.0962,1.1519-4.7524,1.2241-4.248,1.5122-8.7847,2.4482-13.105.2163-1.0078,1.2964-4.4644,1.2964-5.0405,0-.7197-.5044-.8638-.5044-1.5122,1.0801-1.6558.7925-5.6162.7925-7.5605,0-1.0801.7197-2.8804.8638-4.1045.4321-3.168.5039-6.3364.6479-9.5044.6484-.3604.936-1.0083.936-1.6562,0-1.0083-.3599-1.9443-.3599-2.9521,0-.5044.0723-1.0801.4321-1.4404-.0723-.5762-.0723-1.3682-.5039-1.8003.2158-.5757.3599-1.2236.3599-1.7998,0-1.1523-.3599-2.3042-.3599-3.4565s.4316-2.0161,1.5122-2.52h.936c.936,0,1.9438-.0723,2.8799-.5039,2.5923,2.6641,5.5444,6.2642,4.7524,10.2969.3604.7197.2881,1.584.792,2.3042-1.2959,1.7998-2.7358,3.6001-4.8242,4.5361ZM465.1182,50.9082c-.3604-.0718-.4321-.4321-.792-.5039v.792h.5039l.2881-.2881Z"/>
  <path class="b" d="M522.3574,81.1509c-.4321,0-.8643-.0723-1.2959-.0723-.5044,0-.2881.6484-.7202.7925-.5039-.144-1.0083-.2163-1.4399-.2163-.5762,0-1.2241.0723-1.8003.0723-1.4404,0-1.1523-.7202-2.0884-1.1523-.6479-.2881-.936.2163-1.7998-.5039-2.1606-1.8003-3.0244-5.7607-5.2568-8.0649h-.5757c-.7925,0-1.3682.2881-1.7285,1.0083-.5039-.2881-.936-.7202-1.5122-1.0083-2.1602.6484-4.5361,1.1523-6.8403,1.1523-.6479,0-1.2964,0-1.9443-.144-.8638.3599-1.584,1.0801-2.52,1.0801-.3604,0-.7202-.144-1.0083-.2881-.5039,0-.144.7202-.792.7202h-.6479c-1.2964,0-2.5923.144-3.8882.144-.936,0-1.8726-.144-2.7363-.3604-.2163.144-.5044.2163-.792.2163-.7202.4321-.5044,1.728-1.7285,1.5122-.144,1.1519-1.2959,1.5117-1.2959,2.8081-2.0161,1.0801-2.4482,3.7441-4.5366,4.7524-.2876.3599-.2876.8638-.2158,1.2959-1.0801.8643-2.6641,1.6562-4.0322,1.6562-1.4404,0-2.3042-.8643-2.8086-2.1602.0723-1.8721.2881-4.5366,2.3042-5.3286,0-.792-.8638-.8638-.792-1.728,5.1128-2.4482,6.8408-8.2808,10.873-11.8809v-1.5122c1.3682-1.3682,2.3042-3.0962,2.7363-5.0405,1.0078-.2158,1.2959-1.0801,1.2959-2.0161.4321,0,.4321-.7202,1.0083-.5039,1.6562-4.4644,4.5361-7.3447,5.2563-12.3853,1.2241-.0718,1.1523-1.584,1.2964-2.52,2.7358-2.5923,2.376-7.561,5.04-10.585v-.2163c0-.4321-.5757-.3599-.5757-.8638,0,0,.0718-.0723.0718-.144,1.0801-.5044,1.3682-1.8721,2.5205-2.3042,1.9438,1.5122,3.0962,1.6562,5.5444,1.7998,1.2241,1.3682,1.0801,3.3125,1.5117,5.0405.7202,2.9521,1.8003,5.7607,2.2324,8.7847.2881,1.8003,1.2959,3.3125,1.5122,5.0405.2158,1.2964-.2163,3.0962.2881,4.3203l.5039,1.1523c.4321,1.0801.792,2.1602,1.0801,3.312.7202,2.8086,1.1523,6.2646,2.4482,8.9292.936,1.7998,4.3926,1.3677,6.0483,1.3677.5044,0,1.0083,0,1.5122.144.144.2881.2881.6484.2881,1.0083,0,1.1519-1.0801,1.584-1.0801,2.4482,0,.2881.144.5762.2881.792-.2881-.0718-.5762-.0718-.8643-.0718-1.0078,0-2.1602.2158-3.168.5757.7197,1.5845,2.0879,2.5923,3.5283,3.5283.4316-.3599.936-.5757,1.4399-.5757,1.1519,0,2.0884.7197,3.1685.7197.3599,0,.6479,0,.936-.144.7197.792,1.0801,1.7285,1.7998,2.5205-.5039,2.5923-3.96,3.0962-6.0483,3.0962ZM505.436,63.7251c-.3599-1.2959-.4321-2.8799-.7202-4.248-.5762-3.1685-1.3682-6.4087-2.5923-9.4331.144-.2158.2881-.5039.2881-.792v-.2158c-1.6562-1.8721-1.1519-5.6885-3.312-7.0566-.144.2881-.2163.5762-.2163.936,0,.6479.2163,1.2241.2163,1.8721-.936.4321-1.1523,1.6562-2.0166,2.2324-1.584,5.9766-6.0483,10.5127-7.7764,16.4175-1.1523.792-1.5122,2.2319-1.5122,3.5283,1.728,1.0078,4.3203-.2163,5.7607,1.2959,1.1519-.3599,2.8799-.3599,3.8159-1.0083.936.3604,1.9443.5044,3.0244.5044s2.2324-.2163,3.2402-.5044c.792.2163,1.0801.7925,2.0161.7202.4321-.3599.4321-.8643.792-1.2241-.144-1.584-.7197-1.9443-1.0078-3.0244Z"/>
  <path class="b" d="M561.4521,67.2534c0,.2163.1436.5044.2881.7202-1.2959,0-1.5117,1.0801-2.0166,2.0161-1.584-.0718-1.6562,0-2.3037,1.2964-3.6006.792-6.3369,3.4561-9.793,4.5361-.4321.7202-1.0801,1.2964-1.8003,1.728h-.2158c-.4321.0723-.792-.2876-1.2241-.2876-.0723,0-.2163,0-.2881.0718-1.4399,1.0083-3.0244,1.3682-4.6802,1.3682-.9365,0-1.8003-.144-2.6646-.144-.6479,0-.0718.792-1.1519.792s-2.0161-.4321-3.1685-.2881c-2.0884-1.1519-3.2402-2.0161-4.2485-4.248-.5039-1.0801-1.4399-1.9443-1.7998-3.0244-.2163-.792-.8643-4.5366-.8643-5.2563,0-1.1523.2158-2.2324.3599-3.3125.5762-3.5283.5044-7.2725,1.8003-10.6567-.2158-1.0083-.144-2.0161-.144-3.0244,0-.792-.0718-1.5122-.3599-2.2319.3599-.5762.5762-1.2964.5762-2.0166,0-.792-.2881-1.3677-1.0801-1.5117v-.2163c0-.936-.3604-1.728-1.0083-2.3042,0-3.2402,1.8003-4.6084,4.5366-5.8325.1436-.2158.2876-.4321.2158-.7197.5762.2158,1.1519.4316,1.728.4316.4321,0,.936-.0718,1.2964-.2158.2876,1.1519,1.728,1.1519,2.52,1.5122v.8638c0,1.5122.3599,2.8086,1.0083,4.1768-.2881.792-.3604,1.584-.3604,2.376,0,1.1523.144,2.2324.144,3.3125,0,1.1519-.144,2.3042-1.0078,3.168-.144,2.3765,0,6.6245-1.5122,8.5688-.0723,1.4399-.144,2.8804-.144,4.2485,0,2.0161.2158,5.3281,1.1519,7.1284.4321.792,2.1602,1.1523,3.0244,1.1523,1.0083,0,2.2324-.2881,2.7363-1.1523.5762.0723.5762.7202,1.0801,1.0083,5.3286-2.2324,10.729-4.1768,15.8413-6.8408.4316.2163.792.2881,1.2236.2881.9365,0,1.873-.2881,2.8086-.2881h.5039c.0723.2163.1445.4321.1445.6479,0,1.0801-1.1523,1.3682-1.1523,2.1602Z"/>
  <path class="b" d="M594.2119,67.2534c0,.2163.1445.5044.2881.7202-1.2959,0-1.5117,1.0801-2.0156,2.0161-1.584-.0718-1.6562,0-2.3047,1.2964-3.5996.792-6.3359,3.4561-9.793,4.5361-.4316.7202-1.0801,1.2964-1.7998,1.728h-.2158c-.4316.0723-.792-.2876-1.2246-.2876-.0713,0-.2158,0-.2871.0718-1.4404,1.0083-3.0244,1.3682-4.6807,1.3682-.9365,0-1.8008-.144-2.6641-.144-.6484,0-.0723.792-1.1523.792s-2.0166-.4321-3.168-.2881c-2.0889-1.1519-3.2412-2.0161-4.249-4.248-.5039-1.0801-1.4395-1.9443-1.7998-3.0244-.2158-.792-.8643-4.5366-.8643-5.2563,0-1.1523.2158-2.2324.3604-3.3125.5762-3.5283.5039-7.2725,1.7998-10.6567-.2158-1.0083-.1436-2.0161-.1436-3.0244,0-.792-.0723-1.5122-.3604-2.2319.3604-.5762.5762-1.2964.5762-2.0166,0-.792-.2881-1.3677-1.0801-1.5117v-.2163c0-.936-.3604-1.728-1.0078-2.3042,0-3.2402,1.7998-4.6084,4.5361-5.8325.1436-.2158.2881-.4321.2158-.7197.5762.2158,1.1523.4316,1.7285.4316.4316,0,.9355-.0718,1.2959-.2158.2881,1.1519,1.7275,1.1519,2.5205,1.5122v.8638c0,1.5122.3594,2.8086,1.0078,4.1768-.2881.792-.3604,1.584-.3604,2.376,0,1.1523.1445,2.2324.1445,3.3125,0,1.1519-.1445,2.3042-1.0088,3.168-.1436,2.3765,0,6.6245-1.5117,8.5688-.0723,1.4399-.1445,2.8804-.1445,4.2485,0,2.0161.2168,5.3281,1.1523,7.1284.4326.792,2.1602,1.1523,3.0244,1.1523,1.0078,0,2.2324-.2881,2.7363-1.1523.5762.0723.5762.7202,1.0801,1.0083,5.3281-2.2324,10.7285-4.1768,15.8408-6.8408.4326.2163.793.2881,1.2246.2881.9365,0,1.8721-.2881,2.8086-.2881h.5039c.0723.2163.1436.4321.1436.6479,0,1.0801-1.1523,1.3682-1.1523,2.1602Z"/>
  <path class="b" d="M635.7559,38.7393c-.2881.0718-.5039.3599-.5039.7197-1.0801.3604-2.2324.5044-3.2402,1.0083-1.0801-.0718-2.0879-.144-3.168-.144-2.8086,0-5.6162.2881-8.4248.144-1.3682.7202-2.9521,1.2241-4.3926,1.2241-.5039,0-1.0078-.0718-1.4404-.2158-4.4639,2.3042-11.1602,2.376-14.9053,5.5444-.1436,1.2959-.2871,2.5923-.2871,3.8164s.1436,2.376.5752,3.5278c.5049.144,1.0801.2881,1.585.2881.4316,0,1.0078-.0718,1.2236-.5757,1.3682-.144,2.8086-.0723,4.1768-.0723,1.4395,0,2.8076-.0718,4.1045-.4321,3.0234-.792,5.6162-.0718,8.8564-1.5117,1.2236.4316,2.5205.3599,3.7441.5039.6484.4321,1.1523,1.0078,1.1523,1.7998,0,1.2964-1.2959,2.6646-1.8721,3.7446h-.792c-4.5371,0-8.2812,3.0244-12.8174,3.0244-.3604,0-.3604.5757-.5039.792-.3604-.0723-.7207-.0723-1.0801-.0723-2.0889,0-4.0322.7202-6.1211.7202-.5762,0-1.0801-.0723-1.6562-.144-.4316.7202-1.3682.792-2.0156,1.2959-.5039,1.8003.1436,5.1846-1.0078,6.5527.0713.5039,1.0078-.0718,1.0078.7202,0,.8638-.2158,1.7998-.2158,2.7363,0,3.6001,1.4395,8.9287,5.9043,8.9287,1.4404,0,2.8799-.5762,3.6719-1.8003l.3604-.0718c.3604,0,.7197.1436,1.0801.1436,1.0801,0,3.8164-3.3843,5.832-4.104.6484-1.2241,1.1523-2.7363,2.3047-3.5283v-2.0161c.9365-1.0083,2.1602-1.7285,2.7363-3.0244.4316.144.9355.2881,1.3682.2881.5039,0,1.0078-.144,1.4404-.2881.7197,1.0801,1.0801,2.376,1.7275,3.5283-1.6562,3.3843-4.6807,9.937-7.5605,12.313-.2158.2163-.5762.3599-.8643.5039-1.0078.6484-1.9443,1.3682-2.6641,2.3042-2.7363.7925-5.1123,2.3765-7.5605,3.7446-.5762-.144-1.2246-.2163-1.7998-.2163-1.1523,0-2.3047.2163-3.5283.2163-.3604-.4321-1.4404-.3604-1.2246-1.2241-6.3359-.4321-7.4883-6.7686-9.3604-11.5933v-.2158c0-.4321.5762-.4321.5762-.8643,0-.0718,0-.144-.0723-.2158-.2881-.936-.5039-1.6562-.5039-2.6641,0-1.4404.2881-2.9526.2881-4.3926,0-.6479-.0723-1.3682-.2881-2.0161.8633-.936.6475-3.2402,1.0078-4.5366-.3604-1.0078-.7197-1.728-.7197-2.8081v-.5039c.9355-1.5845,1.5117-3.3125,2.2314-5.0405v-.2163c0-2.7358-.2881-5.4722-.2881-8.2085,0-.8643,0-1.8003.0723-2.6641.7207-.3604,1.0078-1.1523,1.7285-1.5122h2.3037c.2881-.4321.6484-.936.7207-1.5122,1.0801-.2881,2.0156-.8643,2.8799-1.3682,2.6641-1.584,4.1045-2.376,7.2725-2.6641.6484-.0723.792-.3604,1.2246-.7202,1.1514.144,2.2314.3599,3.3838.3599s2.1602-.2158,3.168-.6479c2.8086,0,5.5449-.144,8.3535-.144,2.4482,0,4.8965.144,7.2725.6479.4316-.1436.9355-.2158,1.3682-.2158,1.1523,0,2.3037.3599,3.4561.2158.0723.9365.7197,1.5845.7197,2.5205v.2881Z"/>
  <path class="b" d="M664.916,36.5068c0,.5044.2881.6479.2881.936v.3604c-1.8721,1.7998-1.6562,4.5361-2.5205,6.7686-.4316,1.0801-1.2959,1.7998-1.7998,2.8081-.792,1.6562-.8643,3.6001-2.0156,5.0405v.3599c-.0723.3604.0713.6479.2871.8643-3.5996,4.6084-3.7441,13.5371-5.1123,19.2256.5039,2.0884,1.6562,3.8164,2.5205,5.7603,1.8721.4321,3.8164,1.1523,4.6084,3.0244-.1435,1.9443-1.3681,2.7363-2.8086,3.8164-1.0801-.3599-1.5117-.7202-2.7363-.5039-1.7998-1.3682-3.3838-1.8003-4.6084-3.8164-.1436-.2881-.6475-.2163-1.0078-.2163-.8643-2.2319-3.0244-5.4004-3.0244-7.7046,0-4.7524,1.2969-9.5049,1.2969-14.3291v-.7202c-1.873.4321-3.6729,1.5122-5.5449,2.0161-.6484.2163-.5039.7202-1.0078,1.0083-.8643.0723-1.7285.144-2.5205.144-3.2402,0-7.1289-.5039-9.3604-3.1685-.2168.0723-.5049.2163-.7207.2163-.2881,0-.5762-.144-.792-.2163-1.5117-2.0161-1.7275-4.9683-3.5283-6.7686-.1436-.8638-.2158-1.6562-.2158-2.52,0-1.6562.2881-3.2402.7197-4.8247-.3594-1.1519-.5039-2.376-.5039-3.6001,0-2.8081,1.0078-6.4805,4.4648-6.4805,1.8721,0,3.3838,1.2959,4.8965,2.3042.2158,1.0801.2881,2.1602.2881,3.312,0,2.3042-.3604,4.6084-.3604,6.9126,0,2.3765.5039,4.6084,2.0879,6.4087h.2881c.7197-.0718,1.2959.5039,1.9443.5039s.9355-.792,1.5117-.792.792.2881,1.0088.2881c.9355,0,2.6641-.936,3.0244-1.8003.2158.144.4316.2163.6475.2163.792,0,1.2959-.7202,2.376-.7202.5039,0,.0723-1.0801.5039-1.2241,1.1523-.4321,2.7363-1.584,3.5283-1.8003.4326-1.2241,1.2246-2.3042,2.0166-3.2402.5762-4.3921,3.6719-7.7764,4.3203-12.0967,1.0078-1.0083,1.584-2.3042,2.0166-3.5283.9355-.2881,2.6641-.2881,3.5996-.2881h1.2246c.2881.5762.8643,1.0078,1.2236,1.5122-.3594.5757-.5762,1.2959-.5762,1.9438,0,1.0801.5049,2.0161,1.0801,2.8804,0,.8643-1.0078,1.4399-1.0078,1.728Z"/>
  <path class="b" d="M699.7637,78.5586c-1.3682.6479-2.0879,2.0884-2.8076,3.3125-6.1211,4.0322-13.4658,6.7686-20.8818,6.7686-.9365,0-1.4404-1.9443-2.5928-1.9443-.2881,0-.5039.0718-.7197.2158,0-.2158.0723-.3599.0723-.5039,0-1.1519-.4326-2.3042-.4326-3.4561,0-.5762.0723-1.1523.3604-1.5845h.792c.9355,0,1.8721-.2158,2.8086-.2158.5039,0,1.0078.144,1.4395.4321,5.1123-.2163,9.6494-2.3765,14.4014-4.0327.7197-1.0078.6484-2.376,1.2246-3.5283-2.377-2.0161-4.8252-3.3843-8.0654-3.0239-1.9443-1.2241-4.1758-1.0801-6.4082-1.4404-.5762-.0718-1.2246-.2876-1.8721-.2876-.5039,0-.9365.2158-.8643.6479-.3604-.6479-1.3682-.5762-1.9443-1.1523-3.0244-.144-4.9678-1.2241-7.6328-2.3042-.7197-.2881-1.5117-.4321-2.1602-.7197-3.3115-1.6562-3.8164-6.1206-4.3203-9.3608.8643-1.5122,1.584-3.0967,2.0166-4.8247.5762-.2881,1.1523-.4321,1.7998-.7197-.0723-.144-.0723-.2163-.0723-.3604,0-.5039.4326-.936.2881-1.4399,2.0889-1.8003,4.1045-3.8164,5.5449-6.2646,2.7363-.8643,3.0967-4.1763,6.3369-4.5361.7197-1.4404,2.7363-1.4404,3.2402-3.0244,2.9521-.0723,4.8965-2.6646,7.9199-2.6646.3604,0,.793.0723,1.1523.144,1.4404,1.2241.6484,3.8887,1.2959,5.5449-.8633,1.584-1.6553,3.3843-3.3115,4.248h-.1445c-.6475.0723-1.1523-.5039-1.8721-.5039-.9365,0-.792,1.0801-2.0166.792-.5039.2158-.8633.6479-.7197,1.2241-3.5283.2881-4.5361,4.3926-7.3447,4.5366-1.5117,2.8081-4.248,4.6084-5.7607,7.3442.2881.7925.3604,1.6562.5049,2.5205.8633,1.1519,2.0879,1.9438,3.2402,2.7363h.2158c1.7998,0,3.3838,1.0801,5.1123,1.0801.4316,0,.8643-.0723,1.2246-.2881,2.376.5757,4.8242.936,7.2002,1.1519,1.2236.144,2.5205.0723,3.6719.3604,1.0801.2876,2.0889.7197,3.0967,1.1519,4.3203,1.8721,7.9922,4.4644,7.9922,9.7207,0,1.5845-1.2236,2.5205-1.0078,4.2485Z"/>
</svg>