<?xml version="1.0" encoding="UTF-8"?>
<svg id="uuid-3c4fa75d-444f-4c22-aedb-f4ac46bcb4d2" data-name="usachan-smooth" xmlns="http://www.w3.org/2000/svg" width="208.9455656" height="198.1972194" viewBox="0 0 208.9455656 198.1972194">
  <defs>
    <filter id="displacement-01">
      <feTurbulence
        type="fractalNoise"
        baseFrequency="0.05"
        numOctaves="3"
        result="noise" 
      />
      <feDisplacementMap
        in2="noise"
        in="SourceGraphic"
        scale="4"
      />
    </filter>
        <filter id="displacement-02">
      <feTurbulence
        type="fractalNoise"
        baseFrequency="0.08"
        numOctaves="3"
        result="noise" 
      />
      <feDisplacementMap
        in2="noise"
        in="SourceGraphic"
        scale="6"
      />
    </filter>

    <style>
      .uuid-be7d17ad-f455-4fab-bb49-a3a616502791 {
        fill: #bb0011;
        stroke-width: 0px;
        will-change: filter;
        @media (prefers-reduced-motion: no-preference) {
          animation: 
            displacement 0.3s linear 0.2s infinite;
        }
      }
      @keyframes displacement {
        0% {
          filter: url(#displacement-01);
        }
        100% {
          filter: url(#displacement-02);
        }

      }
    </style>
  </defs>
  <path class="uuid-be7d17ad-f455-4fab-bb49-a3a616502791" d="M142.3786944,38.0357266c2.5763855.9535942,4.3153229-1.247261,6.2066956-2.1364822,10.3658295-4.8734283,20.5575562-10.1154213,30.8655396-15.1143913,5.1405945-2.4929848,10.8251648-3.2331963,16.3526917-4.2571621,3.943222-.7304707,8.2972717-1.7207298,11.3963623,2.4728298,3.6065826,4.8802757.8400574,9.3611031-1.2842255,13.4411621-1.7116394,3.2874947-4.5760803,5.9690971-7.5768585,8.466404-13.8767242,11.5484924-30.5762482,17.8617554-46.4197693,25.8410263-15.7299652,7.9220886-31.0148163,16.7282944-46.4870911,25.1610107-.8303299.4525528-2.1548309.8262863-1.7255325,2.0444031.4140472,1.1748199,1.824585,1.5552139,2.9384613,1.5993347,6.6467667.2633057,12.2801437,3.21875,17.1171036,7.2838135,12.5553894,10.5517578,25.6849823,20.7347031,30.5364532,37.6164474,1.1293945,3.9299316,1.1586914,7.4323883-1.68927,10.7386017-3.141449,3.6469421-6.0511475,7.485733-9.189621,11.1484222-3.0920258,3.6085052-3.551712,8.7657471-6.4178772,12.7321014-3.4794617,4.8150635-7.6551819,7.87117-13.7420807,7.0409546-3.7434235-.5105591-6.1851349,2.0718536-9.1790314,3.2324677-7.2606354,2.8147278-9.705368,1.2437744-9.3737106-6.6387024.1462173-3.4750824-2.2084274-2.1126251-3.6549454-1.7082825-15.4606781,4.3216858-31.3300476,6.1115417-47.2408447,7.4663696-4.6306496.3943024-8.5567398,1.4515228-12.3433037,4.3120728-5.3465919,4.0390625-8.6495056,3.40625-12.5871468-1.8761597-1.7588158-2.3594818-2.9577751-1.7590637-4.7948685-.2475891-4.1048813,3.3773041-8.363987,6.5671844-12.561554,9.8317719-1.8077698,1.4059448-3.9303532,2.3886719-5.9845085,1.1353912-2.2600842-1.3789062-2.9914665-3.6811981-2.7961321-6.486557.5110493-7.3395996,3.7751665-13.3957825,8.7508574-18.4425812,1.7678452-1.7930908,1.0013332-2.6615143.285181-4.1689911-3.1281528-6.5847626-6.6807842-12.8923645-9.0349808-19.9333496-3.9228153-11.7324371-3.0453949-23.2117767-1.0491257-34.9857025,2.6516876-15.6395569,9.3131809-29.4203796,19.2756767-41.5040436,7.1398773-8.6600723,16.9164925-14.0528564,26.7210083-19.3230515C82.8851413,33.8601323,120.1520861,19.5804082,156.7635211,3.8429509c4.3592834-1.8738461,9.2689056-2.5392351,13.9780426-3.4958296,2.2101288-.4489527,4.9399719-.9265251,6.1435699,1.7947283,1.1415863,2.5810471-.7279968,4.5105553-2.433197,6.0642815-10.325943,9.4086399-20.7285614,18.73316-31.1222076,28.0672359-.496582.4459572-1.1036377.7468758-.9510345,1.7623596ZM170.6968402,5.7545644c-.2214508-.3713455-.4429016-.7426891-.6643524-1.1140347-6.1200714,1.2800541-12.2253113,2.5550804-18.0236511,5.1147022-8.3560944,3.6886997-16.7749176,7.2356415-25.1739349,10.826786-27.486969,11.752533-55.0749664,23.2970886-81.2583275,37.8340874-4.296566,2.3854523-10.2217484,3.5174255-9.8590431,10.5475159.0530815,1.028862-.3032188,3.0002747-1.9671478,3.1008377-2.0505142.1239319-.7768135-1.6916733-1.1452866-2.5823593-.5705719-1.3792038-1.6455841-.9574814-2.4550362-.4130936-1.507885,1.0140915-3.1409531,1.996376-4.2988853,3.3529816-13.7641106,16.1256943-20.9724064,34.8030243-21.7690859,56.0108643-.1396513,3.7175751.5000563,5.9940491,4.8220339,6.3512268,1.8142662.1499329,3.6834641,1.5240326,5.2268276,2.7274628,5.8674545,4.5750885,11.7857189,8.7375336,19.8876514,6.7903748,1.0120621-.2432556,2.6391945-.4155731,2.7787857,1.2095337.12286,1.4303436-1.3334923,1.7847748-2.4463196,2.0172577-5.323391,1.1122131-10.4387589,1.5259399-15.1733532-2.2892456-3.4678612-2.7944489-6.8420715-5.8600464-11.1955719-7.3921814-2.1859512-.7693024-3.9496002-.656311-3.3058319,2.2069092,2.3840027,10.6031036,5.9169426,20.7305756,13.1107903,29.1926117,3.3789654,3.9746552,7.5922985,5.9071655,12.5680904,7.8924255,7.4171181,2.9593506,13.7151108,5.2496948,20.7018814.0737.8925858-.6612854,2.1857567-.8695831,2.3975182.4347076.7396698,4.556015,4.0154419,2.5976715,6.2004776,2.3081512,14.0052109-1.8556824,28.0955124-3.1949615,41.7606125-7.1771393,2.9486618-.8592834,5.8284912-1.1278839,7.3892517-4.2082367.3562241-.7030487,1.4214859-1.5587769,1.8925095-.5172577,1.6611404,3.6730957,4.1827621,1.5468903,6.3569565,1.0911407,5.5996094-1.1737671,10.349472-4.44104,15.5770111-6.5474396,6.6031952-2.6607056,11.9078827-6.9264526,16.0011444-12.7940521,2.0597382-2.9526062,2.618866-5.7168274,1.4872894-9.3207855-4.7879944-15.2491608-17.4320526-23.8873749-28.2696686-33.9968491-5.5421143-5.169754-13.0245438-6.1031494-20.0369873-8.1437912-3.3712463-.9810562-5.996933-1.94561-8.9391708.5044785-.9974213.830574-2.3533859,2.8063354-3.6701279.8686676-1.3371658-1.9677048.2802353-3.3366852,2.0104675-4.3034515,3.7646103-2.1034622,7.4861374-4.2871094,11.2898483-6.3169632,20.8101425-11.1054077,40.791481-23.8068085,62.7204971-32.7586441,11.0384369-4.5061188,20.6672058-11.2901993,30.1717224-18.2935677,3.252594-2.3966522,5.9586792-5.4089737,7.7647247-8.9770241,1.0556946-2.0856552,2.758316-4.51651,1.1163177-7.0385399-1.8020782-2.7678871-4.8023224-2.1569786-7.3091583-1.6487656-6.8202667,1.3826866-13.6333008,2.658947-19.9919128,5.927063-12.4037018,6.3750763-25.1021576,12.1743927-37.552948,18.460907-9.1867676,4.6384773-18.9477997,8.2672234-27.4180984,14.1822319-12.814415,8.9486084-25.3280945,18.3273773-38.000946,27.4799194-1.3673172.9874954-2.9752197,3.1439972-4.6511459,1.1181183-1.5133438-1.829361.4978333-3.2472229,1.7331848-4.5749741,6.8418655-7.353508,14.6283264-13.447113,23.2364349-18.6773605,18.5933838-11.2972565,37.1286011-22.7308769,53.3617096-37.4057579,7.7254486-6.9838791,15.3448334-14.0850906,23.0122528-21.1331482ZM6.3964595,191.0217801c-.1167088.9604187-.2247543,2.0211029.6889439,2.6974182,1.1919785.8823242,2.1788368.1472473,3.1137085-.5835266,2.6069622-2.037796,5.2293472-4.0565948,7.8078766-6.1298828,7.3339939-5.8969269,7.2649937-5.8268585-.0401497-11.5069122-2.2808895-1.7735138-4.0011959-1.4505768-5.4489708.628479-3.12467,4.4871216-6.1233368,9.0756836-6.1214085,14.8944244ZM123.0225238,172.1436978c-4.6308441.9779358-8.4359741,1.3681335-11.91465,2.6466217-2.7949524,1.0271912-4.6359329,3.9563141-3.3487167,6.7943268,1.2823257,2.8272095,4.1981735,1.19664,6.1192703.2135925,3.7093887-1.8981476,6.7067032-4.6952515,9.1440964-9.654541ZM124.7372912,178.2795926c7.013855-.8171082,8.8091736-5.2863159,11.1326294-9.1758118.6349182-1.0628662,2.0932007-2.3992767.1937561-3.223465-1.3400421-.5814667-3.6490631.3309784-3.6893921,1.6577759-.1451569,4.7732086-3.9143066,6.9344635-7.6369934,10.7415009ZM35.2410373,183.8464261c-1.1678123.0648499-2.7003975-.2201996-2.6190491,1.4314728.0749321,1.5214844,1.5150528,2.1658325,2.8763428,2.0929871,1.4106483-.0754852,3.4634895-.4213409,3.3430519-2.0553741-.1393776-1.8910065-2.3809013-1.0052643-3.6003456-1.4690857ZM33.649721,114.4301816c1.7289124-1.7278061,5.4168968-1.1112671,5.5515137-4.6166.0835724-2.1763229-.6556778-3.553299-2.9466133-3.6771469-3.6434479-.1969833-3.47369,2.776268-4.1491661,5.0445633-.0377579,1.4919357.690609,4.1022873,1.5442657,3.2491837Z"/>
</svg>