<?xml version="1.0" encoding="UTF-8"?>
<svg id="usachan" data-name="usachan-smooth" xmlns="http://www.w3.org/2000/svg" width="208.9455656" height="198.1972194" viewBox="0 0 208.9455656 198.1972194">
  <defs>
    <filter id="displacement">
      <feTurbulence
        type="fractalNoise"
        baseFrequency="0.05"
        numOctaves="3"
        result="noise" 
      >
        <animate 
          attributeName="baseFrequency"
          values="0.02;0.1;0.02"
          dur="300ms"
          calcMode="discrete"
          repeatCount="indefinite"
        />
      </feTurbulence>
      <feDisplacementMap
        in2="noise"
        in="SourceGraphic"
        scale="4"
      >
        <animate 
          attributeName="scale"
          values="0;12;0"
          dur="400ms"
          repeatCount="indefinite"
        />

      </feDisplacementMap>
    </filter>
    <style>
      .usachan {
        fill: #bb0011;
        stroke-width: 0px;
        @media (prefers-reduced-motion: no-preference) {
          will-change: filter;
          filter: url(#displacement);
        }
      }
    </style>
  </defs>
  <path d="M142.379 38.036c2.576.953 4.315-1.248 6.206-2.137 10.366-4.873 20.558-10.115 30.866-15.114 5.14-2.493 10.825-3.233 16.353-4.257 3.943-.73 8.297-1.721 11.396 2.473 3.607 4.88.84 9.36-1.284 13.44-1.712 3.288-4.576 5.97-7.577 8.467-13.877 11.549-30.576 17.862-46.42 25.841-15.73 7.922-31.015 16.728-46.487 25.161-.83.453-2.155.826-1.725 2.045.414 1.174 1.824 1.555 2.938 1.599 6.647.263 12.28 3.219 17.117 7.284 12.555 10.551 25.685 20.734 30.537 37.616 1.129 3.93 1.158 7.433-1.69 10.739-3.141 3.647-6.05 7.485-9.19 11.148-3.091 3.609-3.551 8.766-6.417 12.732-3.48 4.815-7.655 7.871-13.742 7.041-3.744-.51-6.185 2.072-9.18 3.233-7.26 2.814-9.705 1.243-9.373-6.639.146-3.475-2.208-2.113-3.655-1.708-15.46 4.321-31.33 6.111-47.24 7.466-4.632.394-8.558 1.452-12.344 4.312-5.347 4.04-8.65 3.406-12.587-1.876-1.76-2.36-2.958-1.76-4.795-.248-4.105 3.378-8.364 6.568-12.562 9.832-1.807 1.406-3.93 2.389-5.984 1.136-2.26-1.38-2.992-3.682-2.796-6.487.51-7.34 3.775-13.396 8.75-18.443 1.768-1.793 1.002-2.661.286-4.169-3.128-6.584-6.681-12.892-9.035-19.933-3.923-11.732-3.046-23.212-1.05-34.986 2.652-15.64 9.314-29.42 19.276-41.504 7.14-8.66 16.917-14.053 26.721-19.323C82.885 33.86 120.152 19.58 156.764 3.843c4.359-1.874 9.268-2.54 13.978-3.496 2.21-.449 4.94-.926 6.143 1.795 1.142 2.58-.728 4.51-2.433 6.064-10.326 9.409-20.729 18.733-31.122 28.067-.497.446-1.104.747-.951 1.763Zm28.318-32.281-.665-1.114c-6.12 1.28-12.225 2.555-18.023 5.114-8.356 3.689-16.775 7.236-25.174 10.827C99.348 32.335 71.76 43.879 45.577 58.416c-4.297 2.386-10.222 3.518-9.86 10.548.054 1.028-.303 3-1.967 3.1-2.05.124-.776-1.691-1.145-2.582-.57-1.38-1.645-.957-2.455-.413-1.508 1.014-3.14 1.996-4.299 3.353-13.764 16.126-20.972 34.803-21.769 56.01-.14 3.718.5 5.995 4.822 6.352 1.814.15 3.684 1.524 5.227 2.728 5.867 4.575 11.786 8.737 19.888 6.79 1.012-.243 2.639-.416 2.778 1.21.123 1.43-1.333 1.784-2.446 2.017-5.323 1.112-10.439 1.526-15.173-2.29-3.468-2.794-6.842-5.86-11.196-7.392-2.186-.769-3.95-.656-3.306 2.207 2.384 10.603 5.917 20.73 13.111 29.193 3.38 3.974 7.592 5.907 12.568 7.892 7.417 2.96 13.715 5.25 20.702.074.893-.661 2.186-.87 2.398.435.74 4.556 4.015 2.597 6.2 2.308 14.005-1.856 28.096-3.195 41.76-7.177 2.95-.86 5.83-1.128 7.39-4.209.356-.703 1.421-1.558 1.892-.517 1.662 3.673 4.183 1.547 6.357 1.091 5.6-1.173 10.35-4.44 15.577-6.547 6.604-2.66 11.908-6.927 16.002-12.794 2.06-2.953 2.618-5.717 1.487-9.321-4.788-15.25-17.432-23.887-28.27-33.997-5.542-5.17-13.024-6.103-20.037-8.144-3.371-.98-5.997-1.945-8.939.505-.997.83-2.353 2.806-3.67.869-1.337-1.968.28-3.337 2.01-4.304 3.765-2.103 7.486-4.287 11.29-6.317 20.81-11.105 40.792-23.807 62.72-32.759 11.04-4.506 20.668-11.29 30.172-18.293 3.253-2.397 5.96-5.41 7.765-8.977 1.056-2.086 2.758-4.517 1.116-7.039-1.802-2.768-4.802-2.157-7.309-1.648-6.82 1.382-13.633 2.659-19.992 5.927-12.403 6.375-25.102 12.174-37.553 18.46-9.186 4.639-18.947 8.268-27.418 14.183-12.814 8.948-25.328 18.327-38 27.48-1.368.987-2.976 3.144-4.652 1.118-1.513-1.83.498-3.247 1.733-4.575 6.842-7.354 14.629-13.447 23.237-18.678 18.593-11.297 37.128-22.73 53.362-37.405 7.725-6.984 15.344-14.085 23.012-21.133ZM6.397 191.022c-.117.96-.225 2.02.688 2.697 1.192.883 2.18.147 3.114-.583 2.607-2.038 5.23-4.057 7.808-6.13 7.334-5.897 7.265-5.827-.04-11.507-2.281-1.774-4.001-1.45-5.45.628-3.124 4.487-6.122 9.076-6.12 14.895Zm116.626-18.878c-4.631.978-8.436 1.368-11.915 2.646-2.795 1.028-4.636 3.957-3.349 6.795 1.282 2.827 4.198 1.196 6.12.213 3.709-1.898 6.706-4.695 9.144-9.654Zm1.714 6.136c7.014-.818 8.81-5.287 11.133-9.176.635-1.063 2.093-2.4.194-3.224-1.34-.581-3.65.331-3.69 1.658-.145 4.773-3.914 6.935-7.637 10.742Zm-89.496 5.566c-1.168.065-2.7-.22-2.619 1.432.075 1.521 1.515 2.166 2.876 2.093 1.411-.076 3.464-.421 3.343-2.055-.139-1.891-2.38-1.006-3.6-1.47ZM33.65 114.43c1.729-1.728 5.417-1.111 5.551-4.616.084-2.177-.655-3.554-2.946-3.678-3.644-.197-3.474 2.777-4.15 5.045-.037 1.492.691 4.102 1.545 3.25Z" class="usachan"/>
</svg>