<?xml version="1.0" encoding="UTF-8"?>
<svg id="favicon" xmlns="http://www.w3.org/2000/svg" viewBox="0 0 100 100">
  <defs>
    <style>
      .cls-1 {
        fill: #222;
      }

      .cls-1, .cls-2 {
        stroke-width: 0px;
      }

      .cls-2 {
        fill: #ddd;
      }
    </style>
  </defs>
  <path class="cls-1" d="M90,100H16c-8.8366,0-16-7.1634-16-16V10C0,4.4772,4.4772,0,10,0h74c8.8366,0,16,7.1634,16,16v74c0,5.5228-4.4772,10-10,10Z"/>
  <g>
    <path class="cls-2" d="M52.6243,36.6652c-2.0522,2.6997-3.3838,6.0112-6.0479,8.207.0361.0356.0361.1079.0361.144,0,.252-.3599.3599-.2881.6118-1.1875,1.1875-2.3755,2.3394-3.2754,3.7793-.5762.252-.9722.6841-1.2598,1.2598-.2881,0-.3599.1802-.6123.252-1.4756,1.7998-3.1313,3.4556-5.0029,4.8237-.6841.5039-1.4038.8999-2.0518,1.3677-.4321.2881-.8281.7197-1.2241,1.0439-1.3315,1.1519-2.5918,1.9438-4.3555,2.2314-.2881,1.0801.144,2.3398-.3599,3.3833v.1084c0,.4678.3242.8994.3242,1.3672,0,.1807-.0723.3242-.2163.4326h.8999c0,.6475.6118,1.1152.6118,1.3672,0,.792-.0356,1.9443-.8638,2.2686v.2158c0,.4678-.0718.9355-.396,1.332-.252,0-.5039.0352-.7559.0352-.936,0-1.8359-.2158-2.6274-.6836-.5039-1.2236-.6479-2.5557-.6479-3.8516,0-2.5557.5396-5.0752.7559-7.6309l.5039-1.0078c.1797-2.6636,1.0796-5.2554,1.0078-7.9189.3237-.792.5039-1.7275.5039-2.5557,0-.4678-.0361-.936-.252-1.3677.2881-.1802.3237-.54.5039-.7559.144-1.7998.252-3.5996.252-5.3994,0-.9722-.0361-1.9438-.144-2.9155-.0356-.3604-.2158-.9722-.2158-1.2603,0-.3955.0718-.7915.0718-1.1875,0-.4683-.0718-.936-.3237-1.332-2.1958.6479-3.8877,1.8359-5.7231,3.1675-.7202.54-1.6919,1.3682-2.4839,1.728-.144.0718-.396.1079-.54.1079-.4678,0-.8999-.1079-1.3315-.1079-.3242-.3242-.7202-.5762-1.1519-.7559-.0723-.2881-.1084-.6118-.1084-.936,0-.6479.144-1.2598.3604-1.8354,1.1519-.4321,2.5913-.8281,3.1675-2.0161.1079.0723.2158.1079.3599.1079.2158,0,.4321-.0718.6479-.1079.8281-.54,1.6919-1.1157,2.6279-1.5117.2876-.1079.2876-.2158.252-.5039,1.0796-.3237,2.3394-.7197,3.1675-1.5117h.6118c1.4038-1.0439,3.3115-1.1519,4.6792-2.2676.1084-.0361.252-.0723.3604-.0723.144,0,.2876.0361.396.0723.4678-.2524.7915-.6123,1.1519-1.0083,1.5474-.0356,2.3394-.5757,3.6353-1.2598.252.0723.3242.252.6479.252.9717-.6836,2.2676-.4316,3.1318-1.1157,1.5117,0,3.0234-.1079,4.5352-.1079,2.1597,0,4.4995.1797,6.2988,1.4756.3604.8281.8643,1.584,1.5127,2.1597.1074.4683.2158.936.3955,1.3682-.1797.3599-.252.7559-.252,1.1519,0,.8276.252,1.6558.252,2.4478,0,1.6558-.8643,3.1313-1.1514,4.7153ZM50.2483,29.6101c-.6123-.4678-.792-1.3677-1.4038-1.7637-.4321-.252-1.332-.2163-1.8721-.3599-.5757-.1802-.5757-.4321-1.2598-.4321-.5757,0-1.1157.1797-1.6919.1797-.4678,0-.8638-.252-1.3315-.252-.54,0-.8999.5044-1.5122.3604-.5396.5039.1084.5039-.9355.5039-1.0078,0-2.0879.252-2.8438.8999-.144-.0361-.252-.0723-.396-.0723-.792,0-1.4756.6841-2.3755.6841-1.1519,1.1519-3.3838,1.0439-4.1758,2.5195-.0356.396.396.3599.396.7202,0,.3237-.1797.8276-.1797,1.2954,0,1.0801.3237,2.124.5396,3.168-.252.144-.252.4678-.5039.6118.3242.9717.5039,1.9795.5039,3.0234,0,1.6201-.5039,3.2036-.6479,4.8237,0,.3237.2881.3237.2881.5757,0,.0723,0,.1079-.0356.1802-.5044,3.1675-1.0439,6.3711-1.3682,9.5747h.2881c1.2236,0,2.1597-.8638,2.8438-1.7637h.54c3.3472-2.9517,6.5508-6.0474,9.3228-9.6108.3599,0,.4316-.2881.7559-.3599.9717-1.3682,2.0156-2.7358,3.2754-3.9238.1079-1.0078.9722-1.2959,1.0078-2.3755.252-.1079.54-.1802.7559-.396.0723-.4678.4321-.8281.4321-1.2959,0-.1079-.0361-.2158-.0718-.3237,1.5474-.7202,1.4756-3.2397,1.9077-4.6797-.252-.4321-.2881-1.0078-.252-1.5117Z"/>
    <path class="cls-2" d="M62.4869,78.6901c-.2158,0-.4316-.0361-.6484-.0361-.252,0-.1436.3237-.3594.396-.252-.0723-.5039-.1084-.7197-.1084-.2881,0-.6123.0361-.9004.0361-.7197,0-.5762-.3599-1.0439-.5757-.3242-.144-.4678.1079-.8994-.252-1.0801-.8999-1.5117-2.8794-2.6279-4.0312h-.2881c-.3955,0-.6836.1436-.8633.5039-.2529-.144-.4688-.3604-.7568-.5039-1.0791.3237-2.2676.5757-3.4189.5757-.3242,0-.6484,0-.9717-.0718-.4326.1797-.792.5396-1.2598.5396-.1807,0-.3604-.0718-.5039-.1436-.252,0-.0723.3599-.3965.3599h-.3242c-.6475,0-1.2959.0718-1.9434.0718-.4678,0-.9355-.0718-1.3677-.1797-.1084.0718-.2524.1079-.396.1079-.3604.2158-.252.8638-.8643.7559-.0718.5757-.6479.7559-.6479,1.4038-1.0078.54-1.2236,1.8711-2.2676,2.375-.144.1807-.144.4326-.1079.6484-.54.4316-1.332.8281-2.0156.8281-.7202,0-1.1519-.4326-1.4038-1.0801.0356-.9355.144-2.2676,1.1519-2.6636,0-.396-.4321-.4321-.396-.8638,2.5557-1.2241,3.4194-4.1396,5.4351-5.9395v-.7559c.6841-.6841,1.1519-1.5479,1.3682-2.5195.5039-.1079.6475-.54.6475-1.0078.2158,0,.2158-.3604.5039-.252.8281-2.2319,2.2676-3.6719,2.6279-6.1914.6123-.0361.5762-.792.6484-1.2598,1.3672-1.2959,1.1875-3.7798,2.5195-5.2915v-.1079c0-.2158-.2881-.1802-.2881-.4321,0,0,.0361-.0356.0361-.0718.54-.252.6836-.936,1.2598-1.1519.9717.7559,1.5479.8281,2.7715.8999.6123.6841.54,1.6558.7559,2.5195.3604,1.4761.8994,2.8799,1.1162,4.3916.1436.8999.6475,1.6558.7559,2.5195.1074.6479-.1084,1.5479.1436,2.1597l.252.5762c.2158.54.3965,1.0796.54,1.6558.3604,1.4038.5762,3.1313,1.2236,4.4634.4678.8999,2.1963.6841,3.0234.6841.252,0,.5039,0,.7559.0718.0723.144.1445.3242.1445.5039,0,.5762-.54.792-.54,1.2241,0,.144.0723.2876.1436.396-.1436-.0361-.2871-.0361-.4316-.0361-.5039,0-1.0801.1079-1.584.2881.3604.7915,1.0439,1.2954,1.7637,1.7637.2168-.1802.4688-.2881.7207-.2881.5752,0,1.0439.3599,1.583.3599.1807,0,.3242,0,.4688-.0718.3594.396.5391.8638.8994,1.2598-.252,1.2959-1.9795,1.5479-3.0234,1.5479ZM54.0279,69.9791c-.1797-.6479-.2158-1.4399-.3604-2.1235-.2881-1.584-.6836-3.2036-1.2959-4.7158.0723-.1079.1445-.252.1445-.396v-.1079c-.8281-.9355-.5762-2.8433-1.6562-3.5273-.0713.144-.1074.2881-.1074.4678,0,.3242.1074.6118.1074.936-.4678.2158-.5752.8276-1.0078,1.1157-.792,2.9878-3.0234,5.2554-3.8877,8.207-.5752.396-.7559,1.1157-.7559,1.7637.8643.5039,2.1602-.1079,2.8799.6479.5762-.1797,1.4404-.1797,1.9082-.5039.4678.1802.9717.252,1.5117.252s1.1152-.1079,1.6191-.252c.3965.1079.54.396,1.0088.3599.2158-.1797.2158-.4316.3955-.6118-.0723-.792-.3604-.9717-.5039-1.5117Z"/>
    <path class="cls-2" d="M81.7517,22.1771c-1.1152,6.479-1.2236,13.1382-2.915,19.5454l.0361.4321c.0713.9355-.4326,1.7275-.3965,2.6997-.6475,1.6558-1.1875,3.7793-1.2598,5.543-.8994,1.6201-1.0439,3.9238-2.2676,5.291-.2881,2.1602-1.8359,3.7441-2.2676,5.7959-.792,1.1875-1.6201,2.3037-2.2676,3.5635-1.2246.54-1.584,1.5479-3.1318,1.5479-.1797,0-.3604-.0361-.54-.0361-.6484-.4678-1.2959-1.0078-2.0156-1.4043-.0361-.5752-.3242-.6475-.1084-1.2598-.4316-.2881-1.1514-1.1875-1.1514-1.6914,0-.1797.1074-.3242.252-.3242-.1084-.4678-.3965-.9355-.3965-1.4033,0-.1807.0723-.3604.1445-.5039-.5039-1.2246-.9717-2.5205-1.1162-3.8877-.9355-1.2236-.8994-3.3838-1.1875-4.8594-.0361-.2881-.3242-1.1519-.3242-1.332,0-.2876.1797-.3599.252-.6118-1.1523-4.4995-1.1162-9.2148-2.5195-13.6421v-.3242c0-.7559-.2881-1.3315-.9004-1.7998.1084-.2876.1807-.5757.1807-.8638,0-1.188-.8281-2.2314-.54-3.4194-.5039-.54-.7197-1.2959-1.2598-1.7637l-.0361-.1802c0-.252.1797-.4321.1797-.6479,0-.6479-.792-.8638-.792-1.332,0-1.1157,1.7637-1.0796,2.0156-2.1235.3965.0718.792.0718,1.1523.252q.0361-.0361.0361-.1079c0-.144-.6484-.252-.792-.396.1436-.0361.2881-.0718.4316-.0718.9355,0,1.7998.5757,2.5918,1.0796.0723.4321-.0723.8638.252,1.2598-.0361.2163,0,.4321,0,.6123,0,.1797-.0723.3955-.252.3955.7197,1.188.252,3.3477,1.2598,4.5356-.1084.2881-.1084.5757-.1084.8999,0,1.5117.5762,2.9155.5762,4.4272,0,.4321-.0713.8281-.2158,1.2241,0,.4316.3965.6118.5039,1.0078-.1074.252-.1797.54-.1797.8276,0,1.0439.6113,1.98.6113,3.0239,0,.2881-.0713.5757-.1797.8276.3965.4321.2158,1.188.6123,1.6201-.0361.2158-.0361.5039-.252.6479.2158.2876.1074,1.0078.5039,1.1157-.0723.2158-.1445.396-.1445.6118,0,1.0078.7559,1.6196.3965,2.8076.4316.5039.2881,1.6558,1.0078,1.8721.0723.2876-.3604.1436-.3604.3955,0,.3604.3604,1.0083.6123,1.2603-.0361.1797-.0361.396-.0361.6118,0,1.2593.8994,2.771.54,3.9233.3242.6836.54,1.5117,1.1514,2.0156,0,.792.3604,1.5479.8643,2.1602,1.0078,0,.6475-1.4404,1.5117-1.5479.1084-.9004.9717-1.1523.9004-2.2686l.3594-.1074c.2158-1.2598.792-2.1963,1.4043-3.2754v-.1807c0-.4312.1797-.7192.1074-1.2231.6484-.2163.4678-1.188,1.0078-1.5117v-.2881c-.0361-.396.1807-.792,0-1.2241.7207-.3237.7207-1.3677.7559-2.0156.6846-.8638.3965-2.4834,1.1523-3.2754-.0723-.2163-.0723-.4321-.0723-.6479,0-.8638.3242-1.5479.5762-2.376.6123-2.1235.7559-4.3911,1.2236-6.5508.1084-.5039.6484-2.2319.6484-2.52,0-.3599-.252-.4316-.252-.7559.5391-.8276.3955-2.8076.3955-3.7793,0-.54.3604-1.4399.4316-2.0518.2158-1.584.252-3.168.3242-4.7515.3242-.1802.4678-.5039.4678-.8281,0-.5039-.1797-.9717-.1797-1.4756,0-.252.0361-.54.2158-.7202-.0361-.2876-.0361-.6836-.252-.8999.1084-.2876.1797-.6118.1797-.8994,0-.5762-.1797-1.1519-.1797-1.728,0-.5757.2158-1.0078.7559-1.2598h.4678c.4678,0,.9727-.0361,1.4404-.252,1.2959,1.3315,2.7715,3.1313,2.375,5.1475.1807.3599.1445.7915.3965,1.1519-.6484.8999-1.3682,1.7998-2.4121,2.2676ZM76.9645,39.059c-.1797-.0361-.2158-.2158-.3955-.252v.396h.252l.1436-.144Z"/>
  </g>
</svg>